<?xml version="1.0" encoding="UTF-8" standalone="no"?>

<svg
	xmlns="http://www.w3.org/2000/svg" version="1.1"
	xmlns:freecad="http://www.freecadweb.org/wiki/index.php?title=Svg_Namespace"
	width="594mm"
	height="420mm"
	viewBox="0 0 594 420">
	<!-- Working space 20 10 584 410 -->
	<!-- Title block 404 350 584 410 -->
	<g>
		<rect
			id="drawing-border"
			style="fill:none;stroke:#000000;stroke-width:0.35;stroke-linecap:miter;stroke-miterlimit:4"
			width="564"
			height="400"
			x="20"
			y="10" />
			<!-- width-30, height-20 -->
		<g
			transform="translate(384,123)">
			<!-- A4 Portrait based for other formats width-210, height-297 -->
			<!--        page       rect   translation
			               w    h    rw   rh   tx   ty
			        A4-P  210  297  180  277    0    0
			        A3-L  420  297  390  277  210    0
			        A2-L  594  420  564  400  384  123
			        A1-L  841  594  811  574  631  297
			        A0-L 1189  841 1159  821  979  544
			-->
			<g
				id="titleblock-structure"
				style="fill:none;stroke:#000000;stroke-width:0.35;stroke-linecap:miter;stroke-miterlimit:4">
				<rect width="180" height="60" x="20" y="227" />
				<path d="m 20,239 h 180" />
				<path d="m 80,227 v 12" />
				<path d="m 140,239 v 48" />
				<path d="m 160,239 v 12" />
				<path d="m 180,239 v 12" />
				<path d="m 140,251 h 60" />
				<path d="m 140,275 h 60" />
				<path d="m 180,275 v 12" />
			</g>
			<g
				id="titleblock-text-non-editable"
				style="font-size:3px;text-anchor:start;fill:#000000;font-family:osifont"
				xml:space="preserve">
				<text x="21" y="230">Created by:</text>
				<text x="81" y="230">Title:</text>
				<text x="21" y="242">Supplementary information:</text>
				<text x="141" y="242">Size:</text>
				<text x="161" y="242">Sheet:</text>
				<text x="181" y="242">Scale:</text>
				<text x="141" y="254">Part number:</text>
				<text x="141" y="266">Drawing number:</text>
				<text x="141" y="278">Date:</text>
				<text x="181" y="278">Revision:</text>
			</g>
			<g
				id="titleblock-text-editable"
				style="font-size:5px;text-anchor:middle;fill:#000000;font-family:osifont"
				xml:space="preserve">
				<text freecad:editable="AUTHOR NAME" x="50" y="236"><tspan>AUTHOR NAME</tspan></text>
				<text freecad:editable="DRAWING TITLE" x="140" y="236"><tspan>DRAWING TITLE</tspan></text>
				<text freecad:editable="SI-1" x="80" y="248"><tspan></tspan></text>
				<text freecad:editable="SI-2" x="80" y="255"><tspan></tspan></text>
				<text freecad:editable="FreeCAD DRAWING" x="80" y="262"><tspan>FreeCAD DRAWING</tspan></text>
				<text freecad:editable="SI-4" x="80" y="269"><tspan></tspan></text>
				<text freecad:editable="SI-5" x="80" y="276"><tspan></tspan></text>
				<text freecad:editable="SI-6" x="80" y="283"><tspan></tspan></text>
				<text freecad:editable="FC-SI" x="150" y="248"><tspan>A2</tspan></text>
				<text freecad:editable="FC-SH" x="170" y="248"><tspan>X / Y</tspan></text>
				<text freecad:editable="FC-SC" x="190" y="248"><tspan>SCALE</tspan></text>
				<text freecad:editable="PN" x="170" y="260"><tspan>PN</tspan></text>
				<text freecad:editable="DN" x="170" y="272"><tspan>DN</tspan></text>
				<text freecad:editable="FC-DATE" x="160" y="284"><tspan>DD/MM/YYYY</tspan></text>
				<text freecad:editable="FC-REV" x="190" y="284"><tspan>REV A</tspan></text>
			</g>
			<!-- Set display:none to hide FreeCAD Logo -->
			<g
				style="display:inline"
				id="freecad-logo"
				transform="translate(128.5,276)"
				fill-rule="evenodd"
				stroke="#000"
				stroke-width="0.35"
				fill="none">
					<path d="m0.1524 0.15254v8.8549h1.9744v-3.4652h1.396v-1.3661h-1.396v-1.4745h3.4391v-2.5441l-5.4135-0.005z"/>
					<path d="m7.7927 3.4504-0.50715-0.176-0.48387-1.2366-0.76115 0.04-0.34718 1.2787-0.4859 0.23269-1.2119-0.53015-0.51188 0.56882 0.65892 1.1485-0.18006 0.50567-1.2366 0.48387 0.044064 0.76263 1.2787 0.34718 0.23269 0.4859-0.53421 1.2104 0.56882 0.51188 1.1485-0.65891 0.50973 0.18155 0.4798 1.2351 0.7667-0.04258 0.34311-1.2802 0.4859-0.23269 1.2145 0.5357 0.51188-0.56882-0.65891-1.1485 0.17748-0.51122 1.2351-0.4798-0.03851-0.76521-1.2802-0.34311-0.23269-0.4859 0.53163-1.216-0.56881-0.51184zm-0.5715 1.2244 0.23576 0.13679 0.20426 0.18519 0.16353 0.22101 0.11763 0.24572 0.06916 0.26489 0.01146 0.27146-0.03921 0.27139-0.08948 0.25764-0.14234 0.23834-0.17964 0.20167-0.22101 0.16353-0.24572 0.11763-0.26489 0.06916-0.27295 0.01553-0.2719-0.04-0.2576-0.089-0.2383-0.143-0.2002-0.183-0.165-0.217-0.1177-0.246-0.0676-0.269-0.0156-0.273 0.039206-0.2714 0.089484-0.25764 0.14085-0.23427 0.18113-0.20574 0.22101-0.16352 0.24572-0.11763 0.26895-0.06768 0.27147-0.01146 0.27139 0.03921 0.25764 0.08948z"/>
			</g>
		</g>
	</g>
<g id="Ortho_0_0"
   transform="rotate(0,109.87,110) translate(109.87,110) scale(1,1)"
  >
<g   fill="none"
   stroke="rgb(0, 0, 0)"
   stroke-linecap="butt"
   stroke-linejoin="miter"
   stroke-width="0.350000"
   transform="scale(1,-1)"
  >
<circle cx ="0" cy ="0" r ="80" /><path id= "2" d=" M 45 6 L 50 6 " />
<path id= "3" d=" M 50 6 L 50 -6 " />
<path id= "4" d=" M 50 -6 L 45 -6 " />
<path id= "5" d=" M 45 -6 L 45 6 " />
<path id= "6" d=" M -50 6 L -45 6 " />
<path id= "7" d=" M -45 6 L -45 -6 " />
<path id= "8" d=" M -45 -6 L -50 -6 " />
<path id= "9" d=" M -50 -6 L -50 6 " />
</g>
</g>



<g id="Support004"
   transform="rotate(0,475,175) translate(475,175) scale(1,1)"
  >
<g   fill="none"
   stroke="rgb(0, 0, 0)"
   stroke-linecap="butt"
   stroke-linejoin="miter"
   stroke-width="0.350000"
   transform="scale(1,-1)"
  >
<path id= "1" d=" M 74.9183 123.488 L 74.9183 -126.512 " />
<path id= "2" d=" M 74.9183 -126.512 L -75.0817 -126.512 " />
<path id= "3" d=" M -75.0817 -126.512 L -75.0817 123.488 " />
<path id= "4" d=" M -75.0817 123.488 L -60.0817 123.488 " />
<path id= "5" d=" M -60.0817 123.488 L -60.0817 93.4885 " />
<path id= "6" d=" M -60.0817 93.4885 L -55.0817 93.4885 " />
<path id= "7" d=" M -55.0817 93.4885 L -55.0817 123.488 " />
<path id= "8" d=" M -55.0817 123.488 L -2.58173 123.488 " />
<path id= "9" d=" M -2.58173 123.488 L -2.58173 93.4885 " />
<path id= "10" d=" M -2.58173 93.4885 L 2.41827 93.4885 " />
<path id= "11" d=" M 2.41827 93.4885 L 2.41827 123.488 " />
<path id= "12" d=" M 2.41827 123.488 L 54.9183 123.488 " />
<path id= "13" d=" M 54.9183 123.488 L 54.9183 93.4885 " />
<path id= "14" d=" M 54.9183 93.4885 L 59.9183 93.4885 " />
<path id= "15" d=" M 59.9183 93.4885 L 59.9183 123.488 " />
<path id= "16" d=" M 59.9183 123.488 L 74.9183 123.488 " />
<path id= "17" d=" M 54.9183 43.4885 L 54.9183 63.4885 " />
<path id= "18" d=" M 59.9183 43.4885 L 54.9183 43.4885 " />
<path id= "19" d=" M 59.9183 63.4885 L 59.9183 43.4885 " />
<path id= "20" d=" M 54.9183 63.4885 L 59.9183 63.4885 " />
<path id= "21" d=" M 54.9183 8.48846 L 59.9183 8.48846 " />
<path id= "22" d=" M 59.9183 8.48846 L 59.9183 28.4885 " />
<path id= "23" d=" M 59.9183 28.4885 L 54.9183 28.4885 " />
<path id= "24" d=" M 54.9183 28.4885 L 54.9183 8.48846 " />
<path id= "25" d=" M 54.9183 -96.5115 L 54.9183 -76.5115 " />
<path id= "26" d=" M 59.9183 -96.5115 L 54.9183 -96.5115 " />
<path id= "27" d=" M 59.9183 -76.5115 L 59.9183 -96.5115 " />
<path id= "28" d=" M 54.9183 -76.5115 L 59.9183 -76.5115 " />
<path id= "29" d=" M 54.9183 -61.5115 L 54.9183 -41.5115 " />
<path id= "30" d=" M 59.9183 -61.5115 L 54.9183 -61.5115 " />
<path id= "31" d=" M 59.9183 -41.5115 L 59.9183 -61.5115 " />
<path id= "32" d=" M 54.9183 -41.5115 L 59.9183 -41.5115 " />
<path id= "33" d=" M 54.9183 -26.5115 L 54.9183 -6.51154 " />
<path id= "34" d=" M 59.9183 -26.5115 L 54.9183 -26.5115 " />
<path id= "35" d=" M 59.9183 -6.51154 L 59.9183 -26.5115 " />
<path id= "36" d=" M 54.9183 -6.51154 L 59.9183 -6.51154 " />
<path id= "37" d=" M -40.0817 -96.5115 L -40.0817 -76.5115 " />
<path id= "38" d=" M -35.0817 -96.5115 L -40.0817 -96.5115 " />
<path id= "39" d=" M -35.0817 -76.5115 L -35.0817 -96.5115 " />
<path id= "40" d=" M -40.0817 -76.5115 L -35.0817 -76.5115 " />
<path id= "41" d=" M -40.0817 -61.5115 L -40.0817 -41.5115 " />
<path id= "42" d=" M -35.0817 -61.5115 L -40.0817 -61.5115 " />
<path id= "43" d=" M -35.0817 -41.5115 L -35.0817 -61.5115 " />
<path id= "44" d=" M -40.0817 -41.5115 L -35.0817 -41.5115 " />
<path id= "45" d=" M -40.0817 43.4885 L -40.0817 63.4885 " />
<path id= "46" d=" M -35.0817 43.4885 L -40.0817 43.4885 " />
<path id= "47" d=" M -35.0817 63.4885 L -35.0817 43.4885 " />
<path id= "48" d=" M -40.0817 63.4885 L -35.0817 63.4885 " />
<path id= "49" d=" M -40.0817 8.48846 L -40.0817 28.4885 " />
<path id= "50" d=" M -35.0817 8.48846 L -40.0817 8.48846 " />
<path id= "51" d=" M -35.0817 28.4885 L -35.0817 8.48846 " />
<path id= "52" d=" M -40.0817 28.4885 L -35.0817 28.4885 " />
<path id= "53" d=" M -40.0817 -26.5115 L -40.0817 -6.51154 " />
<path id= "54" d=" M -35.0817 -26.5115 L -40.0817 -26.5115 " />
<path id= "55" d=" M -35.0817 -6.51154 L -35.0817 -26.5115 " />
<path id= "56" d=" M -40.0817 -6.51154 L -35.0817 -6.51154 " />
</g>
</g>



<g id="Ortho_0_002"
   transform="rotate(90,50,300) translate(50,300) scale(1,1)"
  >
<g   fill="none"
   stroke="rgb(0, 0, 0)"
   stroke-linecap="butt"
   stroke-linejoin="miter"
   stroke-width="0.350000"
   transform="scale(1,-1)"
  >
<path id= "1" d=" M -53 6 L 53 6 " />
<path id= "2" d=" M 53 6 L 53 2 " />
<path id= "3" d=" M 53 2 L 42 2 " />
<path id= "4" d=" M 42 2 L 42 -2 " />
<path id= "5" d=" M 42 -2 L 53 -2 " />
<path id= "6" d=" M 53 -2 L 53 -6 " />
<path id= "7" d=" M 53 -6 L -53 -6 " />
<path id= "8" d=" M -53 -2 L -53 -6 " />
<path id= "9" d=" M -42 -2 L -53 -2 " />
<path id= "10" d=" M -42 2 L -42 -2 " />
<path id= "11" d=" M -53 2 L -42 2 " />
<path id= "12" d=" M -53 6 L -53 2 " />
<path id= "13" d=" M 37 -2.5 L 37 2.5 " />
<path id= "14" d=" M 39 -2.5 L 37 -2.5 " />
<path id= "15" d=" M 39 2.5 L 39 -2.5 " />
<path id= "16" d=" M 37 2.5 L 39 2.5 " />
<path id= "17" d=" M -39 -2.5 L -39 2.5 " />
<path id= "18" d=" M -37 -2.5 L -39 -2.5 " />
<path id= "19" d=" M -37 2.5 L -37 -2.5 " />
<path id= "20" d=" M -39 2.5 L -37 2.5 " />
</g>
</g>



<g id="Ortho_0_003"
   transform="rotate(0,275,212.5) translate(275,212.5) scale(1,1)"
  >
<g   fill="none"
   stroke="rgb(0, 0, 0)"
   stroke-linecap="butt"
   stroke-linejoin="miter"
   stroke-width="0.350000"
   transform="scale(1,-1)"
  >
<path d="M-20,150 C-20,60 -38.5,-100 -90,-150 " /><path id= "2" d=" M -20 150 L -6 150 " />
<path id= "3" d=" M -90 -150 L -80 -150 " />
<path id= "4" d=" M -80 -150 L -80 -170 " />
<path id= "5" d=" M -80 -170 L -60 -170 " />
<path id= "6" d=" M -60 -170 L -60 -150 " />
<path id= "7" d=" M -60 -150 L -45 -150 " />
<path id= "8" d=" M -45 -150 L -45 -170 " />
<path id= "9" d=" M -45 -170 L -25 -170 " />
<path id= "10" d=" M -25 -170 L -25 -150 " />
<path id= "11" d=" M -25 -150 L -10 -150 " />
<path id= "12" d=" M -10 -150 L -10 -170 " />
<path id= "13" d=" M -10 -170 L 10 -170 " />
<path id= "14" d=" M 10 -170 L 10 -150 " />
<path id= "15" d=" M 10 -150 L 25 -150 " />
<path id= "16" d=" M 25 -150 L 25 -170 " />
<path id= "17" d=" M 25 -170 L 45 -170 " />
<path id= "18" d=" M 45 -170 L 45 -150 " />
<path id= "19" d=" M 45 -150 L 60 -150 " />
<path id= "20" d=" M 60 -150 L 60 -170 " />
<path id= "21" d=" M 60 -170 L 80 -170 " />
<path id= "22" d=" M 80 -170 L 80 -150 " />
<path id= "23" d=" M 80 -150 L 90 -150 " />
<path d="M90,-150 C38.5,-100 20,60 20,150 " /><path id= "25" d=" M 6 150 L 20 150 " />
<path id= "26" d=" M 6 175 L 6 150 " />
<path id= "27" d=" M -6 175 L 6 175 " />
<path id= "28" d=" M -6 150 L -6 175 " />
<path id= "29" d=" M 22.5 -84 L 27.5 -84 " />
<path id= "30" d=" M 22.5 -86 L 22.5 -84 " />
<path id= "31" d=" M 27.5 -84 L 27.5 -86 " />
<path id= "32" d=" M 27.5 -86 L 22.5 -86 " />
<path id= "33" d=" M 14 72.5 L 14 77.5 " />
<path id= "34" d=" M 16 72.5 L 14 72.5 " />
<path id= "35" d=" M 14 77.5 L 16 77.5 " />
<path id= "36" d=" M 16 77.5 L 16 72.5 " />
<path id= "37" d=" M 31 -97 L 31 -100 " />
<path id= "38" d=" M 27 -97 L 31 -97 " />
<path id= "39" d=" M 31 -100 L 27 -100 " />
<path id= "40" d=" M 27 -100 L 27 -97 " />
<path id= "41" d=" M 23 -100 L 19 -100 " />
<path id= "42" d=" M 23 -97 L 23 -100 " />
<path id= "43" d=" M 19 -100 L 19 -97 " />
<path id= "44" d=" M 19 -97 L 23 -97 " />
<path id= "45" d=" M 16 122.5 L 14 122.5 " />
<path id= "46" d=" M 16 127.5 L 16 122.5 " />
<path id= "47" d=" M 14 122.5 L 14 127.5 " />
<path id= "48" d=" M 14 127.5 L 16 127.5 " />
<path id= "49" d=" M 22.5 -114 L 27.5 -114 " />
<path id= "50" d=" M 22.5 -116 L 22.5 -114 " />
<path id= "51" d=" M 27.5 -114 L 27.5 -116 " />
<path id= "52" d=" M 27.5 -116 L 22.5 -116 " />
<path id= "53" d=" M -16 122.5 L -16 127.5 " />
<path id= "54" d=" M -14 122.5 L -16 122.5 " />
<path id= "55" d=" M -16 127.5 L -14 127.5 " />
<path id= "56" d=" M -14 127.5 L -14 122.5 " />
<path id= "57" d=" M 3 127 L -2.78089e-12 127 " />
<path id= "58" d=" M 3 131 L 3 127 " />
<path id= "59" d=" M -2.781e-12 127 L -3.193e-12 131 " />
<path id= "60" d=" M -3.193e-12 131 L 3 131 " />
<path id= "61" d=" M 3 123 L 3 119 " />
<path id= "62" d=" M -2.369e-12 123 L 3 123 " />
<path id= "63" d=" M 3 119 L -1.9571e-12 119 " />
<path id= "64" d=" M -1.957e-12 119 L -2.369e-12 123 " />
<path id= "65" d=" M -14 77.5 L -14 72.5 " />
<path id= "66" d=" M -16 77.5 L -14 77.5 " />
<path id= "67" d=" M -14 72.5 L -16 72.5 " />
<path id= "68" d=" M -16 72.5 L -16 77.5 " />
<path id= "69" d=" M 3.193e-12 69 L -3 69 " />
<path id= "70" d=" M 2.781e-12 73 L 3.193e-12 69 " />
<path id= "71" d=" M -3 69 L -3 73 " />
<path id= "72" d=" M -3 73 L 2.78089e-12 73 " />
<path id= "73" d=" M 2.369e-12 77 L -3 77 " />
<path id= "74" d=" M 1.957e-12 81 L 2.369e-12 77 " />
<path id= "75" d=" M -3 77 L -3 81 " />
<path id= "76" d=" M -3 81 L 1.9571e-12 81 " />
<circle cx ="0" cy ="100" r ="7.95" /><circle cx ="0" cy ="-100" r ="7.95" /><path id= "79" d=" M -22.5 -114 L -22.5 -116 " />
<path id= "80" d=" M -27.5 -114 L -22.5 -114 " />
<path id= "81" d=" M -22.5 -116 L -27.5 -116 " />
<path id= "82" d=" M -27.5 -116 L -27.5 -114 " />
<path id= "83" d=" M -27 -100 L -27 -103 " />
<path id= "84" d=" M -31 -100 L -27 -100 " />
<path id= "85" d=" M -27 -103 L -31 -103 " />
<path id= "86" d=" M -31 -103 L -31 -100 " />
<path id= "87" d=" M -23 -100 L -19 -100 " />
<path id= "88" d=" M -23 -103 L -23 -100 " />
<path id= "89" d=" M -19 -100 L -19 -103 " />
<path id= "90" d=" M -19 -103 L -23 -103 " />
<path id= "91" d=" M -27.5 -84 L -22.5 -84 " />
<path id= "92" d=" M -27.5 -86 L -27.5 -84 " />
<path id= "93" d=" M -22.5 -84 L -22.5 -86 " />
<path id= "94" d=" M -22.5 -86 L -27.5 -86 " />
</g>
</g>



<g id="Ortho_0_0"
   transform="rotate(90,110,300) translate(110,300) scale(1,1)"
  >
<g   fill="none"
   stroke="rgb(0, 0, 0)"
   stroke-linecap="butt"
   stroke-linejoin="miter"
   stroke-width="0.350000"
   transform="scale(1,-1)"
  >
<path id= "1" d=" M -35 20 L 35 20 " />
<path id= "2" d=" M 35 20 L 35 -20 " />
<path id= "3" d=" M 35 -20 L -35 -20 " />
<path id= "4" d=" M -35 -20 L -35 20 " />
<path id= "5" d=" M -27.5 -16 L -27.5 -14 " />
<path id= "6" d=" M -22.5 -16 L -27.5 -16 " />
<path id= "7" d=" M -22.5 -14 L -22.5 -16 " />
<path id= "8" d=" M -27.5 -14 L -22.5 -14 " />
<path id= "9" d=" M 22.5 -16 L 22.5 -14 " />
<path id= "10" d=" M 27.5 -16 L 22.5 -16 " />
<path id= "11" d=" M 27.5 -14 L 27.5 -16 " />
<path id= "12" d=" M 22.5 -14 L 27.5 -14 " />
<path id= "13" d=" M 22.5 14 L 22.5 16 " />
<path id= "14" d=" M 27.5 14 L 22.5 14 " />
<path id= "15" d=" M 27.5 16 L 27.5 14 " />
<path id= "16" d=" M 22.5 16 L 27.5 16 " />
<path id= "17" d=" M -27.5 14 L -27.5 16 " />
<path id= "18" d=" M -22.5 14 L -27.5 14 " />
<path id= "19" d=" M -22.5 16 L -22.5 14 " />
<path id= "20" d=" M -27.5 16 L -22.5 16 " />
</g>
</g>



<g id="Ortho_0_001"
   transform="rotate(90,175,250) translate(175,250) scale(1,1)"
  >
<g   fill="none"
   stroke="rgb(0, 0, 0)"
   stroke-linecap="butt"
   stroke-linejoin="miter"
   stroke-width="0.350000"
   transform="scale(1,-1)"
  >
<path id= "1" d=" M -35 20 L 35 20 " />
<path id= "2" d=" M 35 20 L 35 -20 " />
<path id= "3" d=" M 35 -20 L -35 -20 " />
<path id= "4" d=" M -35 -20 L -35 20 " />
<circle cx ="0" cy ="0" r ="4.2" /><path id= "6" d=" M -27.5 -16 L -27.5 -14 " />
<path id= "7" d=" M -22.5 -16 L -27.5 -16 " />
<path id= "8" d=" M -22.5 -14 L -22.5 -16 " />
<path id= "9" d=" M -27.5 -14 L -22.5 -14 " />
<path id= "10" d=" M 22.5 -16 L 22.5 -14 " />
<path id= "11" d=" M 27.5 -16 L 22.5 -16 " />
<path id= "12" d=" M 27.5 -14 L 27.5 -16 " />
<path id= "13" d=" M 22.5 -14 L 27.5 -14 " />
<path id= "14" d=" M 22.5 14 L 22.5 16 " />
<path id= "15" d=" M 27.5 14 L 22.5 14 " />
<path id= "16" d=" M 27.5 16 L 27.5 14 " />
<path id= "17" d=" M 22.5 16 L 27.5 16 " />
<path id= "18" d=" M -27.5 14 L -27.5 16 " />
<path id= "19" d=" M -22.5 14 L -27.5 14 " />
<path id= "20" d=" M -22.5 16 L -22.5 14 " />
<path id= "21" d=" M -27.5 16 L -22.5 16 " />
<path id= "22" d=" M 27 0 L 27 3 " />
<path id= "23" d=" M 31 0 L 27 0 " />
<path id= "24" d=" M 31 3 L 31 0 " />
<path id= "25" d=" M 27 3 L 31 3 " />
<path id= "26" d=" M 19 0 L 19 3 " />
<path id= "27" d=" M 23 0 L 19 0 " />
<path id= "28" d=" M 23 3 L 23 0 " />
<path id= "29" d=" M 19 3 L 23 3 " />
<path id= "30" d=" M -23 -3 L -23 0 " />
<path id= "31" d=" M -19 -3 L -23 -3 " />
<path id= "32" d=" M -19 0 L -19 -3 " />
<path id= "33" d=" M -23 0 L -19 0 " />
<path id= "34" d=" M -31 -3 L -31 0 " />
<path id= "35" d=" M -27 -3 L -31 -3 " />
<path id= "36" d=" M -27 0 L -27 -3 " />
<path id= "37" d=" M -31 0 L -27 0 " />
</g>
</g>



</svg>

