<?xml version="1.0" encoding="iso-8859-1"?>
<!-- Generator: Adobe Illustrator 19.0.0, SVG Export Plug-In . SVG Version: 6.00 Build 0)  -->
<svg version="1.1" id="Layer_1" xmlns="http://www.w3.org/2000/svg" xmlns:xlink="http://www.w3.org/1999/xlink" x="0px" y="0px"
	 viewBox="0 0 512 512" style="enable-background:new 0 0 512 512;" xml:space="preserve">
<g>
	<g>
		<path d="M412.181,116.475c-32.633-21.303-61.672-42.397-88.772-64.488L262.445,2.293c-3.752-3.058-9.136-3.058-12.889,0
			l-60.965,49.695c-27.1,22.091-56.138,43.184-88.772,64.488c-33.282,21.727-50.157,43.523-50.157,64.782
			c0,25.383,9.6,50.276,27.761,71.989c15.872,18.978,38.056,35.274,64.447,47.401c1.268,42.544,42.341,75.343,44.116,76.739
			c3.701,2.91,8.913,2.911,12.613-0.001c0.541-0.425,9.187-7.295,18.677-18.55l28.719,144.948c0.948,4.776,5.137,8.217,10.005,8.217
			c4.868,0,9.058-3.442,10.004-8.217l28.719-144.948c9.489,11.256,18.136,18.125,18.677,18.55c3.701,2.912,8.913,2.912,12.613,0.001
			c1.774-1.396,42.848-34.195,44.116-76.739c26.39-12.127,48.575-28.424,64.447-47.401c18.162-21.713,27.761-46.606,27.761-71.989
			C462.338,159.998,445.463,138.203,412.181,116.475z M355.796,284.678c-4.042,1.712-6.536,5.818-6.191,10.193
			c0.106,1.339,0.157,2.571,0.157,3.768c0,24.783-19.658,47.029-30.066,57.07c-5.906-5.688-14.784-15.319-21.411-27.259
			c-2.078-3.742-6.271-5.789-10.498-5.126c-4.229,0.663-7.593,3.896-8.425,8.094l-23.361,117.907l-23.362-117.907
			c-0.832-4.199-4.196-7.432-8.424-8.094c-0.529-0.084-1.058-0.123-1.583-0.123c-3.661,0-7.098,1.977-8.915,5.25
			c-6.588,11.869-15.498,21.535-21.421,27.249c-10.416-10.051-30.056-32.289-30.056-57.059c0-1.196,0.051-2.428,0.157-3.768
			c0.345-4.375-2.149-8.481-6.191-10.193c-53.94-22.839-86.143-61.5-86.143-103.42c0-13.539,14.529-30.479,40.909-47.701
			c33.24-21.701,62.846-43.21,90.51-65.758l54.521-44.441l54.52,44.441c27.663,22.549,57.27,44.058,90.51,65.758
			c26.38,17.221,40.909,34.162,40.909,47.701C441.939,223.176,409.736,261.837,355.796,284.678z"/>
	</g>
</g>
<g>
	<g>
		<path d="M256.001,224.732c-5.633,0-10.199,4.567-10.199,10.199v84.275c0,5.632,4.566,10.199,10.199,10.199
			c5.633,0,10.199-4.566,10.199-10.199v-84.275C266.2,229.299,261.634,224.732,256.001,224.732z"/>
	</g>
</g>
<g>
	<g>
		<path d="M256.001,176.447c-5.633,0-10.199,4.567-10.199,10.199v10.199c0,5.632,4.566,10.199,10.199,10.199
			c5.633,0,10.199-4.567,10.199-10.199v-10.199C266.2,181.014,261.634,176.447,256.001,176.447z"/>
	</g>
</g>
<g>
	<g>
		<path d="M223.896,65.212c-7.007,0-12.707,5.701-12.707,12.708c0,7.007,5.7,12.707,12.707,12.707s12.707-5.7,12.707-12.707
			C236.603,70.914,230.903,65.212,223.896,65.212z"/>
	</g>
</g>
<g>
	<g>
		<path d="M288.105,65.212c-7.007,0-12.707,5.701-12.707,12.708c0,7.007,5.7,12.707,12.707,12.707c7.007,0,12.707-5.7,12.707-12.707
			C300.812,70.914,295.112,65.212,288.105,65.212z"/>
	</g>
</g>
<g>
</g>
<g>
</g>
<g>
</g>
<g>
</g>
<g>
</g>
<g>
</g>
<g>
</g>
<g>
</g>
<g>
</g>
<g>
</g>
<g>
</g>
<g>
</g>
<g>
</g>
<g>
</g>
<g>
</g>
</svg>
