<?xml version="1.0" encoding="UTF-8"?>
<svg version="1.1" baseProfile="tiny" xmlns="http://www.w3.org/2000/svg" width="10000" height="10000">
<rect shape-rendering="optimizeSpeed"  x="0" y="0" width="10000" height="10000" fill="white" />
<rect shape-rendering="optimizeSpeed"  x="331" y="331" width="322" height="322" fill="black" />
<rect shape-rendering="optimizeSpeed"  x="653" y="331" width="322" height="322" fill="black" />
<rect shape-rendering="optimizeSpeed"  x="975" y="331" width="322" height="322" fill="black" />
<rect shape-rendering="optimizeSpeed"  x="1297" y="331" width="322" height="322" fill="black" />
<rect shape-rendering="optimizeSpeed"  x="1619" y="331" width="322" height="322" fill="black" />
<rect shape-rendering="optimizeSpeed"  x="1941" y="331" width="322" height="322" fill="black" />
<rect shape-rendering="optimizeSpeed"  x="2263" y="331" width="322" height="322" fill="black" />
<rect shape-rendering="optimizeSpeed"  x="3551" y="331" width="322" height="322" fill="black" />
<rect shape-rendering="optimizeSpeed"  x="4517" y="331" width="322" height="322" fill="black" />
<rect shape-rendering="optimizeSpeed"  x="4839" y="331" width="322" height="322" fill="black" />
<rect shape-rendering="optimizeSpeed"  x="5805" y="331" width="322" height="322" fill="black" />
<rect shape-rendering="optimizeSpeed"  x="6127" y="331" width="322" height="322" fill="black" />
<rect shape-rendering="optimizeSpeed"  x="7415" y="331" width="322" height="322" fill="black" />
<rect shape-rendering="optimizeSpeed"  x="7737" y="331" width="322" height="322" fill="black" />
<rect shape-rendering="optimizeSpeed"  x="8059" y="331" width="322" height="322" fill="black" />
<rect shape-rendering="optimizeSpeed"  x="8381" y="331" width="322" height="322" fill="black" />
<rect shape-rendering="optimizeSpeed"  x="8703" y="331" width="322" height="322" fill="black" />
<rect shape-rendering="optimizeSpeed"  x="9025" y="331" width="322" height="322" fill="black" />
<rect shape-rendering="optimizeSpeed"  x="9347" y="331" width="322" height="322" fill="black" />
<rect shape-rendering="optimizeSpeed"  x="331" y="653" width="322" height="322" fill="black" />
<rect shape-rendering="optimizeSpeed"  x="2263" y="653" width="322" height="322" fill="black" />
<rect shape-rendering="optimizeSpeed"  x="3229" y="653" width="322" height="322" fill="black" />
<rect shape-rendering="optimizeSpeed"  x="3551" y="653" width="322" height="322" fill="black" />
<rect shape-rendering="optimizeSpeed"  x="4195" y="653" width="322" height="322" fill="black" />
<rect shape-rendering="optimizeSpeed"  x="4517" y="653" width="322" height="322" fill="black" />
<rect shape-rendering="optimizeSpeed"  x="4839" y="653" width="322" height="322" fill="black" />
<rect shape-rendering="optimizeSpeed"  x="5483" y="653" width="322" height="322" fill="black" />
<rect shape-rendering="optimizeSpeed"  x="6771" y="653" width="322" height="322" fill="black" />
<rect shape-rendering="optimizeSpeed"  x="7415" y="653" width="322" height="322" fill="black" />
<rect shape-rendering="optimizeSpeed"  x="9347" y="653" width="322" height="322" fill="black" />
<rect shape-rendering="optimizeSpeed"  x="331" y="975" width="322" height="322" fill="black" />
<rect shape-rendering="optimizeSpeed"  x="975" y="975" width="322" height="322" fill="black" />
<rect shape-rendering="optimizeSpeed"  x="1297" y="975" width="322" height="322" fill="black" />
<rect shape-rendering="optimizeSpeed"  x="1619" y="975" width="322" height="322" fill="black" />
<rect shape-rendering="optimizeSpeed"  x="2263" y="975" width="322" height="322" fill="black" />
<rect shape-rendering="optimizeSpeed"  x="3229" y="975" width="322" height="322" fill="black" />
<rect shape-rendering="optimizeSpeed"  x="3551" y="975" width="322" height="322" fill="black" />
<rect shape-rendering="optimizeSpeed"  x="4839" y="975" width="322" height="322" fill="black" />
<rect shape-rendering="optimizeSpeed"  x="5483" y="975" width="322" height="322" fill="black" />
<rect shape-rendering="optimizeSpeed"  x="6449" y="975" width="322" height="322" fill="black" />
<rect shape-rendering="optimizeSpeed"  x="7415" y="975" width="322" height="322" fill="black" />
<rect shape-rendering="optimizeSpeed"  x="8059" y="975" width="322" height="322" fill="black" />
<rect shape-rendering="optimizeSpeed"  x="8381" y="975" width="322" height="322" fill="black" />
<rect shape-rendering="optimizeSpeed"  x="8703" y="975" width="322" height="322" fill="black" />
<rect shape-rendering="optimizeSpeed"  x="9347" y="975" width="322" height="322" fill="black" />
<rect shape-rendering="optimizeSpeed"  x="331" y="1297" width="322" height="322" fill="black" />
<rect shape-rendering="optimizeSpeed"  x="975" y="1297" width="322" height="322" fill="black" />
<rect shape-rendering="optimizeSpeed"  x="1297" y="1297" width="322" height="322" fill="black" />
<rect shape-rendering="optimizeSpeed"  x="1619" y="1297" width="322" height="322" fill="black" />
<rect shape-rendering="optimizeSpeed"  x="2263" y="1297" width="322" height="322" fill="black" />
<rect shape-rendering="optimizeSpeed"  x="2907" y="1297" width="322" height="322" fill="black" />
<rect shape-rendering="optimizeSpeed"  x="3229" y="1297" width="322" height="322" fill="black" />
<rect shape-rendering="optimizeSpeed"  x="4517" y="1297" width="322" height="322" fill="black" />
<rect shape-rendering="optimizeSpeed"  x="5161" y="1297" width="322" height="322" fill="black" />
<rect shape-rendering="optimizeSpeed"  x="6449" y="1297" width="322" height="322" fill="black" />
<rect shape-rendering="optimizeSpeed"  x="6771" y="1297" width="322" height="322" fill="black" />
<rect shape-rendering="optimizeSpeed"  x="7415" y="1297" width="322" height="322" fill="black" />
<rect shape-rendering="optimizeSpeed"  x="8059" y="1297" width="322" height="322" fill="black" />
<rect shape-rendering="optimizeSpeed"  x="8381" y="1297" width="322" height="322" fill="black" />
<rect shape-rendering="optimizeSpeed"  x="8703" y="1297" width="322" height="322" fill="black" />
<rect shape-rendering="optimizeSpeed"  x="9347" y="1297" width="322" height="322" fill="black" />
<rect shape-rendering="optimizeSpeed"  x="331" y="1619" width="322" height="322" fill="black" />
<rect shape-rendering="optimizeSpeed"  x="975" y="1619" width="322" height="322" fill="black" />
<rect shape-rendering="optimizeSpeed"  x="1297" y="1619" width="322" height="322" fill="black" />
<rect shape-rendering="optimizeSpeed"  x="1619" y="1619" width="322" height="322" fill="black" />
<rect shape-rendering="optimizeSpeed"  x="2263" y="1619" width="322" height="322" fill="black" />
<rect shape-rendering="optimizeSpeed"  x="2907" y="1619" width="322" height="322" fill="black" />
<rect shape-rendering="optimizeSpeed"  x="3229" y="1619" width="322" height="322" fill="black" />
<rect shape-rendering="optimizeSpeed"  x="3551" y="1619" width="322" height="322" fill="black" />
<rect shape-rendering="optimizeSpeed"  x="3873" y="1619" width="322" height="322" fill="black" />
<rect shape-rendering="optimizeSpeed"  x="4839" y="1619" width="322" height="322" fill="black" />
<rect shape-rendering="optimizeSpeed"  x="5161" y="1619" width="322" height="322" fill="black" />
<rect shape-rendering="optimizeSpeed"  x="5483" y="1619" width="322" height="322" fill="black" />
<rect shape-rendering="optimizeSpeed"  x="5805" y="1619" width="322" height="322" fill="black" />
<rect shape-rendering="optimizeSpeed"  x="6127" y="1619" width="322" height="322" fill="black" />
<rect shape-rendering="optimizeSpeed"  x="6449" y="1619" width="322" height="322" fill="black" />
<rect shape-rendering="optimizeSpeed"  x="6771" y="1619" width="322" height="322" fill="black" />
<rect shape-rendering="optimizeSpeed"  x="7415" y="1619" width="322" height="322" fill="black" />
<rect shape-rendering="optimizeSpeed"  x="8059" y="1619" width="322" height="322" fill="black" />
<rect shape-rendering="optimizeSpeed"  x="8381" y="1619" width="322" height="322" fill="black" />
<rect shape-rendering="optimizeSpeed"  x="8703" y="1619" width="322" height="322" fill="black" />
<rect shape-rendering="optimizeSpeed"  x="9347" y="1619" width="322" height="322" fill="black" />
<rect shape-rendering="optimizeSpeed"  x="331" y="1941" width="322" height="322" fill="black" />
<rect shape-rendering="optimizeSpeed"  x="2263" y="1941" width="322" height="322" fill="black" />
<rect shape-rendering="optimizeSpeed"  x="3229" y="1941" width="322" height="322" fill="black" />
<rect shape-rendering="optimizeSpeed"  x="4517" y="1941" width="322" height="322" fill="black" />
<rect shape-rendering="optimizeSpeed"  x="5483" y="1941" width="322" height="322" fill="black" />
<rect shape-rendering="optimizeSpeed"  x="6771" y="1941" width="322" height="322" fill="black" />
<rect shape-rendering="optimizeSpeed"  x="7415" y="1941" width="322" height="322" fill="black" />
<rect shape-rendering="optimizeSpeed"  x="9347" y="1941" width="322" height="322" fill="black" />
<rect shape-rendering="optimizeSpeed"  x="331" y="2263" width="322" height="322" fill="black" />
<rect shape-rendering="optimizeSpeed"  x="653" y="2263" width="322" height="322" fill="black" />
<rect shape-rendering="optimizeSpeed"  x="975" y="2263" width="322" height="322" fill="black" />
<rect shape-rendering="optimizeSpeed"  x="1297" y="2263" width="322" height="322" fill="black" />
<rect shape-rendering="optimizeSpeed"  x="1619" y="2263" width="322" height="322" fill="black" />
<rect shape-rendering="optimizeSpeed"  x="1941" y="2263" width="322" height="322" fill="black" />
<rect shape-rendering="optimizeSpeed"  x="2263" y="2263" width="322" height="322" fill="black" />
<rect shape-rendering="optimizeSpeed"  x="2907" y="2263" width="322" height="322" fill="black" />
<rect shape-rendering="optimizeSpeed"  x="3551" y="2263" width="322" height="322" fill="black" />
<rect shape-rendering="optimizeSpeed"  x="4195" y="2263" width="322" height="322" fill="black" />
<rect shape-rendering="optimizeSpeed"  x="4839" y="2263" width="322" height="322" fill="black" />
<rect shape-rendering="optimizeSpeed"  x="5483" y="2263" width="322" height="322" fill="black" />
<rect shape-rendering="optimizeSpeed"  x="6127" y="2263" width="322" height="322" fill="black" />
<rect shape-rendering="optimizeSpeed"  x="6771" y="2263" width="322" height="322" fill="black" />
<rect shape-rendering="optimizeSpeed"  x="7415" y="2263" width="322" height="322" fill="black" />
<rect shape-rendering="optimizeSpeed"  x="7737" y="2263" width="322" height="322" fill="black" />
<rect shape-rendering="optimizeSpeed"  x="8059" y="2263" width="322" height="322" fill="black" />
<rect shape-rendering="optimizeSpeed"  x="8381" y="2263" width="322" height="322" fill="black" />
<rect shape-rendering="optimizeSpeed"  x="8703" y="2263" width="322" height="322" fill="black" />
<rect shape-rendering="optimizeSpeed"  x="9025" y="2263" width="322" height="322" fill="black" />
<rect shape-rendering="optimizeSpeed"  x="9347" y="2263" width="322" height="322" fill="black" />
<rect shape-rendering="optimizeSpeed"  x="4195" y="2585" width="322" height="322" fill="black" />
<rect shape-rendering="optimizeSpeed"  x="5483" y="2585" width="322" height="322" fill="black" />
<rect shape-rendering="optimizeSpeed"  x="331" y="2907" width="322" height="322" fill="black" />
<rect shape-rendering="optimizeSpeed"  x="653" y="2907" width="322" height="322" fill="black" />
<rect shape-rendering="optimizeSpeed"  x="1941" y="2907" width="322" height="322" fill="black" />
<rect shape-rendering="optimizeSpeed"  x="2263" y="2907" width="322" height="322" fill="black" />
<rect shape-rendering="optimizeSpeed"  x="2585" y="2907" width="322" height="322" fill="black" />
<rect shape-rendering="optimizeSpeed"  x="3229" y="2907" width="322" height="322" fill="black" />
<rect shape-rendering="optimizeSpeed"  x="4195" y="2907" width="322" height="322" fill="black" />
<rect shape-rendering="optimizeSpeed"  x="4517" y="2907" width="322" height="322" fill="black" />
<rect shape-rendering="optimizeSpeed"  x="4839" y="2907" width="322" height="322" fill="black" />
<rect shape-rendering="optimizeSpeed"  x="5161" y="2907" width="322" height="322" fill="black" />
<rect shape-rendering="optimizeSpeed"  x="5805" y="2907" width="322" height="322" fill="black" />
<rect shape-rendering="optimizeSpeed"  x="6449" y="2907" width="322" height="322" fill="black" />
<rect shape-rendering="optimizeSpeed"  x="8059" y="2907" width="322" height="322" fill="black" />
<rect shape-rendering="optimizeSpeed"  x="8381" y="2907" width="322" height="322" fill="black" />
<rect shape-rendering="optimizeSpeed"  x="653" y="3229" width="322" height="322" fill="black" />
<rect shape-rendering="optimizeSpeed"  x="975" y="3229" width="322" height="322" fill="black" />
<rect shape-rendering="optimizeSpeed"  x="1619" y="3229" width="322" height="322" fill="black" />
<rect shape-rendering="optimizeSpeed"  x="1941" y="3229" width="322" height="322" fill="black" />
<rect shape-rendering="optimizeSpeed"  x="2907" y="3229" width="322" height="322" fill="black" />
<rect shape-rendering="optimizeSpeed"  x="3229" y="3229" width="322" height="322" fill="black" />
<rect shape-rendering="optimizeSpeed"  x="3551" y="3229" width="322" height="322" fill="black" />
<rect shape-rendering="optimizeSpeed"  x="3873" y="3229" width="322" height="322" fill="black" />
<rect shape-rendering="optimizeSpeed"  x="4839" y="3229" width="322" height="322" fill="black" />
<rect shape-rendering="optimizeSpeed"  x="5161" y="3229" width="322" height="322" fill="black" />
<rect shape-rendering="optimizeSpeed"  x="6127" y="3229" width="322" height="322" fill="black" />
<rect shape-rendering="optimizeSpeed"  x="6449" y="3229" width="322" height="322" fill="black" />
<rect shape-rendering="optimizeSpeed"  x="7093" y="3229" width="322" height="322" fill="black" />
<rect shape-rendering="optimizeSpeed"  x="7737" y="3229" width="322" height="322" fill="black" />
<rect shape-rendering="optimizeSpeed"  x="8059" y="3229" width="322" height="322" fill="black" />
<rect shape-rendering="optimizeSpeed"  x="8703" y="3229" width="322" height="322" fill="black" />
<rect shape-rendering="optimizeSpeed"  x="9025" y="3229" width="322" height="322" fill="black" />
<rect shape-rendering="optimizeSpeed"  x="331" y="3551" width="322" height="322" fill="black" />
<rect shape-rendering="optimizeSpeed"  x="653" y="3551" width="322" height="322" fill="black" />
<rect shape-rendering="optimizeSpeed"  x="975" y="3551" width="322" height="322" fill="black" />
<rect shape-rendering="optimizeSpeed"  x="1297" y="3551" width="322" height="322" fill="black" />
<rect shape-rendering="optimizeSpeed"  x="1619" y="3551" width="322" height="322" fill="black" />
<rect shape-rendering="optimizeSpeed"  x="1941" y="3551" width="322" height="322" fill="black" />
<rect shape-rendering="optimizeSpeed"  x="2263" y="3551" width="322" height="322" fill="black" />
<rect shape-rendering="optimizeSpeed"  x="3551" y="3551" width="322" height="322" fill="black" />
<rect shape-rendering="optimizeSpeed"  x="4195" y="3551" width="322" height="322" fill="black" />
<rect shape-rendering="optimizeSpeed"  x="5161" y="3551" width="322" height="322" fill="black" />
<rect shape-rendering="optimizeSpeed"  x="6127" y="3551" width="322" height="322" fill="black" />
<rect shape-rendering="optimizeSpeed"  x="6771" y="3551" width="322" height="322" fill="black" />
<rect shape-rendering="optimizeSpeed"  x="8059" y="3551" width="322" height="322" fill="black" />
<rect shape-rendering="optimizeSpeed"  x="653" y="3873" width="322" height="322" fill="black" />
<rect shape-rendering="optimizeSpeed"  x="975" y="3873" width="322" height="322" fill="black" />
<rect shape-rendering="optimizeSpeed"  x="1297" y="3873" width="322" height="322" fill="black" />
<rect shape-rendering="optimizeSpeed"  x="3229" y="3873" width="322" height="322" fill="black" />
<rect shape-rendering="optimizeSpeed"  x="3873" y="3873" width="322" height="322" fill="black" />
<rect shape-rendering="optimizeSpeed"  x="4195" y="3873" width="322" height="322" fill="black" />
<rect shape-rendering="optimizeSpeed"  x="4839" y="3873" width="322" height="322" fill="black" />
<rect shape-rendering="optimizeSpeed"  x="5483" y="3873" width="322" height="322" fill="black" />
<rect shape-rendering="optimizeSpeed"  x="6771" y="3873" width="322" height="322" fill="black" />
<rect shape-rendering="optimizeSpeed"  x="7093" y="3873" width="322" height="322" fill="black" />
<rect shape-rendering="optimizeSpeed"  x="8381" y="3873" width="322" height="322" fill="black" />
<rect shape-rendering="optimizeSpeed"  x="653" y="4195" width="322" height="322" fill="black" />
<rect shape-rendering="optimizeSpeed"  x="1619" y="4195" width="322" height="322" fill="black" />
<rect shape-rendering="optimizeSpeed"  x="2263" y="4195" width="322" height="322" fill="black" />
<rect shape-rendering="optimizeSpeed"  x="2585" y="4195" width="322" height="322" fill="black" />
<rect shape-rendering="optimizeSpeed"  x="3229" y="4195" width="322" height="322" fill="black" />
<rect shape-rendering="optimizeSpeed"  x="3873" y="4195" width="322" height="322" fill="black" />
<rect shape-rendering="optimizeSpeed"  x="5161" y="4195" width="322" height="322" fill="black" />
<rect shape-rendering="optimizeSpeed"  x="5483" y="4195" width="322" height="322" fill="black" />
<rect shape-rendering="optimizeSpeed"  x="6771" y="4195" width="322" height="322" fill="black" />
<rect shape-rendering="optimizeSpeed"  x="7415" y="4195" width="322" height="322" fill="black" />
<rect shape-rendering="optimizeSpeed"  x="7737" y="4195" width="322" height="322" fill="black" />
<rect shape-rendering="optimizeSpeed"  x="9347" y="4195" width="322" height="322" fill="black" />
<rect shape-rendering="optimizeSpeed"  x="331" y="4517" width="322" height="322" fill="black" />
<rect shape-rendering="optimizeSpeed"  x="653" y="4517" width="322" height="322" fill="black" />
<rect shape-rendering="optimizeSpeed"  x="1297" y="4517" width="322" height="322" fill="black" />
<rect shape-rendering="optimizeSpeed"  x="1619" y="4517" width="322" height="322" fill="black" />
<rect shape-rendering="optimizeSpeed"  x="1941" y="4517" width="322" height="322" fill="black" />
<rect shape-rendering="optimizeSpeed"  x="2585" y="4517" width="322" height="322" fill="black" />
<rect shape-rendering="optimizeSpeed"  x="2907" y="4517" width="322" height="322" fill="black" />
<rect shape-rendering="optimizeSpeed"  x="3873" y="4517" width="322" height="322" fill="black" />
<rect shape-rendering="optimizeSpeed"  x="5161" y="4517" width="322" height="322" fill="black" />
<rect shape-rendering="optimizeSpeed"  x="5483" y="4517" width="322" height="322" fill="black" />
<rect shape-rendering="optimizeSpeed"  x="5805" y="4517" width="322" height="322" fill="black" />
<rect shape-rendering="optimizeSpeed"  x="6127" y="4517" width="322" height="322" fill="black" />
<rect shape-rendering="optimizeSpeed"  x="6771" y="4517" width="322" height="322" fill="black" />
<rect shape-rendering="optimizeSpeed"  x="7415" y="4517" width="322" height="322" fill="black" />
<rect shape-rendering="optimizeSpeed"  x="7737" y="4517" width="322" height="322" fill="black" />
<rect shape-rendering="optimizeSpeed"  x="8059" y="4517" width="322" height="322" fill="black" />
<rect shape-rendering="optimizeSpeed"  x="9025" y="4517" width="322" height="322" fill="black" />
<rect shape-rendering="optimizeSpeed"  x="9347" y="4517" width="322" height="322" fill="black" />
<rect shape-rendering="optimizeSpeed"  x="1941" y="4839" width="322" height="322" fill="black" />
<rect shape-rendering="optimizeSpeed"  x="2263" y="4839" width="322" height="322" fill="black" />
<rect shape-rendering="optimizeSpeed"  x="2907" y="4839" width="322" height="322" fill="black" />
<rect shape-rendering="optimizeSpeed"  x="3551" y="4839" width="322" height="322" fill="black" />
<rect shape-rendering="optimizeSpeed"  x="5161" y="4839" width="322" height="322" fill="black" />
<rect shape-rendering="optimizeSpeed"  x="5483" y="4839" width="322" height="322" fill="black" />
<rect shape-rendering="optimizeSpeed"  x="5805" y="4839" width="322" height="322" fill="black" />
<rect shape-rendering="optimizeSpeed"  x="6127" y="4839" width="322" height="322" fill="black" />
<rect shape-rendering="optimizeSpeed"  x="6771" y="4839" width="322" height="322" fill="black" />
<rect shape-rendering="optimizeSpeed"  x="7093" y="4839" width="322" height="322" fill="black" />
<rect shape-rendering="optimizeSpeed"  x="8059" y="4839" width="322" height="322" fill="black" />
<rect shape-rendering="optimizeSpeed"  x="8381" y="4839" width="322" height="322" fill="black" />
<rect shape-rendering="optimizeSpeed"  x="8703" y="4839" width="322" height="322" fill="black" />
<rect shape-rendering="optimizeSpeed"  x="653" y="5161" width="322" height="322" fill="black" />
<rect shape-rendering="optimizeSpeed"  x="975" y="5161" width="322" height="322" fill="black" />
<rect shape-rendering="optimizeSpeed"  x="1297" y="5161" width="322" height="322" fill="black" />
<rect shape-rendering="optimizeSpeed"  x="3229" y="5161" width="322" height="322" fill="black" />
<rect shape-rendering="optimizeSpeed"  x="3551" y="5161" width="322" height="322" fill="black" />
<rect shape-rendering="optimizeSpeed"  x="5161" y="5161" width="322" height="322" fill="black" />
<rect shape-rendering="optimizeSpeed"  x="6449" y="5161" width="322" height="322" fill="black" />
<rect shape-rendering="optimizeSpeed"  x="7737" y="5161" width="322" height="322" fill="black" />
<rect shape-rendering="optimizeSpeed"  x="8059" y="5161" width="322" height="322" fill="black" />
<rect shape-rendering="optimizeSpeed"  x="8703" y="5161" width="322" height="322" fill="black" />
<rect shape-rendering="optimizeSpeed"  x="9347" y="5161" width="322" height="322" fill="black" />
<rect shape-rendering="optimizeSpeed"  x="2263" y="5483" width="322" height="322" fill="black" />
<rect shape-rendering="optimizeSpeed"  x="2585" y="5483" width="322" height="322" fill="black" />
<rect shape-rendering="optimizeSpeed"  x="2907" y="5483" width="322" height="322" fill="black" />
<rect shape-rendering="optimizeSpeed"  x="3551" y="5483" width="322" height="322" fill="black" />
<rect shape-rendering="optimizeSpeed"  x="4195" y="5483" width="322" height="322" fill="black" />
<rect shape-rendering="optimizeSpeed"  x="4517" y="5483" width="322" height="322" fill="black" />
<rect shape-rendering="optimizeSpeed"  x="4839" y="5483" width="322" height="322" fill="black" />
<rect shape-rendering="optimizeSpeed"  x="5483" y="5483" width="322" height="322" fill="black" />
<rect shape-rendering="optimizeSpeed"  x="5805" y="5483" width="322" height="322" fill="black" />
<rect shape-rendering="optimizeSpeed"  x="6449" y="5483" width="322" height="322" fill="black" />
<rect shape-rendering="optimizeSpeed"  x="7093" y="5483" width="322" height="322" fill="black" />
<rect shape-rendering="optimizeSpeed"  x="7737" y="5483" width="322" height="322" fill="black" />
<rect shape-rendering="optimizeSpeed"  x="8381" y="5483" width="322" height="322" fill="black" />
<rect shape-rendering="optimizeSpeed"  x="8703" y="5483" width="322" height="322" fill="black" />
<rect shape-rendering="optimizeSpeed"  x="331" y="5805" width="322" height="322" fill="black" />
<rect shape-rendering="optimizeSpeed"  x="653" y="5805" width="322" height="322" fill="black" />
<rect shape-rendering="optimizeSpeed"  x="975" y="5805" width="322" height="322" fill="black" />
<rect shape-rendering="optimizeSpeed"  x="1297" y="5805" width="322" height="322" fill="black" />
<rect shape-rendering="optimizeSpeed"  x="2585" y="5805" width="322" height="322" fill="black" />
<rect shape-rendering="optimizeSpeed"  x="2907" y="5805" width="322" height="322" fill="black" />
<rect shape-rendering="optimizeSpeed"  x="3229" y="5805" width="322" height="322" fill="black" />
<rect shape-rendering="optimizeSpeed"  x="3873" y="5805" width="322" height="322" fill="black" />
<rect shape-rendering="optimizeSpeed"  x="5483" y="5805" width="322" height="322" fill="black" />
<rect shape-rendering="optimizeSpeed"  x="6127" y="5805" width="322" height="322" fill="black" />
<rect shape-rendering="optimizeSpeed"  x="6449" y="5805" width="322" height="322" fill="black" />
<rect shape-rendering="optimizeSpeed"  x="7415" y="5805" width="322" height="322" fill="black" />
<rect shape-rendering="optimizeSpeed"  x="7737" y="5805" width="322" height="322" fill="black" />
<rect shape-rendering="optimizeSpeed"  x="8059" y="5805" width="322" height="322" fill="black" />
<rect shape-rendering="optimizeSpeed"  x="8703" y="5805" width="322" height="322" fill="black" />
<rect shape-rendering="optimizeSpeed"  x="9025" y="5805" width="322" height="322" fill="black" />
<rect shape-rendering="optimizeSpeed"  x="9347" y="5805" width="322" height="322" fill="black" />
<rect shape-rendering="optimizeSpeed"  x="331" y="6127" width="322" height="322" fill="black" />
<rect shape-rendering="optimizeSpeed"  x="653" y="6127" width="322" height="322" fill="black" />
<rect shape-rendering="optimizeSpeed"  x="1619" y="6127" width="322" height="322" fill="black" />
<rect shape-rendering="optimizeSpeed"  x="1941" y="6127" width="322" height="322" fill="black" />
<rect shape-rendering="optimizeSpeed"  x="2263" y="6127" width="322" height="322" fill="black" />
<rect shape-rendering="optimizeSpeed"  x="2585" y="6127" width="322" height="322" fill="black" />
<rect shape-rendering="optimizeSpeed"  x="3873" y="6127" width="322" height="322" fill="black" />
<rect shape-rendering="optimizeSpeed"  x="4195" y="6127" width="322" height="322" fill="black" />
<rect shape-rendering="optimizeSpeed"  x="5161" y="6127" width="322" height="322" fill="black" />
<rect shape-rendering="optimizeSpeed"  x="5483" y="6127" width="322" height="322" fill="black" />
<rect shape-rendering="optimizeSpeed"  x="5805" y="6127" width="322" height="322" fill="black" />
<rect shape-rendering="optimizeSpeed"  x="6449" y="6127" width="322" height="322" fill="black" />
<rect shape-rendering="optimizeSpeed"  x="8059" y="6127" width="322" height="322" fill="black" />
<rect shape-rendering="optimizeSpeed"  x="8381" y="6127" width="322" height="322" fill="black" />
<rect shape-rendering="optimizeSpeed"  x="9347" y="6127" width="322" height="322" fill="black" />
<rect shape-rendering="optimizeSpeed"  x="331" y="6449" width="322" height="322" fill="black" />
<rect shape-rendering="optimizeSpeed"  x="975" y="6449" width="322" height="322" fill="black" />
<rect shape-rendering="optimizeSpeed"  x="1941" y="6449" width="322" height="322" fill="black" />
<rect shape-rendering="optimizeSpeed"  x="2585" y="6449" width="322" height="322" fill="black" />
<rect shape-rendering="optimizeSpeed"  x="2907" y="6449" width="322" height="322" fill="black" />
<rect shape-rendering="optimizeSpeed"  x="3229" y="6449" width="322" height="322" fill="black" />
<rect shape-rendering="optimizeSpeed"  x="3873" y="6449" width="322" height="322" fill="black" />
<rect shape-rendering="optimizeSpeed"  x="5161" y="6449" width="322" height="322" fill="black" />
<rect shape-rendering="optimizeSpeed"  x="5483" y="6449" width="322" height="322" fill="black" />
<rect shape-rendering="optimizeSpeed"  x="6771" y="6449" width="322" height="322" fill="black" />
<rect shape-rendering="optimizeSpeed"  x="7415" y="6449" width="322" height="322" fill="black" />
<rect shape-rendering="optimizeSpeed"  x="331" y="6771" width="322" height="322" fill="black" />
<rect shape-rendering="optimizeSpeed"  x="975" y="6771" width="322" height="322" fill="black" />
<rect shape-rendering="optimizeSpeed"  x="1297" y="6771" width="322" height="322" fill="black" />
<rect shape-rendering="optimizeSpeed"  x="1619" y="6771" width="322" height="322" fill="black" />
<rect shape-rendering="optimizeSpeed"  x="1941" y="6771" width="322" height="322" fill="black" />
<rect shape-rendering="optimizeSpeed"  x="2263" y="6771" width="322" height="322" fill="black" />
<rect shape-rendering="optimizeSpeed"  x="2585" y="6771" width="322" height="322" fill="black" />
<rect shape-rendering="optimizeSpeed"  x="2907" y="6771" width="322" height="322" fill="black" />
<rect shape-rendering="optimizeSpeed"  x="3551" y="6771" width="322" height="322" fill="black" />
<rect shape-rendering="optimizeSpeed"  x="3873" y="6771" width="322" height="322" fill="black" />
<rect shape-rendering="optimizeSpeed"  x="4195" y="6771" width="322" height="322" fill="black" />
<rect shape-rendering="optimizeSpeed"  x="4517" y="6771" width="322" height="322" fill="black" />
<rect shape-rendering="optimizeSpeed"  x="4839" y="6771" width="322" height="322" fill="black" />
<rect shape-rendering="optimizeSpeed"  x="5805" y="6771" width="322" height="322" fill="black" />
<rect shape-rendering="optimizeSpeed"  x="6449" y="6771" width="322" height="322" fill="black" />
<rect shape-rendering="optimizeSpeed"  x="6771" y="6771" width="322" height="322" fill="black" />
<rect shape-rendering="optimizeSpeed"  x="7093" y="6771" width="322" height="322" fill="black" />
<rect shape-rendering="optimizeSpeed"  x="7415" y="6771" width="322" height="322" fill="black" />
<rect shape-rendering="optimizeSpeed"  x="7737" y="6771" width="322" height="322" fill="black" />
<rect shape-rendering="optimizeSpeed"  x="8059" y="6771" width="322" height="322" fill="black" />
<rect shape-rendering="optimizeSpeed"  x="8703" y="6771" width="322" height="322" fill="black" />
<rect shape-rendering="optimizeSpeed"  x="9025" y="6771" width="322" height="322" fill="black" />
<rect shape-rendering="optimizeSpeed"  x="9347" y="6771" width="322" height="322" fill="black" />
<rect shape-rendering="optimizeSpeed"  x="2907" y="7093" width="322" height="322" fill="black" />
<rect shape-rendering="optimizeSpeed"  x="3873" y="7093" width="322" height="322" fill="black" />
<rect shape-rendering="optimizeSpeed"  x="4839" y="7093" width="322" height="322" fill="black" />
<rect shape-rendering="optimizeSpeed"  x="5161" y="7093" width="322" height="322" fill="black" />
<rect shape-rendering="optimizeSpeed"  x="6771" y="7093" width="322" height="322" fill="black" />
<rect shape-rendering="optimizeSpeed"  x="8059" y="7093" width="322" height="322" fill="black" />
<rect shape-rendering="optimizeSpeed"  x="8381" y="7093" width="322" height="322" fill="black" />
<rect shape-rendering="optimizeSpeed"  x="331" y="7415" width="322" height="322" fill="black" />
<rect shape-rendering="optimizeSpeed"  x="653" y="7415" width="322" height="322" fill="black" />
<rect shape-rendering="optimizeSpeed"  x="975" y="7415" width="322" height="322" fill="black" />
<rect shape-rendering="optimizeSpeed"  x="1297" y="7415" width="322" height="322" fill="black" />
<rect shape-rendering="optimizeSpeed"  x="1619" y="7415" width="322" height="322" fill="black" />
<rect shape-rendering="optimizeSpeed"  x="1941" y="7415" width="322" height="322" fill="black" />
<rect shape-rendering="optimizeSpeed"  x="2263" y="7415" width="322" height="322" fill="black" />
<rect shape-rendering="optimizeSpeed"  x="2907" y="7415" width="322" height="322" fill="black" />
<rect shape-rendering="optimizeSpeed"  x="3551" y="7415" width="322" height="322" fill="black" />
<rect shape-rendering="optimizeSpeed"  x="4517" y="7415" width="322" height="322" fill="black" />
<rect shape-rendering="optimizeSpeed"  x="4839" y="7415" width="322" height="322" fill="black" />
<rect shape-rendering="optimizeSpeed"  x="5161" y="7415" width="322" height="322" fill="black" />
<rect shape-rendering="optimizeSpeed"  x="5483" y="7415" width="322" height="322" fill="black" />
<rect shape-rendering="optimizeSpeed"  x="5805" y="7415" width="322" height="322" fill="black" />
<rect shape-rendering="optimizeSpeed"  x="6127" y="7415" width="322" height="322" fill="black" />
<rect shape-rendering="optimizeSpeed"  x="6449" y="7415" width="322" height="322" fill="black" />
<rect shape-rendering="optimizeSpeed"  x="6771" y="7415" width="322" height="322" fill="black" />
<rect shape-rendering="optimizeSpeed"  x="7415" y="7415" width="322" height="322" fill="black" />
<rect shape-rendering="optimizeSpeed"  x="8059" y="7415" width="322" height="322" fill="black" />
<rect shape-rendering="optimizeSpeed"  x="8381" y="7415" width="322" height="322" fill="black" />
<rect shape-rendering="optimizeSpeed"  x="8703" y="7415" width="322" height="322" fill="black" />
<rect shape-rendering="optimizeSpeed"  x="331" y="7737" width="322" height="322" fill="black" />
<rect shape-rendering="optimizeSpeed"  x="2263" y="7737" width="322" height="322" fill="black" />
<rect shape-rendering="optimizeSpeed"  x="2907" y="7737" width="322" height="322" fill="black" />
<rect shape-rendering="optimizeSpeed"  x="3229" y="7737" width="322" height="322" fill="black" />
<rect shape-rendering="optimizeSpeed"  x="6449" y="7737" width="322" height="322" fill="black" />
<rect shape-rendering="optimizeSpeed"  x="6771" y="7737" width="322" height="322" fill="black" />
<rect shape-rendering="optimizeSpeed"  x="8059" y="7737" width="322" height="322" fill="black" />
<rect shape-rendering="optimizeSpeed"  x="331" y="8059" width="322" height="322" fill="black" />
<rect shape-rendering="optimizeSpeed"  x="975" y="8059" width="322" height="322" fill="black" />
<rect shape-rendering="optimizeSpeed"  x="1297" y="8059" width="322" height="322" fill="black" />
<rect shape-rendering="optimizeSpeed"  x="1619" y="8059" width="322" height="322" fill="black" />
<rect shape-rendering="optimizeSpeed"  x="2263" y="8059" width="322" height="322" fill="black" />
<rect shape-rendering="optimizeSpeed"  x="3229" y="8059" width="322" height="322" fill="black" />
<rect shape-rendering="optimizeSpeed"  x="3551" y="8059" width="322" height="322" fill="black" />
<rect shape-rendering="optimizeSpeed"  x="3873" y="8059" width="322" height="322" fill="black" />
<rect shape-rendering="optimizeSpeed"  x="4195" y="8059" width="322" height="322" fill="black" />
<rect shape-rendering="optimizeSpeed"  x="4517" y="8059" width="322" height="322" fill="black" />
<rect shape-rendering="optimizeSpeed"  x="5161" y="8059" width="322" height="322" fill="black" />
<rect shape-rendering="optimizeSpeed"  x="5483" y="8059" width="322" height="322" fill="black" />
<rect shape-rendering="optimizeSpeed"  x="6127" y="8059" width="322" height="322" fill="black" />
<rect shape-rendering="optimizeSpeed"  x="6449" y="8059" width="322" height="322" fill="black" />
<rect shape-rendering="optimizeSpeed"  x="6771" y="8059" width="322" height="322" fill="black" />
<rect shape-rendering="optimizeSpeed"  x="7093" y="8059" width="322" height="322" fill="black" />
<rect shape-rendering="optimizeSpeed"  x="7415" y="8059" width="322" height="322" fill="black" />
<rect shape-rendering="optimizeSpeed"  x="7737" y="8059" width="322" height="322" fill="black" />
<rect shape-rendering="optimizeSpeed"  x="8059" y="8059" width="322" height="322" fill="black" />
<rect shape-rendering="optimizeSpeed"  x="8381" y="8059" width="322" height="322" fill="black" />
<rect shape-rendering="optimizeSpeed"  x="9347" y="8059" width="322" height="322" fill="black" />
<rect shape-rendering="optimizeSpeed"  x="331" y="8381" width="322" height="322" fill="black" />
<rect shape-rendering="optimizeSpeed"  x="975" y="8381" width="322" height="322" fill="black" />
<rect shape-rendering="optimizeSpeed"  x="1297" y="8381" width="322" height="322" fill="black" />
<rect shape-rendering="optimizeSpeed"  x="1619" y="8381" width="322" height="322" fill="black" />
<rect shape-rendering="optimizeSpeed"  x="2263" y="8381" width="322" height="322" fill="black" />
<rect shape-rendering="optimizeSpeed"  x="3873" y="8381" width="322" height="322" fill="black" />
<rect shape-rendering="optimizeSpeed"  x="4517" y="8381" width="322" height="322" fill="black" />
<rect shape-rendering="optimizeSpeed"  x="4839" y="8381" width="322" height="322" fill="black" />
<rect shape-rendering="optimizeSpeed"  x="5161" y="8381" width="322" height="322" fill="black" />
<rect shape-rendering="optimizeSpeed"  x="5483" y="8381" width="322" height="322" fill="black" />
<rect shape-rendering="optimizeSpeed"  x="5805" y="8381" width="322" height="322" fill="black" />
<rect shape-rendering="optimizeSpeed"  x="6127" y="8381" width="322" height="322" fill="black" />
<rect shape-rendering="optimizeSpeed"  x="6449" y="8381" width="322" height="322" fill="black" />
<rect shape-rendering="optimizeSpeed"  x="6771" y="8381" width="322" height="322" fill="black" />
<rect shape-rendering="optimizeSpeed"  x="7093" y="8381" width="322" height="322" fill="black" />
<rect shape-rendering="optimizeSpeed"  x="8381" y="8381" width="322" height="322" fill="black" />
<rect shape-rendering="optimizeSpeed"  x="8703" y="8381" width="322" height="322" fill="black" />
<rect shape-rendering="optimizeSpeed"  x="9025" y="8381" width="322" height="322" fill="black" />
<rect shape-rendering="optimizeSpeed"  x="9347" y="8381" width="322" height="322" fill="black" />
<rect shape-rendering="optimizeSpeed"  x="331" y="8703" width="322" height="322" fill="black" />
<rect shape-rendering="optimizeSpeed"  x="975" y="8703" width="322" height="322" fill="black" />
<rect shape-rendering="optimizeSpeed"  x="1297" y="8703" width="322" height="322" fill="black" />
<rect shape-rendering="optimizeSpeed"  x="1619" y="8703" width="322" height="322" fill="black" />
<rect shape-rendering="optimizeSpeed"  x="2263" y="8703" width="322" height="322" fill="black" />
<rect shape-rendering="optimizeSpeed"  x="3551" y="8703" width="322" height="322" fill="black" />
<rect shape-rendering="optimizeSpeed"  x="4517" y="8703" width="322" height="322" fill="black" />
<rect shape-rendering="optimizeSpeed"  x="4839" y="8703" width="322" height="322" fill="black" />
<rect shape-rendering="optimizeSpeed"  x="5161" y="8703" width="322" height="322" fill="black" />
<rect shape-rendering="optimizeSpeed"  x="5805" y="8703" width="322" height="322" fill="black" />
<rect shape-rendering="optimizeSpeed"  x="6449" y="8703" width="322" height="322" fill="black" />
<rect shape-rendering="optimizeSpeed"  x="6771" y="8703" width="322" height="322" fill="black" />
<rect shape-rendering="optimizeSpeed"  x="7093" y="8703" width="322" height="322" fill="black" />
<rect shape-rendering="optimizeSpeed"  x="7415" y="8703" width="322" height="322" fill="black" />
<rect shape-rendering="optimizeSpeed"  x="7737" y="8703" width="322" height="322" fill="black" />
<rect shape-rendering="optimizeSpeed"  x="8059" y="8703" width="322" height="322" fill="black" />
<rect shape-rendering="optimizeSpeed"  x="8381" y="8703" width="322" height="322" fill="black" />
<rect shape-rendering="optimizeSpeed"  x="8703" y="8703" width="322" height="322" fill="black" />
<rect shape-rendering="optimizeSpeed"  x="9025" y="8703" width="322" height="322" fill="black" />
<rect shape-rendering="optimizeSpeed"  x="331" y="9025" width="322" height="322" fill="black" />
<rect shape-rendering="optimizeSpeed"  x="2263" y="9025" width="322" height="322" fill="black" />
<rect shape-rendering="optimizeSpeed"  x="2907" y="9025" width="322" height="322" fill="black" />
<rect shape-rendering="optimizeSpeed"  x="3229" y="9025" width="322" height="322" fill="black" />
<rect shape-rendering="optimizeSpeed"  x="3551" y="9025" width="322" height="322" fill="black" />
<rect shape-rendering="optimizeSpeed"  x="3873" y="9025" width="322" height="322" fill="black" />
<rect shape-rendering="optimizeSpeed"  x="5161" y="9025" width="322" height="322" fill="black" />
<rect shape-rendering="optimizeSpeed"  x="7415" y="9025" width="322" height="322" fill="black" />
<rect shape-rendering="optimizeSpeed"  x="7737" y="9025" width="322" height="322" fill="black" />
<rect shape-rendering="optimizeSpeed"  x="8381" y="9025" width="322" height="322" fill="black" />
<rect shape-rendering="optimizeSpeed"  x="8703" y="9025" width="322" height="322" fill="black" />
<rect shape-rendering="optimizeSpeed"  x="9347" y="9025" width="322" height="322" fill="black" />
<rect shape-rendering="optimizeSpeed"  x="331" y="9347" width="322" height="322" fill="black" />
<rect shape-rendering="optimizeSpeed"  x="653" y="9347" width="322" height="322" fill="black" />
<rect shape-rendering="optimizeSpeed"  x="975" y="9347" width="322" height="322" fill="black" />
<rect shape-rendering="optimizeSpeed"  x="1297" y="9347" width="322" height="322" fill="black" />
<rect shape-rendering="optimizeSpeed"  x="1619" y="9347" width="322" height="322" fill="black" />
<rect shape-rendering="optimizeSpeed"  x="1941" y="9347" width="322" height="322" fill="black" />
<rect shape-rendering="optimizeSpeed"  x="2263" y="9347" width="322" height="322" fill="black" />
<rect shape-rendering="optimizeSpeed"  x="2907" y="9347" width="322" height="322" fill="black" />
<rect shape-rendering="optimizeSpeed"  x="3551" y="9347" width="322" height="322" fill="black" />
<rect shape-rendering="optimizeSpeed"  x="4195" y="9347" width="322" height="322" fill="black" />
<rect shape-rendering="optimizeSpeed"  x="4517" y="9347" width="322" height="322" fill="black" />
<rect shape-rendering="optimizeSpeed"  x="4839" y="9347" width="322" height="322" fill="black" />
<rect shape-rendering="optimizeSpeed"  x="5161" y="9347" width="322" height="322" fill="black" />
<rect shape-rendering="optimizeSpeed"  x="5483" y="9347" width="322" height="322" fill="black" />
<rect shape-rendering="optimizeSpeed"  x="6449" y="9347" width="322" height="322" fill="black" />
<rect shape-rendering="optimizeSpeed"  x="7415" y="9347" width="322" height="322" fill="black" />
<rect shape-rendering="optimizeSpeed"  x="7737" y="9347" width="322" height="322" fill="black" />
<rect shape-rendering="optimizeSpeed"  x="8059" y="9347" width="322" height="322" fill="black" />
<rect shape-rendering="optimizeSpeed"  x="8703" y="9347" width="322" height="322" fill="black" /></svg>