<?xml version="1.0" encoding="UTF-8" standalone="no"?>
<!-- Created with Inkscape (http://www.inkscape.org/) -->

<svg
   xmlns:dc="http://purl.org/dc/elements/1.1/"
   xmlns:cc="http://creativecommons.org/ns#"
   xmlns:rdf="http://www.w3.org/1999/02/22-rdf-syntax-ns#"
   xmlns:svg="http://www.w3.org/2000/svg"
   xmlns="http://www.w3.org/2000/svg"
   xmlns:sodipodi="http://sodipodi.sourceforge.net/DTD/sodipodi-0.dtd"
   xmlns:inkscape="http://www.inkscape.org/namespaces/inkscape"
   width="1200mm"
   height="1000mm"
   viewBox="0 0 1200 1000"
   version="1.1"
   id="svg8"
   inkscape:version="0.92.1 unknown"
   sodipodi:docname="lasercutlayers.svg">
  <defs
     id="defs2" />
  <sodipodi:namedview
     id="base"
     pagecolor="#ffffff"
     bordercolor="#666666"
     borderopacity="1.0"
     inkscape:pageopacity="0.0"
     inkscape:pageshadow="2"
     inkscape:zoom="0.61514754"
     inkscape:cx="818.94844"
     inkscape:cy="3031.9349"
     inkscape:document-units="mm"
     inkscape:current-layer="svg8"
     showgrid="false"
     inkscape:window-width="1920"
     inkscape:window-height="1016"
     inkscape:window-x="0"
     inkscape:window-y="27"
     inkscape:window-maximized="1" />
  <metadata
     id="metadata5">
    <rdf:RDF>
      <cc:Work
         rdf:about="">
        <dc:format>image/svg+xml</dc:format>
        <dc:type
           rdf:resource="http://purl.org/dc/dcmitype/StillImage" />
        <dc:title />
      </cc:Work>
    </rdf:RDF>
  </metadata>
  <g
     inkscape:label="externos"
     inkscape:groupmode="layer"
     id="layer1"
     transform="translate(0,703)"
     style="display:inline">
    <g
       transform="matrix(0.99999998,0,0,-0.99999998,30.96081,-400.41256)"
       id="Sketch-3">
      <title
         id="title3852">Sketch</title>
    </g>
    <g
       transform="matrix(0,0.99999999,0.99999999,0,176.95539,-503.84879)"
       id="Sketch010">
      <path
         style="fill:none;fill-rule:evenodd;stroke:#000000;stroke-width:0.34999999;stroke-miterlimit:4;stroke-dasharray:none"
         d="m -10.1,160.1 h -10.1 l -27,-290.2 h 13.6 v -25.1 h 20.2 v 25.1 h 26.8 v -25.1 h 20.2 v 25.1 h 13.6 l -27,290.2 H 10.1 v 25.1 h -20.2 v -25.1"
         id="Sketch010_w0000"
         inkscape:connector-curvature="0" />
      <title
         id="title3928">Sketch010</title>
    </g>
    <g
       transform="matrix(0,-0.99999998,-0.99999998,0,206.95539,-571.24879)"
       id="Sketch010-3">
      <path
         style="fill:none;fill-rule:evenodd;stroke:#000000;stroke-width:0.34999999;stroke-miterlimit:4;stroke-dasharray:none"
         d="m -10.1,160.1 h -10.1 l -27,-290.2 h 13.6 v -25.1 h 20.2 v 25.1 h 26.8 v -25.1 h 20.2 v 25.1 h 13.6 l -27,290.2 H 10.1 v 25.1 h -20.2 v -25.1"
         id="Sketch010_w0000-5"
         inkscape:connector-curvature="0" />
      <title
         id="title3928-0">Sketch010</title>
    </g>
    <g
       transform="matrix(0,0.99999998,0.99999998,0,176.95539,-638.64879)"
       id="Sketch010-9">
      <path
         style="fill:none;fill-rule:evenodd;stroke:#000000;stroke-width:0.34999999;stroke-miterlimit:4;stroke-dasharray:none"
         d="m -10.1,160.1 h -10.1 l -27,-290.2 h 13.6 v -25.1 h 20.2 v 25.1 h 26.8 v -25.1 h 20.2 v 25.1 h 13.6 l -27,290.2 H 10.1 v 25.1 h -20.2 v -25.1"
         id="Sketch010_w0000-3"
         inkscape:connector-curvature="0" />
      <title
         id="title3928-7">Sketch010</title>
    </g>
    <g
       transform="rotate(-180,24.580405,-200.20627)"
       id="Sketch-3-9">
      <path
         style="fill:none;fill-rule:evenodd;stroke:#000000;stroke-width:0.34999999;stroke-miterlimit:4;stroke-dasharray:none"
         d="M -9.1,51.1 H 9.1 V 35.9 H 0 V 31.1 H 9.1 V -41.1 H 0 v -4.8 h 9.1 v -5.2 H -9.1 v 15.2 H 0 v 4.8 H -9.1 V 41.1 H 0 v 4.8 h -9.1 v 5.2"
         id="Sketch_w0000-6-2"
         inkscape:connector-curvature="0" />
      <title
         id="title3852-0">Sketch</title>
    </g>
    <g
       transform="matrix(0.99999998,0,0,-0.99999998,67.360809,-400.41257)"
       id="Sketch-3-2">
      <path
         style="fill:none;fill-rule:evenodd;stroke:#000000;stroke-width:0.34999999;stroke-miterlimit:4;stroke-dasharray:none"
         d="M -9.1,51.1 H 9.1 V 35.9 H 0 V 31.1 H 9.1 V -41.1 H 0 v -4.8 h 9.1 v -5.2 H -9.1 v 15.2 H 0 v 4.8 H -9.1 V 41.1 H 0 v 4.8 h -9.1 v 5.2"
         id="Sketch_w0000-6-3"
         inkscape:connector-curvature="0" />
      <title
         id="title3852-7">Sketch</title>
    </g>
    <g
       transform="rotate(-180,42.780409,-200.20628)"
       id="Sketch-3-5">
      <path
         style="fill:none;fill-rule:evenodd;stroke:#000000;stroke-width:0.34999999;stroke-miterlimit:4;stroke-dasharray:none"
         d="M -9.1,51.1 H 9.1 V 35.9 H 0 V 31.1 H 9.1 V -41.1 H 0 v -4.8 h 9.1 v -5.2 H -9.1 v 15.2 H 0 v 4.8 H -9.1 V 41.1 H 0 v 4.8 h -9.1 v 5.2"
         id="Sketch_w0000-6-9"
         inkscape:connector-curvature="0" />
      <title
         id="title3852-2">Sketch</title>
    </g>
    <g
       transform="rotate(-180,52.38041,-215.70628)"
       id="Sketch012-7">
      <path
         style="fill:none;fill-rule:evenodd;stroke:#000000;stroke-width:0.34999999;stroke-miterlimit:4;stroke-dasharray:none"
         d="M -10.1,20.1 H 10.1 V 14.9 H 0 v -4.8 h 10.1 v -40.2 h -20.2 v 5.2 H 0 v 4.8 h -10.1 v 40.2"
         id="Sketch012_w0000-5"
         inkscape:connector-curvature="0" />
      <title
         id="title3885">Sketch012</title>
    </g>
    <g
       transform="matrix(0.99999998,0,0,-0.99999998,104.76082,-381.21257)"
       id="Sketch012-7-7">
      <path
         style="fill:none;fill-rule:evenodd;stroke:#000000;stroke-width:0.34999999;stroke-miterlimit:4;stroke-dasharray:none"
         d="M -10.1,20.1 H 10.1 V 14.9 H 0 v -4.8 h 10.1 v -40.2 h -20.2 v 5.2 H 0 v 4.8 h -10.1 v 40.2"
         id="Sketch012_w0000-5-3"
         inkscape:connector-curvature="0" />
      <title
         id="title3885-6">Sketch012</title>
    </g>
    <g
       transform="rotate(-180,62.480409,-190.60628)"
       id="Sketch012-7-1">
      <path
         style="fill:none;fill-rule:evenodd;stroke:#000000;stroke-width:0.34999999;stroke-miterlimit:4;stroke-dasharray:none"
         d="M -10.1,20.1 H 10.1 V 14.9 H 0 v -4.8 h 10.1 v -40.2 h -20.2 v 5.2 H 0 v 4.8 h -10.1 v 40.2"
         id="Sketch012_w0000-5-2"
         inkscape:connector-curvature="0" />
      <title
         id="title3885-93">Sketch012</title>
    </g>
    <g
       transform="rotate(-180,72.580409,-215.70628)"
       id="Sketch012">
      <path
         style="fill:none;fill-rule:evenodd;stroke:#000000;stroke-width:0.34999999;stroke-miterlimit:4;stroke-dasharray:none"
         d="M -10.1,20.1 H 10.1 V 14.9 H 0 v -4.8 h 10.1 v -40.2 h -20.2 v 5.2 H 0 v 4.8 h -10.1 v 40.2"
         id="Sketch012_w0000"
         inkscape:connector-curvature="0" />
      <title
         id="title3869">Sketch012</title>
    </g>
    <g
       transform="matrix(1,0,0,-1,165.36082,-431.41257)"
       id="Sketch012-1">
      <path
         style="fill:none;fill-rule:evenodd;stroke:#000000;stroke-width:0.34999999;stroke-miterlimit:4;stroke-dasharray:none"
         d="M -10.1,20.1 H 10.1 V 14.9 H 0 v -4.8 h 10.1 v -40.2 h -20.2 v 5.2 H 0 v 4.8 h -10.1 v 40.2"
         id="Sketch012_w0000-9"
         inkscape:connector-curvature="0" />
      <title
         id="title3869-7">Sketch012</title>
    </g>
    <g
       transform="matrix(1,0,0,-1,145.16082,-381.21257)"
       id="Sketch012-8">
      <path
         style="fill:none;fill-rule:evenodd;stroke:#000000;stroke-width:0.34999999;stroke-miterlimit:4;stroke-dasharray:none"
         d="M -10.1,20.1 H 10.1 V 14.9 H 0 v -4.8 h 10.1 v -40.2 h -20.2 v 5.2 H 0 v 4.8 h -10.1 v 40.2"
         id="Sketch012_w0000-4"
         inkscape:connector-curvature="0" />
      <title
         id="title3869-0">Sketch012</title>
    </g>
    <g
       transform="rotate(-180,82.680409,-190.60628)"
       id="Sketch012-3">
      <path
         style="fill:none;fill-rule:evenodd;stroke:#000000;stroke-width:0.34999999;stroke-miterlimit:4;stroke-dasharray:none"
         d="M -10.1,20.1 H 10.1 V 14.9 H 0 v -4.8 h 10.1 v -40.2 h -20.2 v 5.2 H 0 v 4.8 h -10.1 v 40.2"
         id="Sketch012_w0000-6"
         inkscape:connector-curvature="0" />
      <title
         id="title3869-06">Sketch012</title>
    </g>
    <g
       transform="rotate(-180,92.78041,-215.70628)"
       id="Sketch012-32">
      <path
         style="fill:none;fill-rule:evenodd;stroke:#000000;stroke-width:0.34999999;stroke-miterlimit:4;stroke-dasharray:none"
         d="M -10.1,20.1 H 10.1 V 14.9 H 0 v -4.8 h 10.1 v -40.2 h -20.2 v 5.2 H 0 v 4.8 h -10.1 v 40.2"
         id="Sketch012_w0000-0"
         inkscape:connector-curvature="0" />
      <title
         id="title3869-1">Sketch012</title>
    </g>
    <g
       transform="matrix(0.99999998,0,0,-0.99999998,185.56082,-381.21257)"
       id="Sketch012-5">
      <path
         style="fill:none;fill-rule:evenodd;stroke:#000000;stroke-width:0.34999999;stroke-miterlimit:4;stroke-dasharray:none"
         d="M -10.1,20.1 H 10.1 V 14.9 H 0 v -4.8 h 10.1 v -40.2 h -20.2 v 5.2 H 0 v 4.8 h -10.1 v 40.2"
         id="Sketch012_w0000-54"
         inkscape:connector-curvature="0" />
      <title
         id="title3869-6">Sketch012</title>
    </g>
    <g
       transform="matrix(0.99999998,0,0,-0.99999998,204.76082,-439.11256)"
       id="Sketch">
      <path
         style="fill:none;fill-rule:evenodd;stroke:#000000;stroke-width:0.34999999;stroke-miterlimit:4;stroke-dasharray:none"
         d="M -9.1,12.6 H 9.1 V 7.4 H 0 V 2.6 H 9.1 V -12.6 H -9.1 v 5.2 H 0 v 4.8 h -9.1 v 15.2"
         id="Sketch_w0000"
         inkscape:connector-curvature="0" />
      <title
         id="title3837">Sketch</title>
    </g>
    <g
       transform="matrix(0.99999998,0,0,-0.99999998,204.76082,-413.91256)"
       id="Sketch-5">
      <path
         style="fill:none;fill-rule:evenodd;stroke:#000000;stroke-width:0.34999999;stroke-miterlimit:4;stroke-dasharray:none"
         d="M -9.1,12.6 H 9.1 V 7.4 H 0 V 2.6 H 9.1 V -12.6 H -9.1 v 5.2 H 0 v 4.8 h -9.1 v 15.2"
         id="Sketch_w0000-69"
         inkscape:connector-curvature="0" />
      <title
         id="title3837-3">Sketch</title>
    </g>
    <g
       transform="rotate(-180,102.38041,-194.35628)"
       id="Sketch-7">
      <path
         style="fill:none;fill-rule:evenodd;stroke:#000000;stroke-width:0.34999999;stroke-miterlimit:4;stroke-dasharray:none"
         d="M -9.1,12.6 H 9.1 V 7.4 H 0 V 2.6 H 9.1 V -12.6 H -9.1 v 5.2 H 0 v 4.8 h -9.1 v 15.2"
         id="Sketch_w0000-4"
         inkscape:connector-curvature="0" />
      <title
         id="title3837-5">Sketch</title>
    </g>
    <g
       transform="matrix(0.99999998,0,0,-0.99999998,204.76084,-363.51258)"
       id="Sketch-2">
      <path
         style="fill:none;fill-rule:evenodd;stroke:#000000;stroke-width:0.34999999;stroke-miterlimit:4;stroke-dasharray:none"
         d="M -9.1,12.6 H 9.1 V 7.4 H 0 V 2.6 H 9.1 V -12.6 H -9.1 v 5.2 H 0 v 4.8 h -9.1 v 15.2"
         id="Sketch_w0000-5"
         inkscape:connector-curvature="0" />
      <title
         id="title3837-4">Sketch</title>
    </g>
    <g
       transform="rotate(-180,111.48041,-219.55627)"
       id="Sketch-74">
      <path
         style="fill:none;fill-rule:evenodd;stroke:#000000;stroke-width:0.34999999;stroke-miterlimit:4;stroke-dasharray:none"
         d="M -9.1,12.6 H 9.1 V 7.4 H 0 V 2.6 H 9.1 V -12.6 H -9.1 v 5.2 H 0 v 4.8 h -9.1 v 15.2"
         id="Sketch_w0000-43"
         inkscape:connector-curvature="0" />
      <title
         id="title3837-0">Sketch</title>
    </g>
    <g
       transform="rotate(-180,111.48041,-206.95627)"
       id="Sketch-78">
      <path
         style="fill:none;fill-rule:evenodd;stroke:#000000;stroke-width:0.34999999;stroke-miterlimit:4;stroke-dasharray:none"
         d="M -9.1,12.6 H 9.1 V 7.4 H 0 V 2.6 H 9.1 V -12.6 H -9.1 v 5.2 H 0 v 4.8 h -9.1 v 15.2"
         id="Sketch_w0000-68"
         inkscape:connector-curvature="0" />
      <title
         id="title3837-8">Sketch</title>
    </g>
    <g
       transform="matrix(0.99999998,0,0,-0.99999998,222.96084,-388.71258)"
       id="Sketch-4">
      <path
         style="fill:none;fill-rule:evenodd;stroke:#000000;stroke-width:0.34999999;stroke-miterlimit:4;stroke-dasharray:none"
         d="M -9.1,12.6 H 9.1 V 7.4 H 0 V 2.6 H 9.1 V -12.6 H -9.1 v 5.2 H 0 v 4.8 h -9.1 v 15.2"
         id="Sketch_w0000-3"
         inkscape:connector-curvature="0" />
      <title
         id="title3837-1">Sketch</title>
    </g>
    <g
       transform="rotate(-180,111.48042,-181.75628)"
       id="Sketch-49">
      <path
         style="fill:none;fill-rule:evenodd;stroke:#000000;stroke-width:0.34999999;stroke-miterlimit:4;stroke-dasharray:none"
         d="M -9.1,12.6 H 9.1 V 7.4 H 0 V 2.6 H 9.1 V -12.6 H -9.1 v 5.2 H 0 v 4.8 h -9.1 v 15.2"
         id="Sketch_w0000-2"
         inkscape:connector-curvature="0" />
      <title
         id="title3837-06">Sketch</title>
    </g>
    <g
       transform="matrix(0.99999998,0,0,-0.99999998,241.16082,-439.11256)"
       id="Sketch-8">
      <path
         style="fill:none;fill-rule:evenodd;stroke:#000000;stroke-width:0.34999999;stroke-miterlimit:4;stroke-dasharray:none"
         d="M -9.1,12.6 H 9.1 V 7.4 H 0 V 2.6 H 9.1 V -12.6 H -9.1 v 5.2 H 0 v 4.8 h -9.1 v 15.2"
         id="Sketch_w0000-9"
         inkscape:connector-curvature="0" />
      <title
         id="title3837-2">Sketch</title>
    </g>
    <g
       transform="matrix(0.99999998,0,0,-0.99999998,241.16082,-413.91256)"
       id="Sketch-6">
      <path
         style="fill:none;fill-rule:evenodd;stroke:#000000;stroke-width:0.34999999;stroke-miterlimit:4;stroke-dasharray:none"
         d="M -9.1,12.6 H 9.1 V 7.4 H 0 V 2.6 H 9.1 V -12.6 H -9.1 v 5.2 H 0 v 4.8 h -9.1 v 15.2"
         id="Sketch_w0000-64"
         inkscape:connector-curvature="0" />
      <title
         id="title3837-9">Sketch</title>
    </g>
    <g
       transform="rotate(-180,121.08042,-190.60628)"
       id="Sketch012-7-7-5">
      <path
         style="fill:none;fill-rule:evenodd;stroke:#000000;stroke-width:0.34999999;stroke-miterlimit:4;stroke-dasharray:none"
         d="M -10.1,20.1 H 10.1 V 14.9 H 0 v -4.8 h 10.1 v -40.2 h -20.2 v 5.2 H 0 v 4.8 h -10.1 v 40.2"
         id="Sketch012_w0000-5-3-0"
         inkscape:connector-curvature="0" />
      <title
         id="title3885-6-4">Sketch012</title>
    </g>
    <g
       transform="matrix(1,0,0,-1,124.96082,-431.41257)"
       id="Sketch012-7-9">
      <path
         style="fill:none;fill-rule:evenodd;stroke:#000000;stroke-width:0.34999999;stroke-miterlimit:4;stroke-dasharray:none"
         d="M -10.1,20.1 H 10.1 V 14.9 H 0 v -4.8 h 10.1 v -40.2 h -20.2 v 5.2 H 0 v 4.8 h -10.1 v 40.2"
         id="Sketch012_w0000-5-0"
         inkscape:connector-curvature="0" />
      <title
         id="title3885-9">Sketch012</title>
    </g>
    <g
       transform="matrix(0.99999996,0,0,-0.99999996,334.64015,-405.06387)"
       id="Sketch018-2">
      <circle
         id="circle3899-9"
         style="fill:none;stroke:#000000;stroke-width:0.34999999;stroke-miterlimit:4;stroke-dasharray:none"
         r="75.099998"
         cy="0"
         cx="0" />
      <title
         id="title3903-0">Sketch018</title>
    </g>
    <path
       transform="matrix(0.99999998,0,0,-0.99999998,30.960809,-400.41255)"
       style="display:inline;fill:none;fill-rule:evenodd;stroke:#000000;stroke-width:0.34999999;stroke-miterlimit:4;stroke-dasharray:none"
       d="M -9.1,51.1 H 9.1 V 35.9 H 0 V 31.1 H 9.1 V -41.1 H 0 v -4.8 h 9.1 v -5.2 H -9.1 v 15.2 H 0 v 4.8 H -9.1 V 41.1 H 0 v 4.8 h -9.1 v 5.2"
       id="Sketch_w0000-6"
       inkscape:connector-curvature="0" />
  </g>
  <g
     inkscape:groupmode="layer"
     id="layer3"
     inkscape:label="internos"
     style="display:none">
    <circle
       transform="matrix(0,0.99999998,0.99999998,0,176.95539,64.351212)"
       id="circle3920-60"
       style="display:inline;fill:none;stroke:#000000;stroke-width:0.34999999;stroke-miterlimit:4;stroke-dasharray:none"
       r="3.9000001"
       cy="-100"
       cx="0" />
    <circle
       transform="matrix(0,0.99999998,0.99999998,0,176.95539,64.351212)"
       id="circle3922-6"
       style="display:inline;fill:none;stroke:#000000;stroke-width:0.34999999;stroke-miterlimit:4;stroke-dasharray:none"
       r="3.9000001"
       cy="100"
       cx="0" />
    <path
       transform="matrix(0,0.99999998,0.99999998,0,176.95539,64.351212)"
       style="display:inline;fill:none;fill-rule:evenodd;stroke:#000000;stroke-width:0.34999999;stroke-miterlimit:4;stroke-dasharray:none"
       d="M -8.9,119.9 H 8.9 v -4.8 H -8.9 v 4.8"
       id="Sketch010_w0003-2"
       inkscape:connector-curvature="0" />
    <path
       transform="matrix(0,0.99999998,0.99999998,0,176.95539,64.351212)"
       style="display:inline;fill:none;fill-rule:evenodd;stroke:#000000;stroke-width:0.34999999;stroke-miterlimit:4;stroke-dasharray:none"
       d="M 8.9,84.9 H -8.9 V 80.1 H 8.9 v 4.8"
       id="Sketch010_w0004-6"
       inkscape:connector-curvature="0" />
    <path
       transform="matrix(0,0.99999998,0.99999998,0,176.95539,64.351212)"
       style="display:inline;fill:none;fill-rule:evenodd;stroke:#000000;stroke-width:0.34999999;stroke-miterlimit:4;stroke-dasharray:none"
       d="M -8.9,-115.1 H 8.9 v -4.8 H -8.9 v 4.8"
       id="Sketch010_w0005-1"
       inkscape:connector-curvature="0" />
    <path
       transform="matrix(0,0.99999998,0.99999998,0,176.95539,64.351212)"
       style="display:inline;fill:none;fill-rule:evenodd;stroke:#000000;stroke-width:0.34999999;stroke-miterlimit:4;stroke-dasharray:none"
       d="M 8.9,-84.9 H -8.9 v 4.8 H 8.9 v -4.8"
       id="Sketch010_w0006-8"
       inkscape:connector-curvature="0" />
    <circle
       transform="matrix(0,-0.99999998,-0.99999998,0,206.95539,131.75121)"
       id="circle3920-6"
       style="display:inline;fill:none;stroke:#000000;stroke-width:0.34999999;stroke-miterlimit:4;stroke-dasharray:none"
       r="3.9000001"
       cy="-100"
       cx="0" />
    <circle
       transform="matrix(0,-0.99999998,-0.99999998,0,206.95539,131.75121)"
       id="circle3922-2"
       style="display:inline;fill:none;stroke:#000000;stroke-width:0.34999999;stroke-miterlimit:4;stroke-dasharray:none"
       r="3.9000001"
       cy="100"
       cx="0" />
    <path
       transform="matrix(0,-0.99999998,-0.99999998,0,206.95539,131.75121)"
       style="display:inline;fill:none;fill-rule:evenodd;stroke:#000000;stroke-width:0.34999999;stroke-miterlimit:4;stroke-dasharray:none"
       d="M -8.9,119.9 H 8.9 v -4.8 H -8.9 v 4.8"
       id="Sketch010_w0003-9"
       inkscape:connector-curvature="0" />
    <path
       transform="matrix(0,-0.99999998,-0.99999998,0,206.95539,131.75121)"
       style="display:inline;fill:none;fill-rule:evenodd;stroke:#000000;stroke-width:0.34999999;stroke-miterlimit:4;stroke-dasharray:none"
       d="M 8.9,84.9 H -8.9 V 80.1 H 8.9 v 4.8"
       id="Sketch010_w0004-1"
       inkscape:connector-curvature="0" />
    <path
       transform="matrix(0,-0.99999998,-0.99999998,0,206.95539,131.75121)"
       style="display:inline;fill:none;fill-rule:evenodd;stroke:#000000;stroke-width:0.34999999;stroke-miterlimit:4;stroke-dasharray:none"
       d="M -8.9,-115.1 H 8.9 v -4.8 H -8.9 v 4.8"
       id="Sketch010_w0005-2"
       inkscape:connector-curvature="0" />
    <path
       transform="matrix(0,-0.99999998,-0.99999998,0,206.95539,131.75121)"
       style="display:inline;fill:none;fill-rule:evenodd;stroke:#000000;stroke-width:0.34999999;stroke-miterlimit:4;stroke-dasharray:none"
       d="M 8.9,-84.9 H -8.9 v 4.8 H 8.9 v -4.8"
       id="Sketch010_w0006-7"
       inkscape:connector-curvature="0" />
    <circle
       transform="matrix(0,0.99999998,0.99999998,0,176.95539,199.15121)"
       id="circle3922"
       style="display:inline;fill:none;stroke:#000000;stroke-width:0.34999999;stroke-miterlimit:4;stroke-dasharray:none"
       r="3.9000001"
       cy="100"
       cx="0" />
    <path
       transform="matrix(0,0.99999998,0.99999998,0,176.95539,199.15121)"
       style="display:inline;fill:none;fill-rule:evenodd;stroke:#000000;stroke-width:0.34999999;stroke-miterlimit:4;stroke-dasharray:none"
       d="M -8.9,119.9 H 8.9 v -4.8 H -8.9 v 4.8"
       id="Sketch010_w0003"
       inkscape:connector-curvature="0" />
    <path
       transform="matrix(0,0.99999998,0.99999998,0,176.95539,199.15121)"
       style="display:inline;fill:none;fill-rule:evenodd;stroke:#000000;stroke-width:0.34999999;stroke-miterlimit:4;stroke-dasharray:none"
       d="M 8.9,84.9 H -8.9 V 80.1 H 8.9 v 4.8"
       id="Sketch010_w0004"
       inkscape:connector-curvature="0" />
    <path
       transform="matrix(0,0.99999998,0.99999998,0,176.95539,199.15121)"
       style="display:inline;fill:none;fill-rule:evenodd;stroke:#000000;stroke-width:0.34999999;stroke-miterlimit:4;stroke-dasharray:none"
       d="M 8.9,-84.9 H -8.9 v 4.8 H 8.9 v -4.8"
       id="Sketch010_w0006"
       inkscape:connector-curvature="0" />
    <circle
       transform="matrix(0,0.99999998,0.99999998,0,176.95539,199.15121)"
       id="circle3920"
       style="display:inline;fill:none;stroke:#000000;stroke-width:0.34999999;stroke-miterlimit:4;stroke-dasharray:none"
       r="3.9000001"
       cy="-100"
       cx="0" />
    <path
       transform="matrix(0,0.99999998,0.99999998,0,176.95539,199.15121)"
       style="display:inline;fill:none;fill-rule:evenodd;stroke:#000000;stroke-width:0.34999999;stroke-miterlimit:4;stroke-dasharray:none"
       d="M -8.9,-115.1 H 8.9 v -4.8 H -8.9 v 4.8"
       id="Sketch010_w0005"
       inkscape:connector-curvature="0" />
    <path
       transform="matrix(0.99999996,0,0,-0.99999996,334.64016,297.93613)"
       style="display:inline;fill:none;fill-rule:evenodd;stroke:#000000;stroke-width:0.34999999;stroke-miterlimit:4;stroke-dasharray:none"
       d="m -40.9,9.9 h 4.8 V -9.9 h -4.8 V 9.9"
       id="Sketch018_w0001-3"
       inkscape:connector-curvature="0" />
    <path
       transform="matrix(0.99999996,0,0,-0.99999996,334.64016,297.93613)"
       style="display:inline;fill:none;fill-rule:evenodd;stroke:#000000;stroke-width:0.34999999;stroke-miterlimit:4;stroke-dasharray:none"
       d="m 36.1,-9.9 h 4.8 V 9.9 H 36.1 V -9.9"
       id="Sketch018_w0002-9"
       inkscape:connector-curvature="0" />
    <circle
       transform="rotate(180,72.580408,135.79372)"
       id="circle3867"
       style="display:inline;fill:none;stroke:#000000;stroke-width:0.34999999;stroke-miterlimit:4;stroke-dasharray:none"
       r="2.5"
       cy="-5"
       cx="0" />
    <circle
       transform="matrix(1,0,0,-1,165.36082,271.58744)"
       id="circle3867-4"
       style="display:inline;fill:none;stroke:#000000;stroke-width:0.34999999;stroke-miterlimit:4;stroke-dasharray:none"
       r="2.5"
       cy="-5"
       cx="0" />
    <circle
       transform="rotate(180,92.780409,135.79372)"
       id="circle3867-6"
       style="display:inline;fill:none;stroke:#000000;stroke-width:0.34999999;stroke-miterlimit:4;stroke-dasharray:none"
       r="2.5"
       cy="-5"
       cx="0" />
    <circle
       transform="matrix(0.99999998,0,0,-0.99999998,185.56082,321.78744)"
       id="circle3867-7"
       style="display:inline;fill:none;stroke:#000000;stroke-width:0.34999999;stroke-miterlimit:4;stroke-dasharray:none"
       r="2.5"
       cy="-5"
       cx="0" />
    <circle
       transform="rotate(180,82.680409,160.89372)"
       id="circle3867-1"
       style="display:inline;fill:none;stroke:#000000;stroke-width:0.34999999;stroke-miterlimit:4;stroke-dasharray:none"
       r="2.5"
       cy="-5"
       cx="0" />
    <circle
       transform="matrix(1,0,0,-1,145.16082,321.78744)"
       id="circle3867-5"
       style="display:inline;fill:none;stroke:#000000;stroke-width:0.34999999;stroke-miterlimit:4;stroke-dasharray:none"
       r="2.5"
       cy="-5"
       cx="0" />
  </g>
</svg>
