<?xml version="1.0"?>
<!DOCTYPE svg PUBLIC "-//W3C//DTD SVG 1.1//EN" "http://www.w3.org/Graphics/SVG/1.1/DTD/svg11.dtd">
<svg width="96.288mm" height="342.288mm" viewBox="0 0 96.288 342.288" xmlns="http://www.w3.org/2000/svg" version="1.1">
<g id="Sketch010" transform="translate(48.144000,186.144000) scale(1,-1)">
<path id="Sketch010_w0000"  d="M -10.1 160.1 L -20.2 160.1 L -47.2 -130.1 L -33.6 -130.1 L -33.6 -155.2 L -13.4 -155.2 L -13.4 -130.1 L 13.4 -130.1 L 13.4 -155.2 L 33.6 -155.2 L 33.6 -130.1 L 47.2 -130.1 L 20.2 160.1 L 10.1 160.1 L 10.1 185.2 L -10.1 185.2 L -10.1 160.1 " stroke="#000000" stroke-width="0.35 px" style="stroke-width:0.35;stroke-miterlimit:4;stroke-dasharray:none;fill:none;fill-rule: evenodd "/>
<circle cx="0.0" cy="-100.0" r="3.9" stroke="#000000" stroke-width="0.35 px" style="stroke-width:0.35;stroke-miterlimit:4;stroke-dasharray:none;fill:none"/>
<circle cx="0.0" cy="100.0" r="3.9" stroke="#000000" stroke-width="0.35 px" style="stroke-width:0.35;stroke-miterlimit:4;stroke-dasharray:none;fill:none"/>
<path id="Sketch010_w0003"  d="M -8.9 119.9 L 8.9 119.9 L 8.9 115.1 L -8.9 115.1 L -8.9 119.9 " stroke="#000000" stroke-width="0.35 px" style="stroke-width:0.35;stroke-miterlimit:4;stroke-dasharray:none;fill:none;fill-rule: evenodd "/>
<path id="Sketch010_w0004"  d="M 8.9 84.9 L -8.9 84.9 L -8.9 80.1 L 8.9 80.1 L 8.9 84.9 " stroke="#000000" stroke-width="0.35 px" style="stroke-width:0.35;stroke-miterlimit:4;stroke-dasharray:none;fill:none;fill-rule: evenodd "/>
<path id="Sketch010_w0005"  d="M -8.9 -115.1 L 8.9 -115.1 L 8.9 -119.9 L -8.9 -119.9 L -8.9 -115.1 " stroke="#000000" stroke-width="0.35 px" style="stroke-width:0.35;stroke-miterlimit:4;stroke-dasharray:none;fill:none;fill-rule: evenodd "/>
<path id="Sketch010_w0006"  d="M 8.9 -84.9 L -8.9 -84.9 L -8.9 -80.1 L 8.9 -80.1 L 8.9 -84.9 " stroke="#000000" stroke-width="0.35 px" style="stroke-width:0.35;stroke-miterlimit:4;stroke-dasharray:none;fill:none;fill-rule: evenodd "/>
<title>Sketch010</title>
</g>
</svg>