  0
SECTION
  2
HEADER
  9
$ACADVER
  1
AC1009
  9
$EXTMIN
 10
0.0
 20
0.0
 30
0.0
  9
$EXTMAX
 10
1000.0
 20
1000.0
 30
0.0
  9
$FILLMODE
 70
 0
  9
$SPLFRAME
 70
 1
  0
ENDSEC
  0
SECTION
  2
TABLES
  0
TABLE
  2
LAYER
 70
1
  0
LAYER
  2
0
 70
     0
 62
     7
  6
CONTINUOUS
  0
ENDTAB
  0
ENDSEC
  0
SECTION
  2
ENTITIES
  0
POLYLINE
  8
0
 62
     0
 66
     1
 10
0
 20
0
 30
0.0
 70
     1
 40
0.992126
 41
0.992126
  0
VERTEX
  8
0
 10
18.7483
 20
15.5801
 30
0.0
 40
0.0137795
 41
0.0137795
  0
VERTEX
  8
0
 10
18.7483
 20
15.6606
 30
0.0
 40
0.0137795
 41
0.0137795
  0
VERTEX
  8
0
 10
18.7321
 20
15.9021
 30
0.0
 40
0.0137795
 41
0.0137795
  0
VERTEX
  8
0
 10
18.6843
 20
16.2149
 30
0.0
 40
0.0137795
 41
0.0137795
  0
VERTEX
  8
0
 10
18.6067
 20
16.5167
 30
0.0
 40
0.0137795
 41
0.0137795
  0
VERTEX
  8
0
 10
18.5007
 20
16.8061
 30
0.0
 40
0.0137795
 41
0.0137795
  0
VERTEX
  8
0
 10
18.3682
 20
17.0814
 30
0.0
 40
0.0137795
 41
0.0137795
  0
VERTEX
  8
0
 10
18.2104
 20
17.341
 30
0.0
 40
0.0137795
 41
0.0137795
  0
VERTEX
  8
0
 10
18.029
 20
17.5835
 30
0.0
 40
0.0137795
 41
0.0137795
  0
VERTEX
  8
0
 10
17.8258
 20
17.8072
 30
0.0
 40
0.0137795
 41
0.0137795
  0
VERTEX
  8
0
 10
17.6022
 20
18.0104
 30
0.0
 40
0.0137795
 41
0.0137795
  0
VERTEX
  8
0
 10
17.3597
 20
18.1918
 30
0.0
 40
0.0137795
 41
0.0137795
  0
VERTEX
  8
0
 10
17.1
 20
18.3496
 30
0.0
 40
0.0137795
 41
0.0137795
  0
VERTEX
  8
0
 10
16.8247
 20
18.4821
 30
0.0
 40
0.0137795
 41
0.0137795
  0
VERTEX
  8
0
 10
16.5353
 20
18.5881
 30
0.0
 40
0.0137795
 41
0.0137795
  0
VERTEX
  8
0
 10
16.2335
 20
18.6657
 30
0.0
 40
0.0137795
 41
0.0137795
  0
VERTEX
  8
0
 10
15.9207
 20
18.7135
 30
0.0
 40
0.0137795
 41
0.0137795
  0
VERTEX
  8
0
 10
15.6792
 20
18.7297
 30
0.0
 40
0.0137795
 41
0.0137795
  0
VERTEX
  8
0
 10
15.5987
 20
18.7297
 30
0.0
 40
0.0137795
 41
0.0137795
  0
VERTEX
  8
0
 10
15.5182
 20
18.7297
 30
0.0
 40
0.0137795
 41
0.0137795
  0
VERTEX
  8
0
 10
15.2767
 20
18.7135
 30
0.0
 40
0.0137795
 41
0.0137795
  0
VERTEX
  8
0
 10
14.964
 20
18.6657
 30
0.0
 40
0.0137795
 41
0.0137795
  0
VERTEX
  8
0
 10
14.6621
 20
18.5881
 30
0.0
 40
0.0137795
 41
0.0137795
  0
VERTEX
  8
0
 10
14.3728
 20
18.4821
 30
0.0
 40
0.0137795
 41
0.0137795
  0
VERTEX
  8
0
 10
14.0975
 20
18.3496
 30
0.0
 40
0.0137795
 41
0.0137795
  0
VERTEX
  8
0
 10
13.8377
 20
18.1918
 30
0.0
 40
0.0137795
 41
0.0137795
  0
VERTEX
  8
0
 10
13.5953
 20
18.0104
 30
0.0
 40
0.0137795
 41
0.0137795
  0
VERTEX
  8
0
 10
13.3716
 20
17.8072
 30
0.0
 40
0.0137795
 41
0.0137795
  0
VERTEX
  8
0
 10
13.1683
 20
17.5835
 30
0.0
 40
0.0137795
 41
0.0137795
  0
VERTEX
  8
0
 10
12.987
 20
17.341
 30
0.0
 40
0.0137795
 41
0.0137795
  0
VERTEX
  8
0
 10
12.8292
 20
17.0814
 30
0.0
 40
0.0137795
 41
0.0137795
  0
VERTEX
  8
0
 10
12.6966
 20
16.8061
 30
0.0
 40
0.0137795
 41
0.0137795
  0
VERTEX
  8
0
 10
12.5907
 20
16.5167
 30
0.0
 40
0.0137795
 41
0.0137795
  0
VERTEX
  8
0
 10
12.5131
 20
16.2149
 30
0.0
 40
0.0137795
 41
0.0137795
  0
VERTEX
  8
0
 10
12.4653
 20
15.9021
 30
0.0
 40
0.0137795
 41
0.0137795
  0
VERTEX
  8
0
 10
12.4491
 20
15.6606
 30
0.0
 40
0.0137795
 41
0.0137795
  0
VERTEX
  8
0
 10
12.4491
 20
15.5801
 30
0.0
 40
0.0137795
 41
0.0137795
  0
VERTEX
  8
0
 10
12.4491
 20
15.4996
 30
0.0
 40
0.0137795
 41
0.0137795
  0
VERTEX
  8
0
 10
12.4653
 20
15.2581
 30
0.0
 40
0.0137795
 41
0.0137795
  0
VERTEX
  8
0
 10
12.5131
 20
14.9453
 30
0.0
 40
0.0137795
 41
0.0137795
  0
VERTEX
  8
0
 10
12.5907
 20
14.6435
 30
0.0
 40
0.0137795
 41
0.0137795
  0
VERTEX
  8
0
 10
12.6966
 20
14.3542
 30
0.0
 40
0.0137795
 41
0.0137795
  0
VERTEX
  8
0
 10
12.8292
 20
14.0787
 30
0.0
 40
0.0137795
 41
0.0137795
  0
VERTEX
  8
0
 10
12.987
 20
13.8191
 30
0.0
 40
0.0137795
 41
0.0137795
  0
VERTEX
  8
0
 10
13.1683
 20
13.5766
 30
0.0
 40
0.0137795
 41
0.0137795
  0
VERTEX
  8
0
 10
13.3716
 20
13.353
 30
0.0
 40
0.0137795
 41
0.0137795
  0
VERTEX
  8
0
 10
13.5953
 20
13.1497
 30
0.0
 40
0.0137795
 41
0.0137795
  0
VERTEX
  8
0
 10
13.8377
 20
12.9684
 30
0.0
 40
0.0137795
 41
0.0137795
  0
VERTEX
  8
0
 10
14.0975
 20
12.8106
 30
0.0
 40
0.0137795
 41
0.0137795
  0
VERTEX
  8
0
 10
14.3728
 20
12.678
 30
0.0
 40
0.0137795
 41
0.0137795
  0
VERTEX
  8
0
 10
14.6621
 20
12.5721
 30
0.0
 40
0.0137795
 41
0.0137795
  0
VERTEX
  8
0
 10
14.964
 20
12.4945
 30
0.0
 40
0.0137795
 41
0.0137795
  0
VERTEX
  8
0
 10
15.2767
 20
12.4467
 30
0.0
 40
0.0137795
 41
0.0137795
  0
VERTEX
  8
0
 10
15.5182
 20
12.4304
 30
0.0
 40
0.0137795
 41
0.0137795
  0
VERTEX
  8
0
 10
15.5987
 20
12.4304
 30
0.0
 40
0.0137795
 41
0.0137795
  0
VERTEX
  8
0
 10
15.6792
 20
12.4304
 30
0.0
 40
0.0137795
 41
0.0137795
  0
VERTEX
  8
0
 10
15.9207
 20
12.4467
 30
0.0
 40
0.0137795
 41
0.0137795
  0
VERTEX
  8
0
 10
16.2335
 20
12.4945
 30
0.0
 40
0.0137795
 41
0.0137795
  0
VERTEX
  8
0
 10
16.5353
 20
12.5721
 30
0.0
 40
0.0137795
 41
0.0137795
  0
VERTEX
  8
0
 10
16.8247
 20
12.678
 30
0.0
 40
0.0137795
 41
0.0137795
  0
VERTEX
  8
0
 10
17.1
 20
12.8106
 30
0.0
 40
0.0137795
 41
0.0137795
  0
VERTEX
  8
0
 10
17.3597
 20
12.9684
 30
0.0
 40
0.0137795
 41
0.0137795
  0
VERTEX
  8
0
 10
17.6022
 20
13.1497
 30
0.0
 40
0.0137795
 41
0.0137795
  0
VERTEX
  8
0
 10
17.8258
 20
13.353
 30
0.0
 40
0.0137795
 41
0.0137795
  0
VERTEX
  8
0
 10
18.029
 20
13.5766
 30
0.0
 40
0.0137795
 41
0.0137795
  0
VERTEX
  8
0
 10
18.2104
 20
13.8191
 30
0.0
 40
0.0137795
 41
0.0137795
  0
VERTEX
  8
0
 10
18.3682
 20
14.0787
 30
0.0
 40
0.0137795
 41
0.0137795
  0
VERTEX
  8
0
 10
18.5007
 20
14.3542
 30
0.0
 40
0.0137795
 41
0.0137795
  0
VERTEX
  8
0
 10
18.6067
 20
14.6435
 30
0.0
 40
0.0137795
 41
0.0137795
  0
VERTEX
  8
0
 10
18.6843
 20
14.9453
 30
0.0
 40
0.0137795
 41
0.0137795
  0
VERTEX
  8
0
 10
18.7321
 20
15.2581
 30
0.0
 40
0.0137795
 41
0.0137795
  0
VERTEX
  8
0
 10
18.7483
 20
15.4996
 30
0.0
 40
0.0137795
 41
0.0137795
  0
VERTEX
  8
0
 10
18.7483
 20
15.5801
 30
0.0
 40
0.0137795
 41
0.0137795
  0
SEQEND
 8
0
  0
POLYLINE
  8
0
 62
     0
 66
     1
 10
0
 20
0
 30
0.0
 40
0.992126
 41
0.992126
  0
VERTEX
  8
0
 10
2.27094
 20
17.9419
 30
0.0
 40
0.0137795
 41
0.0137795
  0
VERTEX
  8
0
 10
2.27094
 20
13.7688
 30
0.0
 40
0.0137795
 41
0.0137795
  0
SEQEND
 8
0
  0
POLYLINE
  8
0
 62
     0
 66
     1
 10
0
 20
0
 30
0.0
 40
0.992126
 41
0.992126
  0
VERTEX
  8
0
 10
2.27094
 20
13.7688
 30
0.0
 40
0.0137795
 41
0.0137795
  0
VERTEX
  8
0
 10
2.1135
 20
13.7688
 30
0.0
 40
0.0137795
 41
0.0137795
  0
SEQEND
 8
0
  0
POLYLINE
  8
0
 62
     0
 66
     1
 10
0
 20
0
 30
0.0
 40
0.992126
 41
0.992126
  0
VERTEX
  8
0
 10
2.1135
 20
13.7688
 30
0.0
 40
0.0137795
 41
0.0137795
  0
VERTEX
  8
0
 10
2.1135
 20
14.2018
 30
0.0
 40
0.0137795
 41
0.0137795
  0
SEQEND
 8
0
  0
POLYLINE
  8
0
 62
     0
 66
     1
 10
0
 20
0
 30
0.0
 40
0.992126
 41
0.992126
  0
VERTEX
  8
0
 10
2.1135
 20
14.2018
 30
0.0
 40
0.0137795
 41
0.0137795
  0
VERTEX
  8
0
 10
1.956
 20
14.2018
 30
0.0
 40
0.0137795
 41
0.0137795
  0
SEQEND
 8
0
  0
POLYLINE
  8
0
 62
     0
 66
     1
 10
0
 20
0
 30
0.0
 40
0.992126
 41
0.992126
  0
VERTEX
  8
0
 10
1.956
 20
14.2018
 30
0.0
 40
0.0137795
 41
0.0137795
  0
VERTEX
  8
0
 10
1.956
 20
13.7688
 30
0.0
 40
0.0137795
 41
0.0137795
  0
SEQEND
 8
0
  0
POLYLINE
  8
0
 62
     0
 66
     1
 10
0
 20
0
 30
0.0
 40
0.992126
 41
0.992126
  0
VERTEX
  8
0
 10
1.956
 20
13.7688
 30
0.0
 40
0.0137795
 41
0.0137795
  0
VERTEX
  8
0
 10
1.7985
 20
13.7688
 30
0.0
 40
0.0137795
 41
0.0137795
  0
SEQEND
 8
0
  0
POLYLINE
  8
0
 62
     0
 66
     1
 10
0
 20
0
 30
0.0
 40
0.992126
 41
0.992126
  0
VERTEX
  8
0
 10
1.7985
 20
13.7688
 30
0.0
 40
0.0137795
 41
0.0137795
  0
VERTEX
  8
0
 10
1.7985
 20
17.9419
 30
0.0
 40
0.0137795
 41
0.0137795
  0
SEQEND
 8
0
  0
POLYLINE
  8
0
 62
     0
 66
     1
 10
0
 20
0
 30
0.0
 40
0.992126
 41
0.992126
  0
VERTEX
  8
0
 10
1.956
 20
17.9419
 30
0.0
 40
0.0137795
 41
0.0137795
  0
VERTEX
  8
0
 10
1.7985
 20
17.9419
 30
0.0
 40
0.0137795
 41
0.0137795
  0
SEQEND
 8
0
  0
POLYLINE
  8
0
 62
     0
 66
     1
 10
0
 20
0
 30
0.0
 40
0.992126
 41
0.992126
  0
VERTEX
  8
0
 10
1.956
 20
17.5089
 30
0.0
 40
0.0137795
 41
0.0137795
  0
VERTEX
  8
0
 10
1.956
 20
17.9419
 30
0.0
 40
0.0137795
 41
0.0137795
  0
SEQEND
 8
0
  0
POLYLINE
  8
0
 62
     0
 66
     1
 10
0
 20
0
 30
0.0
 40
0.992126
 41
0.992126
  0
VERTEX
  8
0
 10
2.1135
 20
17.5089
 30
0.0
 40
0.0137795
 41
0.0137795
  0
VERTEX
  8
0
 10
1.956
 20
17.5089
 30
0.0
 40
0.0137795
 41
0.0137795
  0
SEQEND
 8
0
  0
POLYLINE
  8
0
 62
     0
 66
     1
 10
0
 20
0
 30
0.0
 40
0.992126
 41
0.992126
  0
VERTEX
  8
0
 10
2.1135
 20
17.9419
 30
0.0
 40
0.0137795
 41
0.0137795
  0
VERTEX
  8
0
 10
2.1135
 20
17.5089
 30
0.0
 40
0.0137795
 41
0.0137795
  0
SEQEND
 8
0
  0
POLYLINE
  8
0
 62
     0
 66
     1
 10
0
 20
0
 30
0.0
 40
0.992126
 41
0.992126
  0
VERTEX
  8
0
 10
2.27094
 20
17.9419
 30
0.0
 40
0.0137795
 41
0.0137795
  0
VERTEX
  8
0
 10
2.1135
 20
17.9419
 30
0.0
 40
0.0137795
 41
0.0137795
  0
SEQEND
 8
0
  0
POLYLINE
  8
0
 62
     0
 66
     1
 10
0
 20
0
 30
0.0
 40
0.992126
 41
0.992126
  0
VERTEX
  8
0
 10
2.74337
 20
17.9419
 30
0.0
 40
0.0137795
 41
0.0137795
  0
VERTEX
  8
0
 10
2.74337
 20
13.7688
 30
0.0
 40
0.0137795
 41
0.0137795
  0
SEQEND
 8
0
  0
POLYLINE
  8
0
 62
     0
 66
     1
 10
0
 20
0
 30
0.0
 40
0.992126
 41
0.992126
  0
VERTEX
  8
0
 10
2.74337
 20
13.7688
 30
0.0
 40
0.0137795
 41
0.0137795
  0
VERTEX
  8
0
 10
2.58594
 20
13.7688
 30
0.0
 40
0.0137795
 41
0.0137795
  0
SEQEND
 8
0
  0
POLYLINE
  8
0
 62
     0
 66
     1
 10
0
 20
0
 30
0.0
 40
0.992126
 41
0.992126
  0
VERTEX
  8
0
 10
2.58594
 20
13.7688
 30
0.0
 40
0.0137795
 41
0.0137795
  0
VERTEX
  8
0
 10
2.58594
 20
14.2018
 30
0.0
 40
0.0137795
 41
0.0137795
  0
SEQEND
 8
0
  0
POLYLINE
  8
0
 62
     0
 66
     1
 10
0
 20
0
 30
0.0
 40
0.992126
 41
0.992126
  0
VERTEX
  8
0
 10
2.58594
 20
14.2018
 30
0.0
 40
0.0137795
 41
0.0137795
  0
VERTEX
  8
0
 10
2.42844
 20
14.2018
 30
0.0
 40
0.0137795
 41
0.0137795
  0
SEQEND
 8
0
  0
POLYLINE
  8
0
 62
     0
 66
     1
 10
0
 20
0
 30
0.0
 40
0.992126
 41
0.992126
  0
VERTEX
  8
0
 10
2.42844
 20
14.2018
 30
0.0
 40
0.0137795
 41
0.0137795
  0
VERTEX
  8
0
 10
2.42844
 20
13.7688
 30
0.0
 40
0.0137795
 41
0.0137795
  0
SEQEND
 8
0
  0
POLYLINE
  8
0
 62
     0
 66
     1
 10
0
 20
0
 30
0.0
 40
0.992126
 41
0.992126
  0
VERTEX
  8
0
 10
2.42844
 20
13.7688
 30
0.0
 40
0.0137795
 41
0.0137795
  0
VERTEX
  8
0
 10
2.27094
 20
13.7688
 30
0.0
 40
0.0137795
 41
0.0137795
  0
SEQEND
 8
0
  0
POLYLINE
  8
0
 62
     0
 66
     1
 10
0
 20
0
 30
0.0
 40
0.992126
 41
0.992126
  0
VERTEX
  8
0
 10
2.27094
 20
13.7688
 30
0.0
 40
0.0137795
 41
0.0137795
  0
VERTEX
  8
0
 10
2.27094
 20
17.9419
 30
0.0
 40
0.0137795
 41
0.0137795
  0
SEQEND
 8
0
  0
POLYLINE
  8
0
 62
     0
 66
     1
 10
0
 20
0
 30
0.0
 40
0.992126
 41
0.992126
  0
VERTEX
  8
0
 10
2.42844
 20
17.9419
 30
0.0
 40
0.0137795
 41
0.0137795
  0
VERTEX
  8
0
 10
2.27094
 20
17.9419
 30
0.0
 40
0.0137795
 41
0.0137795
  0
SEQEND
 8
0
  0
POLYLINE
  8
0
 62
     0
 66
     1
 10
0
 20
0
 30
0.0
 40
0.992126
 41
0.992126
  0
VERTEX
  8
0
 10
2.42844
 20
17.5089
 30
0.0
 40
0.0137795
 41
0.0137795
  0
VERTEX
  8
0
 10
2.42844
 20
17.9419
 30
0.0
 40
0.0137795
 41
0.0137795
  0
SEQEND
 8
0
  0
POLYLINE
  8
0
 62
     0
 66
     1
 10
0
 20
0
 30
0.0
 40
0.992126
 41
0.992126
  0
VERTEX
  8
0
 10
2.58594
 20
17.5089
 30
0.0
 40
0.0137795
 41
0.0137795
  0
VERTEX
  8
0
 10
2.42844
 20
17.5089
 30
0.0
 40
0.0137795
 41
0.0137795
  0
SEQEND
 8
0
  0
POLYLINE
  8
0
 62
     0
 66
     1
 10
0
 20
0
 30
0.0
 40
0.992126
 41
0.992126
  0
VERTEX
  8
0
 10
2.58594
 20
17.9419
 30
0.0
 40
0.0137795
 41
0.0137795
  0
VERTEX
  8
0
 10
2.58594
 20
17.5089
 30
0.0
 40
0.0137795
 41
0.0137795
  0
SEQEND
 8
0
  0
POLYLINE
  8
0
 62
     0
 66
     1
 10
0
 20
0
 30
0.0
 40
0.992126
 41
0.992126
  0
VERTEX
  8
0
 10
2.74337
 20
17.9419
 30
0.0
 40
0.0137795
 41
0.0137795
  0
VERTEX
  8
0
 10
2.58594
 20
17.9419
 30
0.0
 40
0.0137795
 41
0.0137795
  0
SEQEND
 8
0
  0
POLYLINE
  8
0
 62
     0
 66
     1
 10
0
 20
0
 30
0.0
 40
0.992126
 41
0.992126
  0
VERTEX
  8
0
 10
3.21588
 20
17.9419
 30
0.0
 40
0.0137795
 41
0.0137795
  0
VERTEX
  8
0
 10
3.21588
 20
13.7688
 30
0.0
 40
0.0137795
 41
0.0137795
  0
SEQEND
 8
0
  0
POLYLINE
  8
0
 62
     0
 66
     1
 10
0
 20
0
 30
0.0
 40
0.992126
 41
0.992126
  0
VERTEX
  8
0
 10
3.21588
 20
13.7688
 30
0.0
 40
0.0137795
 41
0.0137795
  0
VERTEX
  8
0
 10
3.05838
 20
13.7688
 30
0.0
 40
0.0137795
 41
0.0137795
  0
SEQEND
 8
0
  0
POLYLINE
  8
0
 62
     0
 66
     1
 10
0
 20
0
 30
0.0
 40
0.992126
 41
0.992126
  0
VERTEX
  8
0
 10
3.05838
 20
13.7688
 30
0.0
 40
0.0137795
 41
0.0137795
  0
VERTEX
  8
0
 10
3.05838
 20
14.2018
 30
0.0
 40
0.0137795
 41
0.0137795
  0
SEQEND
 8
0
  0
POLYLINE
  8
0
 62
     0
 66
     1
 10
0
 20
0
 30
0.0
 40
0.992126
 41
0.992126
  0
VERTEX
  8
0
 10
3.05838
 20
14.2018
 30
0.0
 40
0.0137795
 41
0.0137795
  0
VERTEX
  8
0
 10
2.90088
 20
14.2018
 30
0.0
 40
0.0137795
 41
0.0137795
  0
SEQEND
 8
0
  0
POLYLINE
  8
0
 62
     0
 66
     1
 10
0
 20
0
 30
0.0
 40
0.992126
 41
0.992126
  0
VERTEX
  8
0
 10
2.90088
 20
14.2018
 30
0.0
 40
0.0137795
 41
0.0137795
  0
VERTEX
  8
0
 10
2.90088
 20
13.7688
 30
0.0
 40
0.0137795
 41
0.0137795
  0
SEQEND
 8
0
  0
POLYLINE
  8
0
 62
     0
 66
     1
 10
0
 20
0
 30
0.0
 40
0.992126
 41
0.992126
  0
VERTEX
  8
0
 10
2.90088
 20
13.7688
 30
0.0
 40
0.0137795
 41
0.0137795
  0
VERTEX
  8
0
 10
2.74337
 20
13.7688
 30
0.0
 40
0.0137795
 41
0.0137795
  0
SEQEND
 8
0
  0
POLYLINE
  8
0
 62
     0
 66
     1
 10
0
 20
0
 30
0.0
 40
0.992126
 41
0.992126
  0
VERTEX
  8
0
 10
2.74337
 20
13.7688
 30
0.0
 40
0.0137795
 41
0.0137795
  0
VERTEX
  8
0
 10
2.74337
 20
17.9419
 30
0.0
 40
0.0137795
 41
0.0137795
  0
SEQEND
 8
0
  0
POLYLINE
  8
0
 62
     0
 66
     1
 10
0
 20
0
 30
0.0
 40
0.992126
 41
0.992126
  0
VERTEX
  8
0
 10
2.90088
 20
17.9419
 30
0.0
 40
0.0137795
 41
0.0137795
  0
VERTEX
  8
0
 10
2.74337
 20
17.9419
 30
0.0
 40
0.0137795
 41
0.0137795
  0
SEQEND
 8
0
  0
POLYLINE
  8
0
 62
     0
 66
     1
 10
0
 20
0
 30
0.0
 40
0.992126
 41
0.992126
  0
VERTEX
  8
0
 10
2.90088
 20
17.5089
 30
0.0
 40
0.0137795
 41
0.0137795
  0
VERTEX
  8
0
 10
2.90088
 20
17.9419
 30
0.0
 40
0.0137795
 41
0.0137795
  0
SEQEND
 8
0
  0
POLYLINE
  8
0
 62
     0
 66
     1
 10
0
 20
0
 30
0.0
 40
0.992126
 41
0.992126
  0
VERTEX
  8
0
 10
3.05838
 20
17.5089
 30
0.0
 40
0.0137795
 41
0.0137795
  0
VERTEX
  8
0
 10
2.90088
 20
17.5089
 30
0.0
 40
0.0137795
 41
0.0137795
  0
SEQEND
 8
0
  0
POLYLINE
  8
0
 62
     0
 66
     1
 10
0
 20
0
 30
0.0
 40
0.992126
 41
0.992126
  0
VERTEX
  8
0
 10
3.05838
 20
17.9419
 30
0.0
 40
0.0137795
 41
0.0137795
  0
VERTEX
  8
0
 10
3.05838
 20
17.5089
 30
0.0
 40
0.0137795
 41
0.0137795
  0
SEQEND
 8
0
  0
POLYLINE
  8
0
 62
     0
 66
     1
 10
0
 20
0
 30
0.0
 40
0.992126
 41
0.992126
  0
VERTEX
  8
0
 10
3.21588
 20
17.9419
 30
0.0
 40
0.0137795
 41
0.0137795
  0
VERTEX
  8
0
 10
3.05838
 20
17.9419
 30
0.0
 40
0.0137795
 41
0.0137795
  0
SEQEND
 8
0
  0
POLYLINE
  8
0
 62
     0
 66
     1
 10
0
 20
0
 30
0.0
 40
0.992126
 41
0.992126
  0
VERTEX
  8
0
 10
3.68832
 20
17.9419
 30
0.0
 40
0.0137795
 41
0.0137795
  0
VERTEX
  8
0
 10
3.68832
 20
13.7688
 30
0.0
 40
0.0137795
 41
0.0137795
  0
SEQEND
 8
0
  0
POLYLINE
  8
0
 62
     0
 66
     1
 10
0
 20
0
 30
0.0
 40
0.992126
 41
0.992126
  0
VERTEX
  8
0
 10
3.68832
 20
13.7688
 30
0.0
 40
0.0137795
 41
0.0137795
  0
VERTEX
  8
0
 10
3.53082
 20
13.7688
 30
0.0
 40
0.0137795
 41
0.0137795
  0
SEQEND
 8
0
  0
POLYLINE
  8
0
 62
     0
 66
     1
 10
0
 20
0
 30
0.0
 40
0.992126
 41
0.992126
  0
VERTEX
  8
0
 10
3.53082
 20
13.7688
 30
0.0
 40
0.0137795
 41
0.0137795
  0
VERTEX
  8
0
 10
3.53082
 20
14.2018
 30
0.0
 40
0.0137795
 41
0.0137795
  0
SEQEND
 8
0
  0
POLYLINE
  8
0
 62
     0
 66
     1
 10
0
 20
0
 30
0.0
 40
0.992126
 41
0.992126
  0
VERTEX
  8
0
 10
3.53082
 20
14.2018
 30
0.0
 40
0.0137795
 41
0.0137795
  0
VERTEX
  8
0
 10
3.37332
 20
14.2018
 30
0.0
 40
0.0137795
 41
0.0137795
  0
SEQEND
 8
0
  0
POLYLINE
  8
0
 62
     0
 66
     1
 10
0
 20
0
 30
0.0
 40
0.992126
 41
0.992126
  0
VERTEX
  8
0
 10
3.37332
 20
14.2018
 30
0.0
 40
0.0137795
 41
0.0137795
  0
VERTEX
  8
0
 10
3.37332
 20
13.7688
 30
0.0
 40
0.0137795
 41
0.0137795
  0
SEQEND
 8
0
  0
POLYLINE
  8
0
 62
     0
 66
     1
 10
0
 20
0
 30
0.0
 40
0.992126
 41
0.992126
  0
VERTEX
  8
0
 10
3.37332
 20
13.7688
 30
0.0
 40
0.0137795
 41
0.0137795
  0
VERTEX
  8
0
 10
3.21588
 20
13.7688
 30
0.0
 40
0.0137795
 41
0.0137795
  0
SEQEND
 8
0
  0
POLYLINE
  8
0
 62
     0
 66
     1
 10
0
 20
0
 30
0.0
 40
0.992126
 41
0.992126
  0
VERTEX
  8
0
 10
3.21588
 20
13.7688
 30
0.0
 40
0.0137795
 41
0.0137795
  0
VERTEX
  8
0
 10
3.21588
 20
17.9419
 30
0.0
 40
0.0137795
 41
0.0137795
  0
SEQEND
 8
0
  0
POLYLINE
  8
0
 62
     0
 66
     1
 10
0
 20
0
 30
0.0
 40
0.992126
 41
0.992126
  0
VERTEX
  8
0
 10
3.37332
 20
17.9419
 30
0.0
 40
0.0137795
 41
0.0137795
  0
VERTEX
  8
0
 10
3.21588
 20
17.9419
 30
0.0
 40
0.0137795
 41
0.0137795
  0
SEQEND
 8
0
  0
POLYLINE
  8
0
 62
     0
 66
     1
 10
0
 20
0
 30
0.0
 40
0.992126
 41
0.992126
  0
VERTEX
  8
0
 10
3.37332
 20
17.5089
 30
0.0
 40
0.0137795
 41
0.0137795
  0
VERTEX
  8
0
 10
3.37332
 20
17.9419
 30
0.0
 40
0.0137795
 41
0.0137795
  0
SEQEND
 8
0
  0
POLYLINE
  8
0
 62
     0
 66
     1
 10
0
 20
0
 30
0.0
 40
0.992126
 41
0.992126
  0
VERTEX
  8
0
 10
3.53082
 20
17.5089
 30
0.0
 40
0.0137795
 41
0.0137795
  0
VERTEX
  8
0
 10
3.37332
 20
17.5089
 30
0.0
 40
0.0137795
 41
0.0137795
  0
SEQEND
 8
0
  0
POLYLINE
  8
0
 62
     0
 66
     1
 10
0
 20
0
 30
0.0
 40
0.992126
 41
0.992126
  0
VERTEX
  8
0
 10
3.53082
 20
17.9419
 30
0.0
 40
0.0137795
 41
0.0137795
  0
VERTEX
  8
0
 10
3.53082
 20
17.5089
 30
0.0
 40
0.0137795
 41
0.0137795
  0
SEQEND
 8
0
  0
POLYLINE
  8
0
 62
     0
 66
     1
 10
0
 20
0
 30
0.0
 40
0.992126
 41
0.992126
  0
VERTEX
  8
0
 10
3.68832
 20
17.9419
 30
0.0
 40
0.0137795
 41
0.0137795
  0
VERTEX
  8
0
 10
3.53082
 20
17.9419
 30
0.0
 40
0.0137795
 41
0.0137795
  0
SEQEND
 8
0
  0
POLYLINE
  8
0
 62
     0
 66
     1
 10
0
 20
0
 30
0.0
 40
0.992126
 41
0.992126
  0
VERTEX
  8
0
 10
4.16075
 20
17.9419
 30
0.0
 40
0.0137795
 41
0.0137795
  0
VERTEX
  8
0
 10
4.16075
 20
13.7688
 30
0.0
 40
0.0137795
 41
0.0137795
  0
SEQEND
 8
0
  0
POLYLINE
  8
0
 62
     0
 66
     1
 10
0
 20
0
 30
0.0
 40
0.992126
 41
0.992126
  0
VERTEX
  8
0
 10
4.16075
 20
13.7688
 30
0.0
 40
0.0137795
 41
0.0137795
  0
VERTEX
  8
0
 10
4.00325
 20
13.7688
 30
0.0
 40
0.0137795
 41
0.0137795
  0
SEQEND
 8
0
  0
POLYLINE
  8
0
 62
     0
 66
     1
 10
0
 20
0
 30
0.0
 40
0.992126
 41
0.992126
  0
VERTEX
  8
0
 10
4.00325
 20
13.7688
 30
0.0
 40
0.0137795
 41
0.0137795
  0
VERTEX
  8
0
 10
4.00325
 20
14.2018
 30
0.0
 40
0.0137795
 41
0.0137795
  0
SEQEND
 8
0
  0
POLYLINE
  8
0
 62
     0
 66
     1
 10
0
 20
0
 30
0.0
 40
0.992126
 41
0.992126
  0
VERTEX
  8
0
 10
4.00325
 20
14.2018
 30
0.0
 40
0.0137795
 41
0.0137795
  0
VERTEX
  8
0
 10
3.84576
 20
14.2018
 30
0.0
 40
0.0137795
 41
0.0137795
  0
SEQEND
 8
0
  0
POLYLINE
  8
0
 62
     0
 66
     1
 10
0
 20
0
 30
0.0
 40
0.992126
 41
0.992126
  0
VERTEX
  8
0
 10
3.84576
 20
14.2018
 30
0.0
 40
0.0137795
 41
0.0137795
  0
VERTEX
  8
0
 10
3.84576
 20
13.7688
 30
0.0
 40
0.0137795
 41
0.0137795
  0
SEQEND
 8
0
  0
POLYLINE
  8
0
 62
     0
 66
     1
 10
0
 20
0
 30
0.0
 40
0.992126
 41
0.992126
  0
VERTEX
  8
0
 10
3.84576
 20
13.7688
 30
0.0
 40
0.0137795
 41
0.0137795
  0
VERTEX
  8
0
 10
3.68832
 20
13.7688
 30
0.0
 40
0.0137795
 41
0.0137795
  0
SEQEND
 8
0
  0
POLYLINE
  8
0
 62
     0
 66
     1
 10
0
 20
0
 30
0.0
 40
0.992126
 41
0.992126
  0
VERTEX
  8
0
 10
3.68832
 20
13.7688
 30
0.0
 40
0.0137795
 41
0.0137795
  0
VERTEX
  8
0
 10
3.68832
 20
17.9419
 30
0.0
 40
0.0137795
 41
0.0137795
  0
SEQEND
 8
0
  0
POLYLINE
  8
0
 62
     0
 66
     1
 10
0
 20
0
 30
0.0
 40
0.992126
 41
0.992126
  0
VERTEX
  8
0
 10
3.84576
 20
17.9419
 30
0.0
 40
0.0137795
 41
0.0137795
  0
VERTEX
  8
0
 10
3.68832
 20
17.9419
 30
0.0
 40
0.0137795
 41
0.0137795
  0
SEQEND
 8
0
  0
POLYLINE
  8
0
 62
     0
 66
     1
 10
0
 20
0
 30
0.0
 40
0.992126
 41
0.992126
  0
VERTEX
  8
0
 10
3.84576
 20
17.5089
 30
0.0
 40
0.0137795
 41
0.0137795
  0
VERTEX
  8
0
 10
3.84576
 20
17.9419
 30
0.0
 40
0.0137795
 41
0.0137795
  0
SEQEND
 8
0
  0
POLYLINE
  8
0
 62
     0
 66
     1
 10
0
 20
0
 30
0.0
 40
0.992126
 41
0.992126
  0
VERTEX
  8
0
 10
4.00325
 20
17.5089
 30
0.0
 40
0.0137795
 41
0.0137795
  0
VERTEX
  8
0
 10
3.84576
 20
17.5089
 30
0.0
 40
0.0137795
 41
0.0137795
  0
SEQEND
 8
0
  0
POLYLINE
  8
0
 62
     0
 66
     1
 10
0
 20
0
 30
0.0
 40
0.992126
 41
0.992126
  0
VERTEX
  8
0
 10
4.00325
 20
17.9419
 30
0.0
 40
0.0137795
 41
0.0137795
  0
VERTEX
  8
0
 10
4.00325
 20
17.5089
 30
0.0
 40
0.0137795
 41
0.0137795
  0
SEQEND
 8
0
  0
POLYLINE
  8
0
 62
     0
 66
     1
 10
0
 20
0
 30
0.0
 40
0.992126
 41
0.992126
  0
VERTEX
  8
0
 10
4.16075
 20
17.9419
 30
0.0
 40
0.0137795
 41
0.0137795
  0
VERTEX
  8
0
 10
4.00325
 20
17.9419
 30
0.0
 40
0.0137795
 41
0.0137795
  0
SEQEND
 8
0
  0
POLYLINE
  8
0
 62
     0
 66
     1
 10
0
 20
0
 30
0.0
 40
0.992126
 41
0.992126
  0
VERTEX
  8
0
 10
6.9235
 20
16.3675
 30
0.0
 40
0.0137795
 41
0.0137795
  0
VERTEX
  8
0
 10
4.16764
 20
16.3675
 30
0.0
 40
0.0137795
 41
0.0137795
  0
SEQEND
 8
0
  0
POLYLINE
  8
0
 62
     0
 66
     1
 10
0
 20
0
 30
0.0
 40
0.992126
 41
0.992126
  0
VERTEX
  8
0
 10
4.16764
 20
16.3675
 30
0.0
 40
0.0137795
 41
0.0137795
  0
VERTEX
  8
0
 10
4.16764
 20
17.9424
 30
0.0
 40
0.0137795
 41
0.0137795
  0
SEQEND
 8
0
  0
POLYLINE
  8
0
 62
     0
 66
     1
 10
0
 20
0
 30
0.0
 40
0.992126
 41
0.992126
  0
VERTEX
  8
0
 10
4.16764
 20
17.9424
 30
0.0
 40
0.0137795
 41
0.0137795
  0
VERTEX
  8
0
 10
6.9235
 20
17.9424
 30
0.0
 40
0.0137795
 41
0.0137795
  0
SEQEND
 8
0
  0
POLYLINE
  8
0
 62
     0
 66
     1
 10
0
 20
0
 30
0.0
 40
0.992126
 41
0.992126
  0
VERTEX
  8
0
 10
6.9235
 20
17.9424
 30
0.0
 40
0.0137795
 41
0.0137795
  0
VERTEX
  8
0
 10
6.9235
 20
16.3675
 30
0.0
 40
0.0137795
 41
0.0137795
  0
SEQEND
 8
0
  0
POLYLINE
  8
0
 62
     0
 66
     1
 10
0
 20
0
 30
0.0
 40
0.992126
 41
0.992126
  0
VERTEX
  8
0
 10
6.9235
 20
14.7926
 30
0.0
 40
0.0137795
 41
0.0137795
  0
VERTEX
  8
0
 10
4.16764
 20
14.7926
 30
0.0
 40
0.0137795
 41
0.0137795
  0
SEQEND
 8
0
  0
POLYLINE
  8
0
 62
     0
 66
     1
 10
0
 20
0
 30
0.0
 40
0.992126
 41
0.992126
  0
VERTEX
  8
0
 10
4.16764
 20
14.7926
 30
0.0
 40
0.0137795
 41
0.0137795
  0
VERTEX
  8
0
 10
4.16764
 20
16.3675
 30
0.0
 40
0.0137795
 41
0.0137795
  0
SEQEND
 8
0
  0
POLYLINE
  8
0
 62
     0
 66
     1
 10
0
 20
0
 30
0.0
 40
0.992126
 41
0.992126
  0
VERTEX
  8
0
 10
4.16764
 20
16.3675
 30
0.0
 40
0.0137795
 41
0.0137795
  0
VERTEX
  8
0
 10
6.9235
 20
16.3675
 30
0.0
 40
0.0137795
 41
0.0137795
  0
SEQEND
 8
0
  0
POLYLINE
  8
0
 62
     0
 66
     1
 10
0
 20
0
 30
0.0
 40
0.992126
 41
0.992126
  0
VERTEX
  8
0
 10
6.9235
 20
16.3675
 30
0.0
 40
0.0137795
 41
0.0137795
  0
VERTEX
  8
0
 10
6.9235
 20
14.7926
 30
0.0
 40
0.0137795
 41
0.0137795
  0
SEQEND
 8
0
  0
POLYLINE
  8
0
 62
     0
 66
     1
 10
0
 20
0
 30
0.0
 40
0.992126
 41
0.992126
  0
VERTEX
  8
0
 10
9.67942
 20
16.3675
 30
0.0
 40
0.0137795
 41
0.0137795
  0
VERTEX
  8
0
 10
6.9235
 20
16.3675
 30
0.0
 40
0.0137795
 41
0.0137795
  0
SEQEND
 8
0
  0
POLYLINE
  8
0
 62
     0
 66
     1
 10
0
 20
0
 30
0.0
 40
0.992126
 41
0.992126
  0
VERTEX
  8
0
 10
6.9235
 20
16.3675
 30
0.0
 40
0.0137795
 41
0.0137795
  0
VERTEX
  8
0
 10
6.9235
 20
17.9424
 30
0.0
 40
0.0137795
 41
0.0137795
  0
SEQEND
 8
0
  0
POLYLINE
  8
0
 62
     0
 66
     1
 10
0
 20
0
 30
0.0
 40
0.992126
 41
0.992126
  0
VERTEX
  8
0
 10
6.9235
 20
17.9424
 30
0.0
 40
0.0137795
 41
0.0137795
  0
VERTEX
  8
0
 10
9.67942
 20
17.9424
 30
0.0
 40
0.0137795
 41
0.0137795
  0
SEQEND
 8
0
  0
POLYLINE
  8
0
 62
     0
 66
     1
 10
0
 20
0
 30
0.0
 40
0.992126
 41
0.992126
  0
VERTEX
  8
0
 10
9.67942
 20
17.9424
 30
0.0
 40
0.0137795
 41
0.0137795
  0
VERTEX
  8
0
 10
9.67942
 20
16.3675
 30
0.0
 40
0.0137795
 41
0.0137795
  0
SEQEND
 8
0
  0
POLYLINE
  8
0
 62
     0
 66
     1
 10
0
 20
0
 30
0.0
 40
0.992126
 41
0.992126
  0
VERTEX
  8
0
 10
9.67942
 20
14.7926
 30
0.0
 40
0.0137795
 41
0.0137795
  0
VERTEX
  8
0
 10
6.9235
 20
14.7926
 30
0.0
 40
0.0137795
 41
0.0137795
  0
SEQEND
 8
0
  0
POLYLINE
  8
0
 62
     0
 66
     1
 10
0
 20
0
 30
0.0
 40
0.992126
 41
0.992126
  0
VERTEX
  8
0
 10
6.9235
 20
14.7926
 30
0.0
 40
0.0137795
 41
0.0137795
  0
VERTEX
  8
0
 10
6.9235
 20
16.3675
 30
0.0
 40
0.0137795
 41
0.0137795
  0
SEQEND
 8
0
  0
POLYLINE
  8
0
 62
     0
 66
     1
 10
0
 20
0
 30
0.0
 40
0.992126
 41
0.992126
  0
VERTEX
  8
0
 10
6.9235
 20
16.3675
 30
0.0
 40
0.0137795
 41
0.0137795
  0
VERTEX
  8
0
 10
9.67942
 20
16.3675
 30
0.0
 40
0.0137795
 41
0.0137795
  0
SEQEND
 8
0
  0
POLYLINE
  8
0
 62
     0
 66
     1
 10
0
 20
0
 30
0.0
 40
0.992126
 41
0.992126
  0
VERTEX
  8
0
 10
9.67942
 20
16.3675
 30
0.0
 40
0.0137795
 41
0.0137795
  0
VERTEX
  8
0
 10
9.67942
 20
14.7926
 30
0.0
 40
0.0137795
 41
0.0137795
  0
SEQEND
 8
0
  0
POLYLINE
  8
0
 62
     0
 66
     1
 10
0
 20
0
 30
0.0
 40
0.992126
 41
0.992126
  0
VERTEX
  8
0
 10
6.9235
 20
13.2178
 30
0.0
 40
0.0137795
 41
0.0137795
  0
VERTEX
  8
0
 10
4.16764
 20
13.2178
 30
0.0
 40
0.0137795
 41
0.0137795
  0
SEQEND
 8
0
  0
POLYLINE
  8
0
 62
     0
 66
     1
 10
0
 20
0
 30
0.0
 40
0.992126
 41
0.992126
  0
VERTEX
  8
0
 10
4.16764
 20
13.2178
 30
0.0
 40
0.0137795
 41
0.0137795
  0
VERTEX
  8
0
 10
4.16764
 20
14.7926
 30
0.0
 40
0.0137795
 41
0.0137795
  0
SEQEND
 8
0
  0
POLYLINE
  8
0
 62
     0
 66
     1
 10
0
 20
0
 30
0.0
 40
0.992126
 41
0.992126
  0
VERTEX
  8
0
 10
4.16764
 20
14.7926
 30
0.0
 40
0.0137795
 41
0.0137795
  0
VERTEX
  8
0
 10
6.9235
 20
14.7926
 30
0.0
 40
0.0137795
 41
0.0137795
  0
SEQEND
 8
0
  0
POLYLINE
  8
0
 62
     0
 66
     1
 10
0
 20
0
 30
0.0
 40
0.992126
 41
0.992126
  0
VERTEX
  8
0
 10
6.9235
 20
14.7926
 30
0.0
 40
0.0137795
 41
0.0137795
  0
VERTEX
  8
0
 10
6.9235
 20
13.2178
 30
0.0
 40
0.0137795
 41
0.0137795
  0
SEQEND
 8
0
  0
POLYLINE
  8
0
 62
     0
 66
     1
 10
0
 20
0
 30
0.0
 40
0.992126
 41
0.992126
  0
VERTEX
  8
0
 10
9.67942
 20
13.2178
 30
0.0
 40
0.0137795
 41
0.0137795
  0
VERTEX
  8
0
 10
6.9235
 20
13.2178
 30
0.0
 40
0.0137795
 41
0.0137795
  0
SEQEND
 8
0
  0
POLYLINE
  8
0
 62
     0
 66
     1
 10
0
 20
0
 30
0.0
 40
0.992126
 41
0.992126
  0
VERTEX
  8
0
 10
6.9235
 20
13.2178
 30
0.0
 40
0.0137795
 41
0.0137795
  0
VERTEX
  8
0
 10
6.9235
 20
14.7926
 30
0.0
 40
0.0137795
 41
0.0137795
  0
SEQEND
 8
0
  0
POLYLINE
  8
0
 62
     0
 66
     1
 10
0
 20
0
 30
0.0
 40
0.992126
 41
0.992126
  0
VERTEX
  8
0
 10
6.9235
 20
14.7926
 30
0.0
 40
0.0137795
 41
0.0137795
  0
VERTEX
  8
0
 10
9.67942
 20
14.7926
 30
0.0
 40
0.0137795
 41
0.0137795
  0
SEQEND
 8
0
  0
POLYLINE
  8
0
 62
     0
 66
     1
 10
0
 20
0
 30
0.0
 40
0.992126
 41
0.992126
  0
VERTEX
  8
0
 10
9.67942
 20
14.7926
 30
0.0
 40
0.0137795
 41
0.0137795
  0
VERTEX
  8
0
 10
9.67942
 20
13.2178
 30
0.0
 40
0.0137795
 41
0.0137795
  0
SEQEND
 8
0
  0
POLYLINE
  8
0
 62
     0
 66
     1
 10
0
 20
0
 30
0.0
 40
0.992126
 41
0.992126
  0
VERTEX
  8
0
 10
12.4353
 20
16.3675
 30
0.0
 40
0.0137795
 41
0.0137795
  0
VERTEX
  8
0
 10
9.67942
 20
16.3675
 30
0.0
 40
0.0137795
 41
0.0137795
  0
SEQEND
 8
0
  0
POLYLINE
  8
0
 62
     0
 66
     1
 10
0
 20
0
 30
0.0
 40
0.992126
 41
0.992126
  0
VERTEX
  8
0
 10
9.67942
 20
16.3675
 30
0.0
 40
0.0137795
 41
0.0137795
  0
VERTEX
  8
0
 10
9.67942
 20
17.9424
 30
0.0
 40
0.0137795
 41
0.0137795
  0
SEQEND
 8
0
  0
POLYLINE
  8
0
 62
     0
 66
     1
 10
0
 20
0
 30
0.0
 40
0.992126
 41
0.992126
  0
VERTEX
  8
0
 10
9.67942
 20
17.9424
 30
0.0
 40
0.0137795
 41
0.0137795
  0
VERTEX
  8
0
 10
12.4353
 20
17.9424
 30
0.0
 40
0.0137795
 41
0.0137795
  0
SEQEND
 8
0
  0
POLYLINE
  8
0
 62
     0
 66
     1
 10
0
 20
0
 30
0.0
 40
0.992126
 41
0.992126
  0
VERTEX
  8
0
 10
12.4353
 20
17.9424
 30
0.0
 40
0.0137795
 41
0.0137795
  0
VERTEX
  8
0
 10
12.4353
 20
16.3675
 30
0.0
 40
0.0137795
 41
0.0137795
  0
SEQEND
 8
0
  0
POLYLINE
  8
0
 62
     0
 66
     1
 10
0
 20
0
 30
0.0
 40
0.992126
 41
0.992126
  0
VERTEX
  8
0
 10
12.4353
 20
14.7926
 30
0.0
 40
0.0137795
 41
0.0137795
  0
VERTEX
  8
0
 10
9.67942
 20
14.7926
 30
0.0
 40
0.0137795
 41
0.0137795
  0
SEQEND
 8
0
  0
POLYLINE
  8
0
 62
     0
 66
     1
 10
0
 20
0
 30
0.0
 40
0.992126
 41
0.992126
  0
VERTEX
  8
0
 10
9.67942
 20
14.7926
 30
0.0
 40
0.0137795
 41
0.0137795
  0
VERTEX
  8
0
 10
9.67942
 20
16.3675
 30
0.0
 40
0.0137795
 41
0.0137795
  0
SEQEND
 8
0
  0
POLYLINE
  8
0
 62
     0
 66
     1
 10
0
 20
0
 30
0.0
 40
0.992126
 41
0.992126
  0
VERTEX
  8
0
 10
9.67942
 20
16.3675
 30
0.0
 40
0.0137795
 41
0.0137795
  0
VERTEX
  8
0
 10
12.4353
 20
16.3675
 30
0.0
 40
0.0137795
 41
0.0137795
  0
SEQEND
 8
0
  0
POLYLINE
  8
0
 62
     0
 66
     1
 10
0
 20
0
 30
0.0
 40
0.992126
 41
0.992126
  0
VERTEX
  8
0
 10
12.4353
 20
16.3675
 30
0.0
 40
0.0137795
 41
0.0137795
  0
VERTEX
  8
0
 10
12.4353
 20
14.7926
 30
0.0
 40
0.0137795
 41
0.0137795
  0
SEQEND
 8
0
  0
POLYLINE
  8
0
 62
     0
 66
     1
 10
0
 20
0
 30
0.0
 40
0.992126
 41
0.992126
  0
VERTEX
  8
0
 10
12.4353
 20
13.2178
 30
0.0
 40
0.0137795
 41
0.0137795
  0
VERTEX
  8
0
 10
9.67942
 20
13.2178
 30
0.0
 40
0.0137795
 41
0.0137795
  0
SEQEND
 8
0
  0
POLYLINE
  8
0
 62
     0
 66
     1
 10
0
 20
0
 30
0.0
 40
0.992126
 41
0.992126
  0
VERTEX
  8
0
 10
9.67942
 20
13.2178
 30
0.0
 40
0.0137795
 41
0.0137795
  0
VERTEX
  8
0
 10
9.67942
 20
14.7926
 30
0.0
 40
0.0137795
 41
0.0137795
  0
SEQEND
 8
0
  0
POLYLINE
  8
0
 62
     0
 66
     1
 10
0
 20
0
 30
0.0
 40
0.992126
 41
0.992126
  0
VERTEX
  8
0
 10
9.67942
 20
14.7926
 30
0.0
 40
0.0137795
 41
0.0137795
  0
VERTEX
  8
0
 10
12.4353
 20
14.7926
 30
0.0
 40
0.0137795
 41
0.0137795
  0
SEQEND
 8
0
  0
POLYLINE
  8
0
 62
     0
 66
     1
 10
0
 20
0
 30
0.0
 40
0.992126
 41
0.992126
  0
VERTEX
  8
0
 10
12.4353
 20
14.7926
 30
0.0
 40
0.0137795
 41
0.0137795
  0
VERTEX
  8
0
 10
12.4353
 20
13.2178
 30
0.0
 40
0.0137795
 41
0.0137795
  0
SEQEND
 8
0
  0
POLYLINE
  8
0
 62
     0
 66
     1
 10
0
 20
0
 30
0.0
 40
0.992126
 41
0.992126
  0
VERTEX
  8
0
 10
4.65972
 20
17.7061
 30
0.0
 40
0.0137795
 41
0.0137795
  0
VERTEX
  8
0
 10
4.46289
 20
17.7061
 30
0.0
 40
0.0137795
 41
0.0137795
  0
SEQEND
 8
0
  0
POLYLINE
  8
0
 62
     0
 66
     1
 10
0
 20
0
 30
0.0
 70
     1
 40
0.992126
 41
0.992126
  0
VERTEX
  8
0
 10
5.38021
 20
17.1549
 30
0.0
 40
0.0137795
 41
0.0137795
  0
VERTEX
  8
0
 10
5.38021
 20
17.1387
 30
0.0
 40
0.0137795
 41
0.0137795
  0
VERTEX
  8
0
 10
5.39318
 20
17.0906
 30
0.0
 40
0.0137795
 41
0.0137795
  0
VERTEX
  8
0
 10
5.4286
 20
17.0379
 30
0.0
 40
0.0137795
 41
0.0137795
  0
VERTEX
  8
0
 10
5.48118
 20
17.0025
 30
0.0
 40
0.0137795
 41
0.0137795
  0
VERTEX
  8
0
 10
5.52946
 20
16.9894
 30
0.0
 40
0.0137795
 41
0.0137795
  0
VERTEX
  8
0
 10
5.54557
 20
16.9894
 30
0.0
 40
0.0137795
 41
0.0137795
  0
VERTEX
  8
0
 10
5.56164
 20
16.9894
 30
0.0
 40
0.0137795
 41
0.0137795
  0
VERTEX
  8
0
 10
5.60992
 20
17.0025
 30
0.0
 40
0.0137795
 41
0.0137795
  0
VERTEX
  8
0
 10
5.66249
 20
17.0379
 30
0.0
 40
0.0137795
 41
0.0137795
  0
VERTEX
  8
0
 10
5.69792
 20
17.0906
 30
0.0
 40
0.0137795
 41
0.0137795
  0
VERTEX
  8
0
 10
5.71094
 20
17.1387
 30
0.0
 40
0.0137795
 41
0.0137795
  0
VERTEX
  8
0
 10
5.71094
 20
17.1549
 30
0.0
 40
0.0137795
 41
0.0137795
  0
VERTEX
  8
0
 10
5.71094
 20
17.171
 30
0.0
 40
0.0137795
 41
0.0137795
  0
VERTEX
  8
0
 10
5.69792
 20
17.2193
 30
0.0
 40
0.0137795
 41
0.0137795
  0
VERTEX
  8
0
 10
5.66249
 20
17.2718
 30
0.0
 40
0.0137795
 41
0.0137795
  0
VERTEX
  8
0
 10
5.60992
 20
17.3074
 30
0.0
 40
0.0137795
 41
0.0137795
  0
VERTEX
  8
0
 10
5.56164
 20
17.3203
 30
0.0
 40
0.0137795
 41
0.0137795
  0
VERTEX
  8
0
 10
5.54557
 20
17.3203
 30
0.0
 40
0.0137795
 41
0.0137795
  0
VERTEX
  8
0
 10
5.52946
 20
17.3203
 30
0.0
 40
0.0137795
 41
0.0137795
  0
VERTEX
  8
0
 10
5.48118
 20
17.3074
 30
0.0
 40
0.0137795
 41
0.0137795
  0
VERTEX
  8
0
 10
5.4286
 20
17.2718
 30
0.0
 40
0.0137795
 41
0.0137795
  0
VERTEX
  8
0
 10
5.39318
 20
17.2193
 30
0.0
 40
0.0137795
 41
0.0137795
  0
VERTEX
  8
0
 10
5.38021
 20
17.171
 30
0.0
 40
0.0137795
 41
0.0137795
  0
VERTEX
  8
0
 10
5.38021
 20
17.1549
 30
0.0
 40
0.0137795
 41
0.0137795
  0
SEQEND
 8
0
  0
POLYLINE
  8
0
 62
     0
 66
     1
 10
0
 20
0
 30
0.0
 40
0.992126
 41
0.992126
  0
VERTEX
  8
0
 10
6.62825
 20
17.7847
 30
0.0
 40
0.0137795
 41
0.0137795
  0
VERTEX
  8
0
 10
6.62825
 20
17.7061
 30
0.0
 40
0.0137795
 41
0.0137795
  0
SEQEND
 8
0
  0
POLYLINE
  8
0
 62
     0
 66
     1
 10
0
 20
0
 30
0.0
 40
0.992126
 41
0.992126
  0
VERTEX
  8
0
 10
6.43143
 20
17.7847
 30
0.0
 40
0.0137795
 41
0.0137795
  0
VERTEX
  8
0
 10
6.62825
 20
17.7847
 30
0.0
 40
0.0137795
 41
0.0137795
  0
SEQEND
 8
0
  0
POLYLINE
  8
0
 62
     0
 66
     1
 10
0
 20
0
 30
0.0
 40
0.992126
 41
0.992126
  0
VERTEX
  8
0
 10
6.43143
 20
17.7061
 30
0.0
 40
0.0137795
 41
0.0137795
  0
VERTEX
  8
0
 10
6.43143
 20
17.7847
 30
0.0
 40
0.0137795
 41
0.0137795
  0
SEQEND
 8
0
  0
POLYLINE
  8
0
 62
     0
 66
     1
 10
0
 20
0
 30
0.0
 40
0.992126
 41
0.992126
  0
VERTEX
  8
0
 10
6.62825
 20
17.7061
 30
0.0
 40
0.0137795
 41
0.0137795
  0
VERTEX
  8
0
 10
6.43143
 20
17.7061
 30
0.0
 40
0.0137795
 41
0.0137795
  0
SEQEND
 8
0
  0
POLYLINE
  8
0
 62
     0
 66
     1
 10
0
 20
0
 30
0.0
 40
0.992126
 41
0.992126
  0
VERTEX
  8
0
 10
4.65972
 20
17.7847
 30
0.0
 40
0.0137795
 41
0.0137795
  0
VERTEX
  8
0
 10
4.65972
 20
17.7061
 30
0.0
 40
0.0137795
 41
0.0137795
  0
SEQEND
 8
0
  0
POLYLINE
  8
0
 62
     0
 66
     1
 10
0
 20
0
 30
0.0
 40
0.992126
 41
0.992126
  0
VERTEX
  8
0
 10
4.46289
 20
17.7847
 30
0.0
 40
0.0137795
 41
0.0137795
  0
VERTEX
  8
0
 10
4.65972
 20
17.7847
 30
0.0
 40
0.0137795
 41
0.0137795
  0
SEQEND
 8
0
  0
POLYLINE
  8
0
 62
     0
 66
     1
 10
0
 20
0
 30
0.0
 40
0.992126
 41
0.992126
  0
VERTEX
  8
0
 10
4.46289
 20
17.7061
 30
0.0
 40
0.0137795
 41
0.0137795
  0
VERTEX
  8
0
 10
4.46289
 20
17.7847
 30
0.0
 40
0.0137795
 41
0.0137795
  0
SEQEND
 8
0
  0
POLYLINE
  8
0
 62
     0
 66
     1
 10
0
 20
0
 30
0.0
 40
0.992126
 41
0.992126
  0
VERTEX
  8
0
 10
4.65972
 20
16.6036
 30
0.0
 40
0.0137795
 41
0.0137795
  0
VERTEX
  8
0
 10
4.65972
 20
16.5249
 30
0.0
 40
0.0137795
 41
0.0137795
  0
SEQEND
 8
0
  0
POLYLINE
  8
0
 62
     0
 66
     1
 10
0
 20
0
 30
0.0
 40
0.992126
 41
0.992126
  0
VERTEX
  8
0
 10
4.46289
 20
16.6036
 30
0.0
 40
0.0137795
 41
0.0137795
  0
VERTEX
  8
0
 10
4.65972
 20
16.6036
 30
0.0
 40
0.0137795
 41
0.0137795
  0
SEQEND
 8
0
  0
POLYLINE
  8
0
 62
     0
 66
     1
 10
0
 20
0
 30
0.0
 40
0.992126
 41
0.992126
  0
VERTEX
  8
0
 10
4.46289
 20
16.5249
 30
0.0
 40
0.0137795
 41
0.0137795
  0
VERTEX
  8
0
 10
4.46289
 20
16.6036
 30
0.0
 40
0.0137795
 41
0.0137795
  0
SEQEND
 8
0
  0
POLYLINE
  8
0
 62
     0
 66
     1
 10
0
 20
0
 30
0.0
 40
0.992126
 41
0.992126
  0
VERTEX
  8
0
 10
4.65972
 20
16.5249
 30
0.0
 40
0.0137795
 41
0.0137795
  0
VERTEX
  8
0
 10
4.46289
 20
16.5249
 30
0.0
 40
0.0137795
 41
0.0137795
  0
SEQEND
 8
0
  0
POLYLINE
  8
0
 62
     0
 66
     1
 10
0
 20
0
 30
0.0
 40
0.992126
 41
0.992126
  0
VERTEX
  8
0
 10
6.62825
 20
16.6036
 30
0.0
 40
0.0137795
 41
0.0137795
  0
VERTEX
  8
0
 10
6.62825
 20
16.5249
 30
0.0
 40
0.0137795
 41
0.0137795
  0
SEQEND
 8
0
  0
POLYLINE
  8
0
 62
     0
 66
     1
 10
0
 20
0
 30
0.0
 40
0.992126
 41
0.992126
  0
VERTEX
  8
0
 10
6.43143
 20
16.6036
 30
0.0
 40
0.0137795
 41
0.0137795
  0
VERTEX
  8
0
 10
6.62825
 20
16.6036
 30
0.0
 40
0.0137795
 41
0.0137795
  0
SEQEND
 8
0
  0
POLYLINE
  8
0
 62
     0
 66
     1
 10
0
 20
0
 30
0.0
 40
0.992126
 41
0.992126
  0
VERTEX
  8
0
 10
6.43143
 20
16.5249
 30
0.0
 40
0.0137795
 41
0.0137795
  0
VERTEX
  8
0
 10
6.43143
 20
16.6036
 30
0.0
 40
0.0137795
 41
0.0137795
  0
SEQEND
 8
0
  0
POLYLINE
  8
0
 62
     0
 66
     1
 10
0
 20
0
 30
0.0
 40
0.992126
 41
0.992126
  0
VERTEX
  8
0
 10
6.62825
 20
16.5249
 30
0.0
 40
0.0137795
 41
0.0137795
  0
VERTEX
  8
0
 10
6.43143
 20
16.5249
 30
0.0
 40
0.0137795
 41
0.0137795
  0
SEQEND
 8
0
  0
POLYLINE
  8
0
 62
     0
 66
     1
 10
0
 20
0
 30
0.0
 40
0.992126
 41
0.992126
  0
VERTEX
  8
0
 10
4.48258
 20
17.1549
 30
0.0
 40
0.0137795
 41
0.0137795
  0
VERTEX
  8
0
 10
4.48258
 20
17.0367
 30
0.0
 40
0.0137795
 41
0.0137795
  0
SEQEND
 8
0
  0
POLYLINE
  8
0
 62
     0
 66
     1
 10
0
 20
0
 30
0.0
 40
0.992126
 41
0.992126
  0
VERTEX
  8
0
 10
4.32508
 20
17.1549
 30
0.0
 40
0.0137795
 41
0.0137795
  0
VERTEX
  8
0
 10
4.48258
 20
17.1549
 30
0.0
 40
0.0137795
 41
0.0137795
  0
SEQEND
 8
0
  0
POLYLINE
  8
0
 62
     0
 66
     1
 10
0
 20
0
 30
0.0
 40
0.992126
 41
0.992126
  0
VERTEX
  8
0
 10
4.32508
 20
17.0367
 30
0.0
 40
0.0137795
 41
0.0137795
  0
VERTEX
  8
0
 10
4.32508
 20
17.1549
 30
0.0
 40
0.0137795
 41
0.0137795
  0
SEQEND
 8
0
  0
POLYLINE
  8
0
 62
     0
 66
     1
 10
0
 20
0
 30
0.0
 40
0.992126
 41
0.992126
  0
VERTEX
  8
0
 10
4.48258
 20
17.0367
 30
0.0
 40
0.0137795
 41
0.0137795
  0
VERTEX
  8
0
 10
4.32508
 20
17.0367
 30
0.0
 40
0.0137795
 41
0.0137795
  0
SEQEND
 8
0
  0
POLYLINE
  8
0
 62
     0
 66
     1
 10
0
 20
0
 30
0.0
 40
0.992126
 41
0.992126
  0
VERTEX
  8
0
 10
4.79753
 20
17.1549
 30
0.0
 40
0.0137795
 41
0.0137795
  0
VERTEX
  8
0
 10
4.79753
 20
17.0367
 30
0.0
 40
0.0137795
 41
0.0137795
  0
SEQEND
 8
0
  0
POLYLINE
  8
0
 62
     0
 66
     1
 10
0
 20
0
 30
0.0
 40
0.992126
 41
0.992126
  0
VERTEX
  8
0
 10
4.64008
 20
17.1549
 30
0.0
 40
0.0137795
 41
0.0137795
  0
VERTEX
  8
0
 10
4.79753
 20
17.1549
 30
0.0
 40
0.0137795
 41
0.0137795
  0
SEQEND
 8
0
  0
POLYLINE
  8
0
 62
     0
 66
     1
 10
0
 20
0
 30
0.0
 40
0.992126
 41
0.992126
  0
VERTEX
  8
0
 10
4.64008
 20
17.0367
 30
0.0
 40
0.0137795
 41
0.0137795
  0
VERTEX
  8
0
 10
4.64008
 20
17.1549
 30
0.0
 40
0.0137795
 41
0.0137795
  0
SEQEND
 8
0
  0
POLYLINE
  8
0
 62
     0
 66
     1
 10
0
 20
0
 30
0.0
 40
0.992126
 41
0.992126
  0
VERTEX
  8
0
 10
4.79753
 20
17.0367
 30
0.0
 40
0.0137795
 41
0.0137795
  0
VERTEX
  8
0
 10
4.64008
 20
17.0367
 30
0.0
 40
0.0137795
 41
0.0137795
  0
SEQEND
 8
0
  0
POLYLINE
  8
0
 62
     0
 66
     1
 10
0
 20
0
 30
0.0
 40
0.992126
 41
0.992126
  0
VERTEX
  8
0
 10
6.45107
 20
17.2729
 30
0.0
 40
0.0137795
 41
0.0137795
  0
VERTEX
  8
0
 10
6.45107
 20
17.1549
 30
0.0
 40
0.0137795
 41
0.0137795
  0
SEQEND
 8
0
  0
POLYLINE
  8
0
 62
     0
 66
     1
 10
0
 20
0
 30
0.0
 40
0.992126
 41
0.992126
  0
VERTEX
  8
0
 10
6.29362
 20
17.2729
 30
0.0
 40
0.0137795
 41
0.0137795
  0
VERTEX
  8
0
 10
6.45107
 20
17.2729
 30
0.0
 40
0.0137795
 41
0.0137795
  0
SEQEND
 8
0
  0
POLYLINE
  8
0
 62
     0
 66
     1
 10
0
 20
0
 30
0.0
 40
0.992126
 41
0.992126
  0
VERTEX
  8
0
 10
6.29362
 20
17.1549
 30
0.0
 40
0.0137795
 41
0.0137795
  0
VERTEX
  8
0
 10
6.29362
 20
17.2729
 30
0.0
 40
0.0137795
 41
0.0137795
  0
SEQEND
 8
0
  0
POLYLINE
  8
0
 62
     0
 66
     1
 10
0
 20
0
 30
0.0
 40
0.992126
 41
0.992126
  0
VERTEX
  8
0
 10
6.45107
 20
17.1549
 30
0.0
 40
0.0137795
 41
0.0137795
  0
VERTEX
  8
0
 10
6.29362
 20
17.1549
 30
0.0
 40
0.0137795
 41
0.0137795
  0
SEQEND
 8
0
  0
POLYLINE
  8
0
 62
     0
 66
     1
 10
0
 20
0
 30
0.0
 40
0.992126
 41
0.992126
  0
VERTEX
  8
0
 10
6.76606
 20
17.2729
 30
0.0
 40
0.0137795
 41
0.0137795
  0
VERTEX
  8
0
 10
6.76606
 20
17.1549
 30
0.0
 40
0.0137795
 41
0.0137795
  0
SEQEND
 8
0
  0
POLYLINE
  8
0
 62
     0
 66
     1
 10
0
 20
0
 30
0.0
 40
0.992126
 41
0.992126
  0
VERTEX
  8
0
 10
6.60856
 20
17.2729
 30
0.0
 40
0.0137795
 41
0.0137795
  0
VERTEX
  8
0
 10
6.76606
 20
17.2729
 30
0.0
 40
0.0137795
 41
0.0137795
  0
SEQEND
 8
0
  0
POLYLINE
  8
0
 62
     0
 66
     1
 10
0
 20
0
 30
0.0
 40
0.992126
 41
0.992126
  0
VERTEX
  8
0
 10
6.60856
 20
17.1549
 30
0.0
 40
0.0137795
 41
0.0137795
  0
VERTEX
  8
0
 10
6.60856
 20
17.2729
 30
0.0
 40
0.0137795
 41
0.0137795
  0
SEQEND
 8
0
  0
POLYLINE
  8
0
 62
     0
 66
     1
 10
0
 20
0
 30
0.0
 40
0.992126
 41
0.992126
  0
VERTEX
  8
0
 10
6.76606
 20
17.1549
 30
0.0
 40
0.0137795
 41
0.0137795
  0
VERTEX
  8
0
 10
6.60856
 20
17.1549
 30
0.0
 40
0.0137795
 41
0.0137795
  0
SEQEND
 8
0
  0
POLYLINE
  8
0
 62
     0
 66
     1
 10
0
 20
0
 30
0.0
 40
0.992126
 41
0.992126
  0
VERTEX
  8
0
 10
1.93631
 20
17.3908
 30
0.0
 40
0.0137795
 41
0.0137795
  0
VERTEX
  8
0
 10
2.13319
 20
17.3908
 30
0.0
 40
0.0137795
 41
0.0137795
  0
SEQEND
 8
0
  0
POLYLINE
  8
0
 62
     0
 66
     1
 10
0
 20
0
 30
0.0
 40
0.992126
 41
0.992126
  0
VERTEX
  8
0
 10
1.93631
 20
17.3121
 30
0.0
 40
0.0137795
 41
0.0137795
  0
VERTEX
  8
0
 10
1.93631
 20
17.3908
 30
0.0
 40
0.0137795
 41
0.0137795
  0
SEQEND
 8
0
  0
POLYLINE
  8
0
 62
     0
 66
     1
 10
0
 20
0
 30
0.0
 40
0.992126
 41
0.992126
  0
VERTEX
  8
0
 10
2.13319
 20
17.3121
 30
0.0
 40
0.0137795
 41
0.0137795
  0
VERTEX
  8
0
 10
1.93631
 20
17.3121
 30
0.0
 40
0.0137795
 41
0.0137795
  0
SEQEND
 8
0
  0
POLYLINE
  8
0
 62
     0
 66
     1
 10
0
 20
0
 30
0.0
 40
0.992126
 41
0.992126
  0
VERTEX
  8
0
 10
2.13319
 20
17.3908
 30
0.0
 40
0.0137795
 41
0.0137795
  0
VERTEX
  8
0
 10
2.13319
 20
17.3121
 30
0.0
 40
0.0137795
 41
0.0137795
  0
SEQEND
 8
0
  0
POLYLINE
  8
0
 62
     0
 66
     1
 10
0
 20
0
 30
0.0
 40
0.992126
 41
0.992126
  0
VERTEX
  8
0
 10
2.40875
 20
17.3908
 30
0.0
 40
0.0137795
 41
0.0137795
  0
VERTEX
  8
0
 10
2.60562
 20
17.3908
 30
0.0
 40
0.0137795
 41
0.0137795
  0
SEQEND
 8
0
  0
POLYLINE
  8
0
 62
     0
 66
     1
 10
0
 20
0
 30
0.0
 40
0.992126
 41
0.992126
  0
VERTEX
  8
0
 10
2.40875
 20
17.3121
 30
0.0
 40
0.0137795
 41
0.0137795
  0
VERTEX
  8
0
 10
2.40875
 20
17.3908
 30
0.0
 40
0.0137795
 41
0.0137795
  0
SEQEND
 8
0
  0
POLYLINE
  8
0
 62
     0
 66
     1
 10
0
 20
0
 30
0.0
 40
0.992126
 41
0.992126
  0
VERTEX
  8
0
 10
2.60562
 20
17.3121
 30
0.0
 40
0.0137795
 41
0.0137795
  0
VERTEX
  8
0
 10
2.40875
 20
17.3121
 30
0.0
 40
0.0137795
 41
0.0137795
  0
SEQEND
 8
0
  0
POLYLINE
  8
0
 62
     0
 66
     1
 10
0
 20
0
 30
0.0
 40
0.992126
 41
0.992126
  0
VERTEX
  8
0
 10
2.60562
 20
17.3908
 30
0.0
 40
0.0137795
 41
0.0137795
  0
VERTEX
  8
0
 10
2.60562
 20
17.3121
 30
0.0
 40
0.0137795
 41
0.0137795
  0
SEQEND
 8
0
  0
POLYLINE
  8
0
 62
     0
 66
     1
 10
0
 20
0
 30
0.0
 40
0.992126
 41
0.992126
  0
VERTEX
  8
0
 10
2.88118
 20
17.3908
 30
0.0
 40
0.0137795
 41
0.0137795
  0
VERTEX
  8
0
 10
3.07807
 20
17.3908
 30
0.0
 40
0.0137795
 41
0.0137795
  0
SEQEND
 8
0
  0
POLYLINE
  8
0
 62
     0
 66
     1
 10
0
 20
0
 30
0.0
 40
0.992126
 41
0.992126
  0
VERTEX
  8
0
 10
2.88118
 20
17.3121
 30
0.0
 40
0.0137795
 41
0.0137795
  0
VERTEX
  8
0
 10
2.88118
 20
17.3908
 30
0.0
 40
0.0137795
 41
0.0137795
  0
SEQEND
 8
0
  0
POLYLINE
  8
0
 62
     0
 66
     1
 10
0
 20
0
 30
0.0
 40
0.992126
 41
0.992126
  0
VERTEX
  8
0
 10
3.07807
 20
17.3121
 30
0.0
 40
0.0137795
 41
0.0137795
  0
VERTEX
  8
0
 10
2.88118
 20
17.3121
 30
0.0
 40
0.0137795
 41
0.0137795
  0
SEQEND
 8
0
  0
POLYLINE
  8
0
 62
     0
 66
     1
 10
0
 20
0
 30
0.0
 40
0.992126
 41
0.992126
  0
VERTEX
  8
0
 10
3.07807
 20
17.3908
 30
0.0
 40
0.0137795
 41
0.0137795
  0
VERTEX
  8
0
 10
3.07807
 20
17.3121
 30
0.0
 40
0.0137795
 41
0.0137795
  0
SEQEND
 8
0
  0
POLYLINE
  8
0
 62
     0
 66
     1
 10
0
 20
0
 30
0.0
 40
0.992126
 41
0.992126
  0
VERTEX
  8
0
 10
3.35363
 20
17.3908
 30
0.0
 40
0.0137795
 41
0.0137795
  0
VERTEX
  8
0
 10
3.55051
 20
17.3908
 30
0.0
 40
0.0137795
 41
0.0137795
  0
SEQEND
 8
0
  0
POLYLINE
  8
0
 62
     0
 66
     1
 10
0
 20
0
 30
0.0
 40
0.992126
 41
0.992126
  0
VERTEX
  8
0
 10
3.35363
 20
17.3121
 30
0.0
 40
0.0137795
 41
0.0137795
  0
VERTEX
  8
0
 10
3.35363
 20
17.3908
 30
0.0
 40
0.0137795
 41
0.0137795
  0
SEQEND
 8
0
  0
POLYLINE
  8
0
 62
     0
 66
     1
 10
0
 20
0
 30
0.0
 40
0.992126
 41
0.992126
  0
VERTEX
  8
0
 10
3.55051
 20
17.3121
 30
0.0
 40
0.0137795
 41
0.0137795
  0
VERTEX
  8
0
 10
3.35363
 20
17.3121
 30
0.0
 40
0.0137795
 41
0.0137795
  0
SEQEND
 8
0
  0
POLYLINE
  8
0
 62
     0
 66
     1
 10
0
 20
0
 30
0.0
 40
0.992126
 41
0.992126
  0
VERTEX
  8
0
 10
3.55051
 20
17.3908
 30
0.0
 40
0.0137795
 41
0.0137795
  0
VERTEX
  8
0
 10
3.55051
 20
17.3121
 30
0.0
 40
0.0137795
 41
0.0137795
  0
SEQEND
 8
0
  0
POLYLINE
  8
0
 62
     0
 66
     1
 10
0
 20
0
 30
0.0
 40
0.992126
 41
0.992126
  0
VERTEX
  8
0
 10
3.82607
 20
17.3908
 30
0.0
 40
0.0137795
 41
0.0137795
  0
VERTEX
  8
0
 10
4.02294
 20
17.3908
 30
0.0
 40
0.0137795
 41
0.0137795
  0
SEQEND
 8
0
  0
POLYLINE
  8
0
 62
     0
 66
     1
 10
0
 20
0
 30
0.0
 40
0.992126
 41
0.992126
  0
VERTEX
  8
0
 10
3.82607
 20
17.3121
 30
0.0
 40
0.0137795
 41
0.0137795
  0
VERTEX
  8
0
 10
3.82607
 20
17.3908
 30
0.0
 40
0.0137795
 41
0.0137795
  0
SEQEND
 8
0
  0
POLYLINE
  8
0
 62
     0
 66
     1
 10
0
 20
0
 30
0.0
 40
0.992126
 41
0.992126
  0
VERTEX
  8
0
 10
4.02294
 20
17.3121
 30
0.0
 40
0.0137795
 41
0.0137795
  0
VERTEX
  8
0
 10
3.82607
 20
17.3121
 30
0.0
 40
0.0137795
 41
0.0137795
  0
SEQEND
 8
0
  0
POLYLINE
  8
0
 62
     0
 66
     1
 10
0
 20
0
 30
0.0
 40
0.992126
 41
0.992126
  0
VERTEX
  8
0
 10
4.02294
 20
17.3908
 30
0.0
 40
0.0137795
 41
0.0137795
  0
VERTEX
  8
0
 10
4.02294
 20
17.3121
 30
0.0
 40
0.0137795
 41
0.0137795
  0
SEQEND
 8
0
  0
POLYLINE
  8
0
 62
     0
 66
     1
 10
0
 20
0
 30
0.0
 40
0.992126
 41
0.992126
  0
VERTEX
  8
0
 10
1.93631
 20
14.3986
 30
0.0
 40
0.0137795
 41
0.0137795
  0
VERTEX
  8
0
 10
2.13319
 20
14.3986
 30
0.0
 40
0.0137795
 41
0.0137795
  0
SEQEND
 8
0
  0
POLYLINE
  8
0
 62
     0
 66
     1
 10
0
 20
0
 30
0.0
 40
0.992126
 41
0.992126
  0
VERTEX
  8
0
 10
1.93631
 20
14.32
 30
0.0
 40
0.0137795
 41
0.0137795
  0
VERTEX
  8
0
 10
1.93631
 20
14.3986
 30
0.0
 40
0.0137795
 41
0.0137795
  0
SEQEND
 8
0
  0
POLYLINE
  8
0
 62
     0
 66
     1
 10
0
 20
0
 30
0.0
 40
0.992126
 41
0.992126
  0
VERTEX
  8
0
 10
2.13319
 20
14.32
 30
0.0
 40
0.0137795
 41
0.0137795
  0
VERTEX
  8
0
 10
1.93631
 20
14.32
 30
0.0
 40
0.0137795
 41
0.0137795
  0
SEQEND
 8
0
  0
POLYLINE
  8
0
 62
     0
 66
     1
 10
0
 20
0
 30
0.0
 40
0.992126
 41
0.992126
  0
VERTEX
  8
0
 10
2.13319
 20
14.3986
 30
0.0
 40
0.0137795
 41
0.0137795
  0
VERTEX
  8
0
 10
2.13319
 20
14.32
 30
0.0
 40
0.0137795
 41
0.0137795
  0
SEQEND
 8
0
  0
POLYLINE
  8
0
 62
     0
 66
     1
 10
0
 20
0
 30
0.0
 40
0.992126
 41
0.992126
  0
VERTEX
  8
0
 10
2.40875
 20
14.3986
 30
0.0
 40
0.0137795
 41
0.0137795
  0
VERTEX
  8
0
 10
2.60562
 20
14.3986
 30
0.0
 40
0.0137795
 41
0.0137795
  0
SEQEND
 8
0
  0
POLYLINE
  8
0
 62
     0
 66
     1
 10
0
 20
0
 30
0.0
 40
0.992126
 41
0.992126
  0
VERTEX
  8
0
 10
2.40875
 20
14.32
 30
0.0
 40
0.0137795
 41
0.0137795
  0
VERTEX
  8
0
 10
2.40875
 20
14.3986
 30
0.0
 40
0.0137795
 41
0.0137795
  0
SEQEND
 8
0
  0
POLYLINE
  8
0
 62
     0
 66
     1
 10
0
 20
0
 30
0.0
 40
0.992126
 41
0.992126
  0
VERTEX
  8
0
 10
2.60562
 20
14.32
 30
0.0
 40
0.0137795
 41
0.0137795
  0
VERTEX
  8
0
 10
2.40875
 20
14.32
 30
0.0
 40
0.0137795
 41
0.0137795
  0
SEQEND
 8
0
  0
POLYLINE
  8
0
 62
     0
 66
     1
 10
0
 20
0
 30
0.0
 40
0.992126
 41
0.992126
  0
VERTEX
  8
0
 10
2.60562
 20
14.3986
 30
0.0
 40
0.0137795
 41
0.0137795
  0
VERTEX
  8
0
 10
2.60562
 20
14.32
 30
0.0
 40
0.0137795
 41
0.0137795
  0
SEQEND
 8
0
  0
POLYLINE
  8
0
 62
     0
 66
     1
 10
0
 20
0
 30
0.0
 40
0.992126
 41
0.992126
  0
VERTEX
  8
0
 10
2.88118
 20
14.3986
 30
0.0
 40
0.0137795
 41
0.0137795
  0
VERTEX
  8
0
 10
3.07807
 20
14.3986
 30
0.0
 40
0.0137795
 41
0.0137795
  0
SEQEND
 8
0
  0
POLYLINE
  8
0
 62
     0
 66
     1
 10
0
 20
0
 30
0.0
 40
0.992126
 41
0.992126
  0
VERTEX
  8
0
 10
2.88118
 20
14.32
 30
0.0
 40
0.0137795
 41
0.0137795
  0
VERTEX
  8
0
 10
2.88118
 20
14.3986
 30
0.0
 40
0.0137795
 41
0.0137795
  0
SEQEND
 8
0
  0
POLYLINE
  8
0
 62
     0
 66
     1
 10
0
 20
0
 30
0.0
 40
0.992126
 41
0.992126
  0
VERTEX
  8
0
 10
3.07807
 20
14.32
 30
0.0
 40
0.0137795
 41
0.0137795
  0
VERTEX
  8
0
 10
2.88118
 20
14.32
 30
0.0
 40
0.0137795
 41
0.0137795
  0
SEQEND
 8
0
  0
POLYLINE
  8
0
 62
     0
 66
     1
 10
0
 20
0
 30
0.0
 40
0.992126
 41
0.992126
  0
VERTEX
  8
0
 10
3.07807
 20
14.3986
 30
0.0
 40
0.0137795
 41
0.0137795
  0
VERTEX
  8
0
 10
3.07807
 20
14.32
 30
0.0
 40
0.0137795
 41
0.0137795
  0
SEQEND
 8
0
  0
POLYLINE
  8
0
 62
     0
 66
     1
 10
0
 20
0
 30
0.0
 40
0.992126
 41
0.992126
  0
VERTEX
  8
0
 10
3.35363
 20
14.3986
 30
0.0
 40
0.0137795
 41
0.0137795
  0
VERTEX
  8
0
 10
3.55051
 20
14.3986
 30
0.0
 40
0.0137795
 41
0.0137795
  0
SEQEND
 8
0
  0
POLYLINE
  8
0
 62
     0
 66
     1
 10
0
 20
0
 30
0.0
 40
0.992126
 41
0.992126
  0
VERTEX
  8
0
 10
3.35363
 20
14.32
 30
0.0
 40
0.0137795
 41
0.0137795
  0
VERTEX
  8
0
 10
3.35363
 20
14.3986
 30
0.0
 40
0.0137795
 41
0.0137795
  0
SEQEND
 8
0
  0
POLYLINE
  8
0
 62
     0
 66
     1
 10
0
 20
0
 30
0.0
 40
0.992126
 41
0.992126
  0
VERTEX
  8
0
 10
3.55051
 20
14.32
 30
0.0
 40
0.0137795
 41
0.0137795
  0
VERTEX
  8
0
 10
3.35363
 20
14.32
 30
0.0
 40
0.0137795
 41
0.0137795
  0
SEQEND
 8
0
  0
POLYLINE
  8
0
 62
     0
 66
     1
 10
0
 20
0
 30
0.0
 40
0.992126
 41
0.992126
  0
VERTEX
  8
0
 10
3.55051
 20
14.3986
 30
0.0
 40
0.0137795
 41
0.0137795
  0
VERTEX
  8
0
 10
3.55051
 20
14.32
 30
0.0
 40
0.0137795
 41
0.0137795
  0
SEQEND
 8
0
  0
POLYLINE
  8
0
 62
     0
 66
     1
 10
0
 20
0
 30
0.0
 40
0.992126
 41
0.992126
  0
VERTEX
  8
0
 10
3.82607
 20
14.3986
 30
0.0
 40
0.0137795
 41
0.0137795
  0
VERTEX
  8
0
 10
4.02294
 20
14.3986
 30
0.0
 40
0.0137795
 41
0.0137795
  0
SEQEND
 8
0
  0
POLYLINE
  8
0
 62
     0
 66
     1
 10
0
 20
0
 30
0.0
 40
0.992126
 41
0.992126
  0
VERTEX
  8
0
 10
3.82607
 20
14.32
 30
0.0
 40
0.0137795
 41
0.0137795
  0
VERTEX
  8
0
 10
3.82607
 20
14.3986
 30
0.0
 40
0.0137795
 41
0.0137795
  0
SEQEND
 8
0
  0
POLYLINE
  8
0
 62
     0
 66
     1
 10
0
 20
0
 30
0.0
 40
0.992126
 41
0.992126
  0
VERTEX
  8
0
 10
4.02294
 20
14.32
 30
0.0
 40
0.0137795
 41
0.0137795
  0
VERTEX
  8
0
 10
3.82607
 20
14.32
 30
0.0
 40
0.0137795
 41
0.0137795
  0
SEQEND
 8
0
  0
POLYLINE
  8
0
 62
     0
 66
     1
 10
0
 20
0
 30
0.0
 40
0.992126
 41
0.992126
  0
VERTEX
  8
0
 10
4.02294
 20
14.3986
 30
0.0
 40
0.0137795
 41
0.0137795
  0
VERTEX
  8
0
 10
4.02294
 20
14.32
 30
0.0
 40
0.0137795
 41
0.0137795
  0
SEQEND
 8
0
  0
POLYLINE
  8
0
 62
     0
 66
     1
 10
0
 20
0
 30
0.0
 70
     1
 40
0.992126
 41
0.992126
  0
VERTEX
  8
0
 10
5.38021
 20
15.5801
 30
0.0
 40
0.0137795
 41
0.0137795
  0
VERTEX
  8
0
 10
5.38021
 20
15.564
 30
0.0
 40
0.0137795
 41
0.0137795
  0
VERTEX
  8
0
 10
5.39318
 20
15.5157
 30
0.0
 40
0.0137795
 41
0.0137795
  0
VERTEX
  8
0
 10
5.4286
 20
15.4632
 30
0.0
 40
0.0137795
 41
0.0137795
  0
VERTEX
  8
0
 10
5.48118
 20
15.4278
 30
0.0
 40
0.0137795
 41
0.0137795
  0
VERTEX
  8
0
 10
5.52946
 20
15.4147
 30
0.0
 40
0.0137795
 41
0.0137795
  0
VERTEX
  8
0
 10
5.54557
 20
15.4147
 30
0.0
 40
0.0137795
 41
0.0137795
  0
VERTEX
  8
0
 10
5.56164
 20
15.4147
 30
0.0
 40
0.0137795
 41
0.0137795
  0
VERTEX
  8
0
 10
5.60992
 20
15.4278
 30
0.0
 40
0.0137795
 41
0.0137795
  0
VERTEX
  8
0
 10
5.66249
 20
15.4632
 30
0.0
 40
0.0137795
 41
0.0137795
  0
VERTEX
  8
0
 10
5.69792
 20
15.5157
 30
0.0
 40
0.0137795
 41
0.0137795
  0
VERTEX
  8
0
 10
5.71094
 20
15.564
 30
0.0
 40
0.0137795
 41
0.0137795
  0
VERTEX
  8
0
 10
5.71094
 20
15.5801
 30
0.0
 40
0.0137795
 41
0.0137795
  0
VERTEX
  8
0
 10
5.71094
 20
15.5963
 30
0.0
 40
0.0137795
 41
0.0137795
  0
VERTEX
  8
0
 10
5.69792
 20
15.6444
 30
0.0
 40
0.0137795
 41
0.0137795
  0
VERTEX
  8
0
 10
5.66249
 20
15.6969
 30
0.0
 40
0.0137795
 41
0.0137795
  0
VERTEX
  8
0
 10
5.60992
 20
15.7324
 30
0.0
 40
0.0137795
 41
0.0137795
  0
VERTEX
  8
0
 10
5.56164
 20
15.7454
 30
0.0
 40
0.0137795
 41
0.0137795
  0
VERTEX
  8
0
 10
5.54557
 20
15.7454
 30
0.0
 40
0.0137795
 41
0.0137795
  0
VERTEX
  8
0
 10
5.52946
 20
15.7454
 30
0.0
 40
0.0137795
 41
0.0137795
  0
VERTEX
  8
0
 10
5.48118
 20
15.7324
 30
0.0
 40
0.0137795
 41
0.0137795
  0
VERTEX
  8
0
 10
5.4286
 20
15.6969
 30
0.0
 40
0.0137795
 41
0.0137795
  0
VERTEX
  8
0
 10
5.39318
 20
15.6444
 30
0.0
 40
0.0137795
 41
0.0137795
  0
VERTEX
  8
0
 10
5.38021
 20
15.5963
 30
0.0
 40
0.0137795
 41
0.0137795
  0
VERTEX
  8
0
 10
5.38021
 20
15.5801
 30
0.0
 40
0.0137795
 41
0.0137795
  0
SEQEND
 8
0
  0
POLYLINE
  8
0
 62
     0
 66
     1
 10
0
 20
0
 30
0.0
 40
0.992126
 41
0.992126
  0
VERTEX
  8
0
 10
6.62825
 20
16.21
 30
0.0
 40
0.0137795
 41
0.0137795
  0
VERTEX
  8
0
 10
6.62825
 20
16.1312
 30
0.0
 40
0.0137795
 41
0.0137795
  0
SEQEND
 8
0
  0
POLYLINE
  8
0
 62
     0
 66
     1
 10
0
 20
0
 30
0.0
 40
0.992126
 41
0.992126
  0
VERTEX
  8
0
 10
6.43143
 20
16.21
 30
0.0
 40
0.0137795
 41
0.0137795
  0
VERTEX
  8
0
 10
6.62825
 20
16.21
 30
0.0
 40
0.0137795
 41
0.0137795
  0
SEQEND
 8
0
  0
POLYLINE
  8
0
 62
     0
 66
     1
 10
0
 20
0
 30
0.0
 40
0.992126
 41
0.992126
  0
VERTEX
  8
0
 10
6.43143
 20
16.1312
 30
0.0
 40
0.0137795
 41
0.0137795
  0
VERTEX
  8
0
 10
6.43143
 20
16.21
 30
0.0
 40
0.0137795
 41
0.0137795
  0
SEQEND
 8
0
  0
POLYLINE
  8
0
 62
     0
 66
     1
 10
0
 20
0
 30
0.0
 40
0.992126
 41
0.992126
  0
VERTEX
  8
0
 10
6.62825
 20
16.1312
 30
0.0
 40
0.0137795
 41
0.0137795
  0
VERTEX
  8
0
 10
6.43143
 20
16.1312
 30
0.0
 40
0.0137795
 41
0.0137795
  0
SEQEND
 8
0
  0
POLYLINE
  8
0
 62
     0
 66
     1
 10
0
 20
0
 30
0.0
 40
0.992126
 41
0.992126
  0
VERTEX
  8
0
 10
4.65972
 20
16.21
 30
0.0
 40
0.0137795
 41
0.0137795
  0
VERTEX
  8
0
 10
4.65972
 20
16.1312
 30
0.0
 40
0.0137795
 41
0.0137795
  0
SEQEND
 8
0
  0
POLYLINE
  8
0
 62
     0
 66
     1
 10
0
 20
0
 30
0.0
 40
0.992126
 41
0.992126
  0
VERTEX
  8
0
 10
4.46289
 20
16.21
 30
0.0
 40
0.0137795
 41
0.0137795
  0
VERTEX
  8
0
 10
4.65972
 20
16.21
 30
0.0
 40
0.0137795
 41
0.0137795
  0
SEQEND
 8
0
  0
POLYLINE
  8
0
 62
     0
 66
     1
 10
0
 20
0
 30
0.0
 40
0.992126
 41
0.992126
  0
VERTEX
  8
0
 10
4.46289
 20
16.1312
 30
0.0
 40
0.0137795
 41
0.0137795
  0
VERTEX
  8
0
 10
4.46289
 20
16.21
 30
0.0
 40
0.0137795
 41
0.0137795
  0
SEQEND
 8
0
  0
POLYLINE
  8
0
 62
     0
 66
     1
 10
0
 20
0
 30
0.0
 40
0.992126
 41
0.992126
  0
VERTEX
  8
0
 10
4.65972
 20
16.1312
 30
0.0
 40
0.0137795
 41
0.0137795
  0
VERTEX
  8
0
 10
4.46289
 20
16.1312
 30
0.0
 40
0.0137795
 41
0.0137795
  0
SEQEND
 8
0
  0
POLYLINE
  8
0
 62
     0
 66
     1
 10
0
 20
0
 30
0.0
 40
0.992126
 41
0.992126
  0
VERTEX
  8
0
 10
4.65972
 20
15.0289
 30
0.0
 40
0.0137795
 41
0.0137795
  0
VERTEX
  8
0
 10
4.65972
 20
14.9501
 30
0.0
 40
0.0137795
 41
0.0137795
  0
SEQEND
 8
0
  0
POLYLINE
  8
0
 62
     0
 66
     1
 10
0
 20
0
 30
0.0
 40
0.992126
 41
0.992126
  0
VERTEX
  8
0
 10
4.46289
 20
15.0289
 30
0.0
 40
0.0137795
 41
0.0137795
  0
VERTEX
  8
0
 10
4.65972
 20
15.0289
 30
0.0
 40
0.0137795
 41
0.0137795
  0
SEQEND
 8
0
  0
POLYLINE
  8
0
 62
     0
 66
     1
 10
0
 20
0
 30
0.0
 40
0.992126
 41
0.992126
  0
VERTEX
  8
0
 10
4.46289
 20
14.9501
 30
0.0
 40
0.0137795
 41
0.0137795
  0
VERTEX
  8
0
 10
4.46289
 20
15.0289
 30
0.0
 40
0.0137795
 41
0.0137795
  0
SEQEND
 8
0
  0
POLYLINE
  8
0
 62
     0
 66
     1
 10
0
 20
0
 30
0.0
 40
0.992126
 41
0.992126
  0
VERTEX
  8
0
 10
4.65972
 20
14.9501
 30
0.0
 40
0.0137795
 41
0.0137795
  0
VERTEX
  8
0
 10
4.46289
 20
14.9501
 30
0.0
 40
0.0137795
 41
0.0137795
  0
SEQEND
 8
0
  0
POLYLINE
  8
0
 62
     0
 66
     1
 10
0
 20
0
 30
0.0
 40
0.992126
 41
0.992126
  0
VERTEX
  8
0
 10
6.62825
 20
15.0289
 30
0.0
 40
0.0137795
 41
0.0137795
  0
VERTEX
  8
0
 10
6.62825
 20
14.9501
 30
0.0
 40
0.0137795
 41
0.0137795
  0
SEQEND
 8
0
  0
POLYLINE
  8
0
 62
     0
 66
     1
 10
0
 20
0
 30
0.0
 40
0.992126
 41
0.992126
  0
VERTEX
  8
0
 10
6.43143
 20
15.0289
 30
0.0
 40
0.0137795
 41
0.0137795
  0
VERTEX
  8
0
 10
6.62825
 20
15.0289
 30
0.0
 40
0.0137795
 41
0.0137795
  0
SEQEND
 8
0
  0
POLYLINE
  8
0
 62
     0
 66
     1
 10
0
 20
0
 30
0.0
 40
0.992126
 41
0.992126
  0
VERTEX
  8
0
 10
6.43143
 20
14.9501
 30
0.0
 40
0.0137795
 41
0.0137795
  0
VERTEX
  8
0
 10
6.43143
 20
15.0289
 30
0.0
 40
0.0137795
 41
0.0137795
  0
SEQEND
 8
0
  0
POLYLINE
  8
0
 62
     0
 66
     1
 10
0
 20
0
 30
0.0
 40
0.992126
 41
0.992126
  0
VERTEX
  8
0
 10
6.62825
 20
14.9501
 30
0.0
 40
0.0137795
 41
0.0137795
  0
VERTEX
  8
0
 10
6.43143
 20
14.9501
 30
0.0
 40
0.0137795
 41
0.0137795
  0
SEQEND
 8
0
  0
POLYLINE
  8
0
 62
     0
 66
     1
 10
0
 20
0
 30
0.0
 40
0.992126
 41
0.992126
  0
VERTEX
  8
0
 10
4.48258
 20
15.5801
 30
0.0
 40
0.0137795
 41
0.0137795
  0
VERTEX
  8
0
 10
4.48258
 20
15.4619
 30
0.0
 40
0.0137795
 41
0.0137795
  0
SEQEND
 8
0
  0
POLYLINE
  8
0
 62
     0
 66
     1
 10
0
 20
0
 30
0.0
 40
0.992126
 41
0.992126
  0
VERTEX
  8
0
 10
4.32508
 20
15.5801
 30
0.0
 40
0.0137795
 41
0.0137795
  0
VERTEX
  8
0
 10
4.48258
 20
15.5801
 30
0.0
 40
0.0137795
 41
0.0137795
  0
SEQEND
 8
0
  0
POLYLINE
  8
0
 62
     0
 66
     1
 10
0
 20
0
 30
0.0
 40
0.992126
 41
0.992126
  0
VERTEX
  8
0
 10
4.32508
 20
15.4619
 30
0.0
 40
0.0137795
 41
0.0137795
  0
VERTEX
  8
0
 10
4.32508
 20
15.5801
 30
0.0
 40
0.0137795
 41
0.0137795
  0
SEQEND
 8
0
  0
POLYLINE
  8
0
 62
     0
 66
     1
 10
0
 20
0
 30
0.0
 40
0.992126
 41
0.992126
  0
VERTEX
  8
0
 10
4.48258
 20
15.4619
 30
0.0
 40
0.0137795
 41
0.0137795
  0
VERTEX
  8
0
 10
4.32508
 20
15.4619
 30
0.0
 40
0.0137795
 41
0.0137795
  0
SEQEND
 8
0
  0
POLYLINE
  8
0
 62
     0
 66
     1
 10
0
 20
0
 30
0.0
 40
0.992126
 41
0.992126
  0
VERTEX
  8
0
 10
4.79753
 20
15.5801
 30
0.0
 40
0.0137795
 41
0.0137795
  0
VERTEX
  8
0
 10
4.79753
 20
15.4619
 30
0.0
 40
0.0137795
 41
0.0137795
  0
SEQEND
 8
0
  0
POLYLINE
  8
0
 62
     0
 66
     1
 10
0
 20
0
 30
0.0
 40
0.992126
 41
0.992126
  0
VERTEX
  8
0
 10
4.64008
 20
15.5801
 30
0.0
 40
0.0137795
 41
0.0137795
  0
VERTEX
  8
0
 10
4.79753
 20
15.5801
 30
0.0
 40
0.0137795
 41
0.0137795
  0
SEQEND
 8
0
  0
POLYLINE
  8
0
 62
     0
 66
     1
 10
0
 20
0
 30
0.0
 40
0.992126
 41
0.992126
  0
VERTEX
  8
0
 10
4.64008
 20
15.4619
 30
0.0
 40
0.0137795
 41
0.0137795
  0
VERTEX
  8
0
 10
4.64008
 20
15.5801
 30
0.0
 40
0.0137795
 41
0.0137795
  0
SEQEND
 8
0
  0
POLYLINE
  8
0
 62
     0
 66
     1
 10
0
 20
0
 30
0.0
 40
0.992126
 41
0.992126
  0
VERTEX
  8
0
 10
4.79753
 20
15.4619
 30
0.0
 40
0.0137795
 41
0.0137795
  0
VERTEX
  8
0
 10
4.64008
 20
15.4619
 30
0.0
 40
0.0137795
 41
0.0137795
  0
SEQEND
 8
0
  0
POLYLINE
  8
0
 62
     0
 66
     1
 10
0
 20
0
 30
0.0
 40
0.992126
 41
0.992126
  0
VERTEX
  8
0
 10
6.45107
 20
15.6982
 30
0.0
 40
0.0137795
 41
0.0137795
  0
VERTEX
  8
0
 10
6.45107
 20
15.5801
 30
0.0
 40
0.0137795
 41
0.0137795
  0
SEQEND
 8
0
  0
POLYLINE
  8
0
 62
     0
 66
     1
 10
0
 20
0
 30
0.0
 40
0.992126
 41
0.992126
  0
VERTEX
  8
0
 10
6.29362
 20
15.6982
 30
0.0
 40
0.0137795
 41
0.0137795
  0
VERTEX
  8
0
 10
6.45107
 20
15.6982
 30
0.0
 40
0.0137795
 41
0.0137795
  0
SEQEND
 8
0
  0
POLYLINE
  8
0
 62
     0
 66
     1
 10
0
 20
0
 30
0.0
 40
0.992126
 41
0.992126
  0
VERTEX
  8
0
 10
6.29362
 20
15.5801
 30
0.0
 40
0.0137795
 41
0.0137795
  0
VERTEX
  8
0
 10
6.29362
 20
15.6982
 30
0.0
 40
0.0137795
 41
0.0137795
  0
SEQEND
 8
0
  0
POLYLINE
  8
0
 62
     0
 66
     1
 10
0
 20
0
 30
0.0
 40
0.992126
 41
0.992126
  0
VERTEX
  8
0
 10
6.45107
 20
15.5801
 30
0.0
 40
0.0137795
 41
0.0137795
  0
VERTEX
  8
0
 10
6.29362
 20
15.5801
 30
0.0
 40
0.0137795
 41
0.0137795
  0
SEQEND
 8
0
  0
POLYLINE
  8
0
 62
     0
 66
     1
 10
0
 20
0
 30
0.0
 40
0.992126
 41
0.992126
  0
VERTEX
  8
0
 10
6.76606
 20
15.6982
 30
0.0
 40
0.0137795
 41
0.0137795
  0
VERTEX
  8
0
 10
6.76606
 20
15.5801
 30
0.0
 40
0.0137795
 41
0.0137795
  0
SEQEND
 8
0
  0
POLYLINE
  8
0
 62
     0
 66
     1
 10
0
 20
0
 30
0.0
 40
0.992126
 41
0.992126
  0
VERTEX
  8
0
 10
6.60856
 20
15.6982
 30
0.0
 40
0.0137795
 41
0.0137795
  0
VERTEX
  8
0
 10
6.76606
 20
15.6982
 30
0.0
 40
0.0137795
 41
0.0137795
  0
SEQEND
 8
0
  0
POLYLINE
  8
0
 62
     0
 66
     1
 10
0
 20
0
 30
0.0
 40
0.992126
 41
0.992126
  0
VERTEX
  8
0
 10
6.60856
 20
15.5801
 30
0.0
 40
0.0137795
 41
0.0137795
  0
VERTEX
  8
0
 10
6.60856
 20
15.6982
 30
0.0
 40
0.0137795
 41
0.0137795
  0
SEQEND
 8
0
  0
POLYLINE
  8
0
 62
     0
 66
     1
 10
0
 20
0
 30
0.0
 40
0.992126
 41
0.992126
  0
VERTEX
  8
0
 10
6.76606
 20
15.5801
 30
0.0
 40
0.0137795
 41
0.0137795
  0
VERTEX
  8
0
 10
6.60856
 20
15.5801
 30
0.0
 40
0.0137795
 41
0.0137795
  0
SEQEND
 8
0
  0
POLYLINE
  8
0
 62
     0
 66
     1
 10
0
 20
0
 30
0.0
 70
     1
 40
0.992126
 41
0.992126
  0
VERTEX
  8
0
 10
5.38021
 20
14.0053
 30
0.0
 40
0.0137795
 41
0.0137795
  0
VERTEX
  8
0
 10
5.38021
 20
13.9892
 30
0.0
 40
0.0137795
 41
0.0137795
  0
VERTEX
  8
0
 10
5.39318
 20
13.941
 30
0.0
 40
0.0137795
 41
0.0137795
  0
VERTEX
  8
0
 10
5.4286
 20
13.8884
 30
0.0
 40
0.0137795
 41
0.0137795
  0
VERTEX
  8
0
 10
5.48118
 20
13.853
 30
0.0
 40
0.0137795
 41
0.0137795
  0
VERTEX
  8
0
 10
5.52946
 20
13.84
 30
0.0
 40
0.0137795
 41
0.0137795
  0
VERTEX
  8
0
 10
5.54557
 20
13.84
 30
0.0
 40
0.0137795
 41
0.0137795
  0
VERTEX
  8
0
 10
5.56164
 20
13.84
 30
0.0
 40
0.0137795
 41
0.0137795
  0
VERTEX
  8
0
 10
5.60992
 20
13.853
 30
0.0
 40
0.0137795
 41
0.0137795
  0
VERTEX
  8
0
 10
5.66249
 20
13.8884
 30
0.0
 40
0.0137795
 41
0.0137795
  0
VERTEX
  8
0
 10
5.69792
 20
13.941
 30
0.0
 40
0.0137795
 41
0.0137795
  0
VERTEX
  8
0
 10
5.71094
 20
13.9892
 30
0.0
 40
0.0137795
 41
0.0137795
  0
VERTEX
  8
0
 10
5.71094
 20
14.0053
 30
0.0
 40
0.0137795
 41
0.0137795
  0
VERTEX
  8
0
 10
5.71094
 20
14.0214
 30
0.0
 40
0.0137795
 41
0.0137795
  0
VERTEX
  8
0
 10
5.69792
 20
14.0697
 30
0.0
 40
0.0137795
 41
0.0137795
  0
VERTEX
  8
0
 10
5.66249
 20
14.1222
 30
0.0
 40
0.0137795
 41
0.0137795
  0
VERTEX
  8
0
 10
5.60992
 20
14.1576
 30
0.0
 40
0.0137795
 41
0.0137795
  0
VERTEX
  8
0
 10
5.56164
 20
14.1706
 30
0.0
 40
0.0137795
 41
0.0137795
  0
VERTEX
  8
0
 10
5.54557
 20
14.1706
 30
0.0
 40
0.0137795
 41
0.0137795
  0
VERTEX
  8
0
 10
5.52946
 20
14.1706
 30
0.0
 40
0.0137795
 41
0.0137795
  0
VERTEX
  8
0
 10
5.48118
 20
14.1576
 30
0.0
 40
0.0137795
 41
0.0137795
  0
VERTEX
  8
0
 10
5.4286
 20
14.1222
 30
0.0
 40
0.0137795
 41
0.0137795
  0
VERTEX
  8
0
 10
5.39318
 20
14.0697
 30
0.0
 40
0.0137795
 41
0.0137795
  0
VERTEX
  8
0
 10
5.38021
 20
14.0214
 30
0.0
 40
0.0137795
 41
0.0137795
  0
VERTEX
  8
0
 10
5.38021
 20
14.0053
 30
0.0
 40
0.0137795
 41
0.0137795
  0
SEQEND
 8
0
  0
POLYLINE
  8
0
 62
     0
 66
     1
 10
0
 20
0
 30
0.0
 40
0.992126
 41
0.992126
  0
VERTEX
  8
0
 10
6.62825
 20
14.6351
 30
0.0
 40
0.0137795
 41
0.0137795
  0
VERTEX
  8
0
 10
6.62825
 20
14.5564
 30
0.0
 40
0.0137795
 41
0.0137795
  0
SEQEND
 8
0
  0
POLYLINE
  8
0
 62
     0
 66
     1
 10
0
 20
0
 30
0.0
 40
0.992126
 41
0.992126
  0
VERTEX
  8
0
 10
6.43143
 20
14.6351
 30
0.0
 40
0.0137795
 41
0.0137795
  0
VERTEX
  8
0
 10
6.62825
 20
14.6351
 30
0.0
 40
0.0137795
 41
0.0137795
  0
SEQEND
 8
0
  0
POLYLINE
  8
0
 62
     0
 66
     1
 10
0
 20
0
 30
0.0
 40
0.992126
 41
0.992126
  0
VERTEX
  8
0
 10
6.43143
 20
14.5564
 30
0.0
 40
0.0137795
 41
0.0137795
  0
VERTEX
  8
0
 10
6.43143
 20
14.6351
 30
0.0
 40
0.0137795
 41
0.0137795
  0
SEQEND
 8
0
  0
POLYLINE
  8
0
 62
     0
 66
     1
 10
0
 20
0
 30
0.0
 40
0.992126
 41
0.992126
  0
VERTEX
  8
0
 10
6.62825
 20
14.5564
 30
0.0
 40
0.0137795
 41
0.0137795
  0
VERTEX
  8
0
 10
6.43143
 20
14.5564
 30
0.0
 40
0.0137795
 41
0.0137795
  0
SEQEND
 8
0
  0
POLYLINE
  8
0
 62
     0
 66
     1
 10
0
 20
0
 30
0.0
 40
0.992126
 41
0.992126
  0
VERTEX
  8
0
 10
4.65972
 20
14.6351
 30
0.0
 40
0.0137795
 41
0.0137795
  0
VERTEX
  8
0
 10
4.65972
 20
14.5564
 30
0.0
 40
0.0137795
 41
0.0137795
  0
SEQEND
 8
0
  0
POLYLINE
  8
0
 62
     0
 66
     1
 10
0
 20
0
 30
0.0
 40
0.992126
 41
0.992126
  0
VERTEX
  8
0
 10
4.46289
 20
14.6351
 30
0.0
 40
0.0137795
 41
0.0137795
  0
VERTEX
  8
0
 10
4.65972
 20
14.6351
 30
0.0
 40
0.0137795
 41
0.0137795
  0
SEQEND
 8
0
  0
POLYLINE
  8
0
 62
     0
 66
     1
 10
0
 20
0
 30
0.0
 40
0.992126
 41
0.992126
  0
VERTEX
  8
0
 10
4.46289
 20
14.5564
 30
0.0
 40
0.0137795
 41
0.0137795
  0
VERTEX
  8
0
 10
4.46289
 20
14.6351
 30
0.0
 40
0.0137795
 41
0.0137795
  0
SEQEND
 8
0
  0
POLYLINE
  8
0
 62
     0
 66
     1
 10
0
 20
0
 30
0.0
 40
0.992126
 41
0.992126
  0
VERTEX
  8
0
 10
4.65972
 20
14.5564
 30
0.0
 40
0.0137795
 41
0.0137795
  0
VERTEX
  8
0
 10
4.46289
 20
14.5564
 30
0.0
 40
0.0137795
 41
0.0137795
  0
SEQEND
 8
0
  0
POLYLINE
  8
0
 62
     0
 66
     1
 10
0
 20
0
 30
0.0
 40
0.992126
 41
0.992126
  0
VERTEX
  8
0
 10
4.65972
 20
13.454
 30
0.0
 40
0.0137795
 41
0.0137795
  0
VERTEX
  8
0
 10
4.65972
 20
13.3753
 30
0.0
 40
0.0137795
 41
0.0137795
  0
SEQEND
 8
0
  0
POLYLINE
  8
0
 62
     0
 66
     1
 10
0
 20
0
 30
0.0
 40
0.992126
 41
0.992126
  0
VERTEX
  8
0
 10
4.46289
 20
13.454
 30
0.0
 40
0.0137795
 41
0.0137795
  0
VERTEX
  8
0
 10
4.65972
 20
13.454
 30
0.0
 40
0.0137795
 41
0.0137795
  0
SEQEND
 8
0
  0
POLYLINE
  8
0
 62
     0
 66
     1
 10
0
 20
0
 30
0.0
 40
0.992126
 41
0.992126
  0
VERTEX
  8
0
 10
4.46289
 20
13.3753
 30
0.0
 40
0.0137795
 41
0.0137795
  0
VERTEX
  8
0
 10
4.46289
 20
13.454
 30
0.0
 40
0.0137795
 41
0.0137795
  0
SEQEND
 8
0
  0
POLYLINE
  8
0
 62
     0
 66
     1
 10
0
 20
0
 30
0.0
 40
0.992126
 41
0.992126
  0
VERTEX
  8
0
 10
4.65972
 20
13.3753
 30
0.0
 40
0.0137795
 41
0.0137795
  0
VERTEX
  8
0
 10
4.46289
 20
13.3753
 30
0.0
 40
0.0137795
 41
0.0137795
  0
SEQEND
 8
0
  0
POLYLINE
  8
0
 62
     0
 66
     1
 10
0
 20
0
 30
0.0
 40
0.992126
 41
0.992126
  0
VERTEX
  8
0
 10
6.62825
 20
13.454
 30
0.0
 40
0.0137795
 41
0.0137795
  0
VERTEX
  8
0
 10
6.62825
 20
13.3753
 30
0.0
 40
0.0137795
 41
0.0137795
  0
SEQEND
 8
0
  0
POLYLINE
  8
0
 62
     0
 66
     1
 10
0
 20
0
 30
0.0
 40
0.992126
 41
0.992126
  0
VERTEX
  8
0
 10
6.43143
 20
13.454
 30
0.0
 40
0.0137795
 41
0.0137795
  0
VERTEX
  8
0
 10
6.62825
 20
13.454
 30
0.0
 40
0.0137795
 41
0.0137795
  0
SEQEND
 8
0
  0
POLYLINE
  8
0
 62
     0
 66
     1
 10
0
 20
0
 30
0.0
 40
0.992126
 41
0.992126
  0
VERTEX
  8
0
 10
6.43143
 20
13.3753
 30
0.0
 40
0.0137795
 41
0.0137795
  0
VERTEX
  8
0
 10
6.43143
 20
13.454
 30
0.0
 40
0.0137795
 41
0.0137795
  0
SEQEND
 8
0
  0
POLYLINE
  8
0
 62
     0
 66
     1
 10
0
 20
0
 30
0.0
 40
0.992126
 41
0.992126
  0
VERTEX
  8
0
 10
6.62825
 20
13.3753
 30
0.0
 40
0.0137795
 41
0.0137795
  0
VERTEX
  8
0
 10
6.43143
 20
13.3753
 30
0.0
 40
0.0137795
 41
0.0137795
  0
SEQEND
 8
0
  0
POLYLINE
  8
0
 62
     0
 66
     1
 10
0
 20
0
 30
0.0
 40
0.992126
 41
0.992126
  0
VERTEX
  8
0
 10
4.48258
 20
14.0053
 30
0.0
 40
0.0137795
 41
0.0137795
  0
VERTEX
  8
0
 10
4.48258
 20
13.8872
 30
0.0
 40
0.0137795
 41
0.0137795
  0
SEQEND
 8
0
  0
POLYLINE
  8
0
 62
     0
 66
     1
 10
0
 20
0
 30
0.0
 40
0.992126
 41
0.992126
  0
VERTEX
  8
0
 10
4.32508
 20
14.0053
 30
0.0
 40
0.0137795
 41
0.0137795
  0
VERTEX
  8
0
 10
4.48258
 20
14.0053
 30
0.0
 40
0.0137795
 41
0.0137795
  0
SEQEND
 8
0
  0
POLYLINE
  8
0
 62
     0
 66
     1
 10
0
 20
0
 30
0.0
 40
0.992126
 41
0.992126
  0
VERTEX
  8
0
 10
4.32508
 20
13.8872
 30
0.0
 40
0.0137795
 41
0.0137795
  0
VERTEX
  8
0
 10
4.32508
 20
14.0053
 30
0.0
 40
0.0137795
 41
0.0137795
  0
SEQEND
 8
0
  0
POLYLINE
  8
0
 62
     0
 66
     1
 10
0
 20
0
 30
0.0
 40
0.992126
 41
0.992126
  0
VERTEX
  8
0
 10
4.48258
 20
13.8872
 30
0.0
 40
0.0137795
 41
0.0137795
  0
VERTEX
  8
0
 10
4.32508
 20
13.8872
 30
0.0
 40
0.0137795
 41
0.0137795
  0
SEQEND
 8
0
  0
POLYLINE
  8
0
 62
     0
 66
     1
 10
0
 20
0
 30
0.0
 40
0.992126
 41
0.992126
  0
VERTEX
  8
0
 10
4.79753
 20
14.0053
 30
0.0
 40
0.0137795
 41
0.0137795
  0
VERTEX
  8
0
 10
4.79753
 20
13.8872
 30
0.0
 40
0.0137795
 41
0.0137795
  0
SEQEND
 8
0
  0
POLYLINE
  8
0
 62
     0
 66
     1
 10
0
 20
0
 30
0.0
 40
0.992126
 41
0.992126
  0
VERTEX
  8
0
 10
4.64008
 20
14.0053
 30
0.0
 40
0.0137795
 41
0.0137795
  0
VERTEX
  8
0
 10
4.79753
 20
14.0053
 30
0.0
 40
0.0137795
 41
0.0137795
  0
SEQEND
 8
0
  0
POLYLINE
  8
0
 62
     0
 66
     1
 10
0
 20
0
 30
0.0
 40
0.992126
 41
0.992126
  0
VERTEX
  8
0
 10
4.64008
 20
13.8872
 30
0.0
 40
0.0137795
 41
0.0137795
  0
VERTEX
  8
0
 10
4.64008
 20
14.0053
 30
0.0
 40
0.0137795
 41
0.0137795
  0
SEQEND
 8
0
  0
POLYLINE
  8
0
 62
     0
 66
     1
 10
0
 20
0
 30
0.0
 40
0.992126
 41
0.992126
  0
VERTEX
  8
0
 10
4.79753
 20
13.8872
 30
0.0
 40
0.0137795
 41
0.0137795
  0
VERTEX
  8
0
 10
4.64008
 20
13.8872
 30
0.0
 40
0.0137795
 41
0.0137795
  0
SEQEND
 8
0
  0
POLYLINE
  8
0
 62
     0
 66
     1
 10
0
 20
0
 30
0.0
 40
0.992126
 41
0.992126
  0
VERTEX
  8
0
 10
6.45107
 20
14.1235
 30
0.0
 40
0.0137795
 41
0.0137795
  0
VERTEX
  8
0
 10
6.45107
 20
14.0053
 30
0.0
 40
0.0137795
 41
0.0137795
  0
SEQEND
 8
0
  0
POLYLINE
  8
0
 62
     0
 66
     1
 10
0
 20
0
 30
0.0
 40
0.992126
 41
0.992126
  0
VERTEX
  8
0
 10
6.29362
 20
14.1235
 30
0.0
 40
0.0137795
 41
0.0137795
  0
VERTEX
  8
0
 10
6.45107
 20
14.1235
 30
0.0
 40
0.0137795
 41
0.0137795
  0
SEQEND
 8
0
  0
POLYLINE
  8
0
 62
     0
 66
     1
 10
0
 20
0
 30
0.0
 40
0.992126
 41
0.992126
  0
VERTEX
  8
0
 10
6.29362
 20
14.0053
 30
0.0
 40
0.0137795
 41
0.0137795
  0
VERTEX
  8
0
 10
6.29362
 20
14.1235
 30
0.0
 40
0.0137795
 41
0.0137795
  0
SEQEND
 8
0
  0
POLYLINE
  8
0
 62
     0
 66
     1
 10
0
 20
0
 30
0.0
 40
0.992126
 41
0.992126
  0
VERTEX
  8
0
 10
6.45107
 20
14.0053
 30
0.0
 40
0.0137795
 41
0.0137795
  0
VERTEX
  8
0
 10
6.29362
 20
14.0053
 30
0.0
 40
0.0137795
 41
0.0137795
  0
SEQEND
 8
0
  0
POLYLINE
  8
0
 62
     0
 66
     1
 10
0
 20
0
 30
0.0
 40
0.992126
 41
0.992126
  0
VERTEX
  8
0
 10
6.76606
 20
14.1235
 30
0.0
 40
0.0137795
 41
0.0137795
  0
VERTEX
  8
0
 10
6.76606
 20
14.0053
 30
0.0
 40
0.0137795
 41
0.0137795
  0
SEQEND
 8
0
  0
POLYLINE
  8
0
 62
     0
 66
     1
 10
0
 20
0
 30
0.0
 40
0.992126
 41
0.992126
  0
VERTEX
  8
0
 10
6.60856
 20
14.1235
 30
0.0
 40
0.0137795
 41
0.0137795
  0
VERTEX
  8
0
 10
6.76606
 20
14.1235
 30
0.0
 40
0.0137795
 41
0.0137795
  0
SEQEND
 8
0
  0
POLYLINE
  8
0
 62
     0
 66
     1
 10
0
 20
0
 30
0.0
 40
0.992126
 41
0.992126
  0
VERTEX
  8
0
 10
6.60856
 20
14.0053
 30
0.0
 40
0.0137795
 41
0.0137795
  0
VERTEX
  8
0
 10
6.60856
 20
14.1235
 30
0.0
 40
0.0137795
 41
0.0137795
  0
SEQEND
 8
0
  0
POLYLINE
  8
0
 62
     0
 66
     1
 10
0
 20
0
 30
0.0
 40
0.992126
 41
0.992126
  0
VERTEX
  8
0
 10
6.76606
 20
14.0053
 30
0.0
 40
0.0137795
 41
0.0137795
  0
VERTEX
  8
0
 10
6.60856
 20
14.0053
 30
0.0
 40
0.0137795
 41
0.0137795
  0
SEQEND
 8
0
  0
POLYLINE
  8
0
 62
     0
 66
     1
 10
0
 20
0
 30
0.0
 70
     1
 40
0.992126
 41
0.992126
  0
VERTEX
  8
0
 10
8.13613
 20
17.1549
 30
0.0
 40
0.0137795
 41
0.0137795
  0
VERTEX
  8
0
 10
8.13613
 20
17.1387
 30
0.0
 40
0.0137795
 41
0.0137795
  0
VERTEX
  8
0
 10
8.14908
 20
17.0906
 30
0.0
 40
0.0137795
 41
0.0137795
  0
VERTEX
  8
0
 10
8.18451
 20
17.0379
 30
0.0
 40
0.0137795
 41
0.0137795
  0
VERTEX
  8
0
 10
8.23708
 20
17.0025
 30
0.0
 40
0.0137795
 41
0.0137795
  0
VERTEX
  8
0
 10
8.28538
 20
16.9894
 30
0.0
 40
0.0137795
 41
0.0137795
  0
VERTEX
  8
0
 10
8.30149
 20
16.9894
 30
0.0
 40
0.0137795
 41
0.0137795
  0
VERTEX
  8
0
 10
8.31754
 20
16.9894
 30
0.0
 40
0.0137795
 41
0.0137795
  0
VERTEX
  8
0
 10
8.36583
 20
17.0025
 30
0.0
 40
0.0137795
 41
0.0137795
  0
VERTEX
  8
0
 10
8.4184
 20
17.0379
 30
0.0
 40
0.0137795
 41
0.0137795
  0
VERTEX
  8
0
 10
8.45383
 20
17.0906
 30
0.0
 40
0.0137795
 41
0.0137795
  0
VERTEX
  8
0
 10
8.46685
 20
17.1387
 30
0.0
 40
0.0137795
 41
0.0137795
  0
VERTEX
  8
0
 10
8.46685
 20
17.1549
 30
0.0
 40
0.0137795
 41
0.0137795
  0
VERTEX
  8
0
 10
8.46685
 20
17.171
 30
0.0
 40
0.0137795
 41
0.0137795
  0
VERTEX
  8
0
 10
8.45383
 20
17.2193
 30
0.0
 40
0.0137795
 41
0.0137795
  0
VERTEX
  8
0
 10
8.4184
 20
17.2718
 30
0.0
 40
0.0137795
 41
0.0137795
  0
VERTEX
  8
0
 10
8.36583
 20
17.3074
 30
0.0
 40
0.0137795
 41
0.0137795
  0
VERTEX
  8
0
 10
8.31754
 20
17.3203
 30
0.0
 40
0.0137795
 41
0.0137795
  0
VERTEX
  8
0
 10
8.30149
 20
17.3203
 30
0.0
 40
0.0137795
 41
0.0137795
  0
VERTEX
  8
0
 10
8.28538
 20
17.3203
 30
0.0
 40
0.0137795
 41
0.0137795
  0
VERTEX
  8
0
 10
8.23708
 20
17.3074
 30
0.0
 40
0.0137795
 41
0.0137795
  0
VERTEX
  8
0
 10
8.18451
 20
17.2718
 30
0.0
 40
0.0137795
 41
0.0137795
  0
VERTEX
  8
0
 10
8.14908
 20
17.2193
 30
0.0
 40
0.0137795
 41
0.0137795
  0
VERTEX
  8
0
 10
8.13613
 20
17.171
 30
0.0
 40
0.0137795
 41
0.0137795
  0
VERTEX
  8
0
 10
8.13613
 20
17.1549
 30
0.0
 40
0.0137795
 41
0.0137795
  0
SEQEND
 8
0
  0
POLYLINE
  8
0
 62
     0
 66
     1
 10
0
 20
0
 30
0.0
 40
0.992126
 41
0.992126
  0
VERTEX
  8
0
 10
9.38417
 20
17.7847
 30
0.0
 40
0.0137795
 41
0.0137795
  0
VERTEX
  8
0
 10
9.38417
 20
17.7061
 30
0.0
 40
0.0137795
 41
0.0137795
  0
SEQEND
 8
0
  0
POLYLINE
  8
0
 62
     0
 66
     1
 10
0
 20
0
 30
0.0
 40
0.992126
 41
0.992126
  0
VERTEX
  8
0
 10
9.18728
 20
17.7847
 30
0.0
 40
0.0137795
 41
0.0137795
  0
VERTEX
  8
0
 10
9.38417
 20
17.7847
 30
0.0
 40
0.0137795
 41
0.0137795
  0
SEQEND
 8
0
  0
POLYLINE
  8
0
 62
     0
 66
     1
 10
0
 20
0
 30
0.0
 40
0.992126
 41
0.992126
  0
VERTEX
  8
0
 10
9.18728
 20
17.7061
 30
0.0
 40
0.0137795
 41
0.0137795
  0
VERTEX
  8
0
 10
9.18728
 20
17.7847
 30
0.0
 40
0.0137795
 41
0.0137795
  0
SEQEND
 8
0
  0
POLYLINE
  8
0
 62
     0
 66
     1
 10
0
 20
0
 30
0.0
 40
0.992126
 41
0.992126
  0
VERTEX
  8
0
 10
9.38417
 20
17.7061
 30
0.0
 40
0.0137795
 41
0.0137795
  0
VERTEX
  8
0
 10
9.18728
 20
17.7061
 30
0.0
 40
0.0137795
 41
0.0137795
  0
SEQEND
 8
0
  0
POLYLINE
  8
0
 62
     0
 66
     1
 10
0
 20
0
 30
0.0
 40
0.992126
 41
0.992126
  0
VERTEX
  8
0
 10
7.41564
 20
17.7847
 30
0.0
 40
0.0137795
 41
0.0137795
  0
VERTEX
  8
0
 10
7.41564
 20
17.7061
 30
0.0
 40
0.0137795
 41
0.0137795
  0
SEQEND
 8
0
  0
POLYLINE
  8
0
 62
     0
 66
     1
 10
0
 20
0
 30
0.0
 40
0.992126
 41
0.992126
  0
VERTEX
  8
0
 10
7.21881
 20
17.7847
 30
0.0
 40
0.0137795
 41
0.0137795
  0
VERTEX
  8
0
 10
7.41564
 20
17.7847
 30
0.0
 40
0.0137795
 41
0.0137795
  0
SEQEND
 8
0
  0
POLYLINE
  8
0
 62
     0
 66
     1
 10
0
 20
0
 30
0.0
 40
0.992126
 41
0.992126
  0
VERTEX
  8
0
 10
7.21881
 20
17.7061
 30
0.0
 40
0.0137795
 41
0.0137795
  0
VERTEX
  8
0
 10
7.21881
 20
17.7847
 30
0.0
 40
0.0137795
 41
0.0137795
  0
SEQEND
 8
0
  0
POLYLINE
  8
0
 62
     0
 66
     1
 10
0
 20
0
 30
0.0
 40
0.992126
 41
0.992126
  0
VERTEX
  8
0
 10
7.41564
 20
17.7061
 30
0.0
 40
0.0137795
 41
0.0137795
  0
VERTEX
  8
0
 10
7.21881
 20
17.7061
 30
0.0
 40
0.0137795
 41
0.0137795
  0
SEQEND
 8
0
  0
POLYLINE
  8
0
 62
     0
 66
     1
 10
0
 20
0
 30
0.0
 40
0.992126
 41
0.992126
  0
VERTEX
  8
0
 10
7.41564
 20
16.6036
 30
0.0
 40
0.0137795
 41
0.0137795
  0
VERTEX
  8
0
 10
7.41564
 20
16.5249
 30
0.0
 40
0.0137795
 41
0.0137795
  0
SEQEND
 8
0
  0
POLYLINE
  8
0
 62
     0
 66
     1
 10
0
 20
0
 30
0.0
 40
0.992126
 41
0.992126
  0
VERTEX
  8
0
 10
7.21881
 20
16.6036
 30
0.0
 40
0.0137795
 41
0.0137795
  0
VERTEX
  8
0
 10
7.41564
 20
16.6036
 30
0.0
 40
0.0137795
 41
0.0137795
  0
SEQEND
 8
0
  0
POLYLINE
  8
0
 62
     0
 66
     1
 10
0
 20
0
 30
0.0
 40
0.992126
 41
0.992126
  0
VERTEX
  8
0
 10
7.21881
 20
16.5249
 30
0.0
 40
0.0137795
 41
0.0137795
  0
VERTEX
  8
0
 10
7.21881
 20
16.6036
 30
0.0
 40
0.0137795
 41
0.0137795
  0
SEQEND
 8
0
  0
POLYLINE
  8
0
 62
     0
 66
     1
 10
0
 20
0
 30
0.0
 40
0.992126
 41
0.992126
  0
VERTEX
  8
0
 10
7.41564
 20
16.5249
 30
0.0
 40
0.0137795
 41
0.0137795
  0
VERTEX
  8
0
 10
7.21881
 20
16.5249
 30
0.0
 40
0.0137795
 41
0.0137795
  0
SEQEND
 8
0
  0
POLYLINE
  8
0
 62
     0
 66
     1
 10
0
 20
0
 30
0.0
 40
0.992126
 41
0.992126
  0
VERTEX
  8
0
 10
9.38417
 20
16.6036
 30
0.0
 40
0.0137795
 41
0.0137795
  0
VERTEX
  8
0
 10
9.38417
 20
16.5249
 30
0.0
 40
0.0137795
 41
0.0137795
  0
SEQEND
 8
0
  0
POLYLINE
  8
0
 62
     0
 66
     1
 10
0
 20
0
 30
0.0
 40
0.992126
 41
0.992126
  0
VERTEX
  8
0
 10
9.18728
 20
16.6036
 30
0.0
 40
0.0137795
 41
0.0137795
  0
VERTEX
  8
0
 10
9.38417
 20
16.6036
 30
0.0
 40
0.0137795
 41
0.0137795
  0
SEQEND
 8
0
  0
POLYLINE
  8
0
 62
     0
 66
     1
 10
0
 20
0
 30
0.0
 40
0.992126
 41
0.992126
  0
VERTEX
  8
0
 10
9.18728
 20
16.5249
 30
0.0
 40
0.0137795
 41
0.0137795
  0
VERTEX
  8
0
 10
9.18728
 20
16.6036
 30
0.0
 40
0.0137795
 41
0.0137795
  0
SEQEND
 8
0
  0
POLYLINE
  8
0
 62
     0
 66
     1
 10
0
 20
0
 30
0.0
 40
0.992126
 41
0.992126
  0
VERTEX
  8
0
 10
9.38417
 20
16.5249
 30
0.0
 40
0.0137795
 41
0.0137795
  0
VERTEX
  8
0
 10
9.18728
 20
16.5249
 30
0.0
 40
0.0137795
 41
0.0137795
  0
SEQEND
 8
0
  0
POLYLINE
  8
0
 62
     0
 66
     1
 10
0
 20
0
 30
0.0
 40
0.992126
 41
0.992126
  0
VERTEX
  8
0
 10
7.2385
 20
17.1549
 30
0.0
 40
0.0137795
 41
0.0137795
  0
VERTEX
  8
0
 10
7.2385
 20
17.0367
 30
0.0
 40
0.0137795
 41
0.0137795
  0
SEQEND
 8
0
  0
POLYLINE
  8
0
 62
     0
 66
     1
 10
0
 20
0
 30
0.0
 40
0.992126
 41
0.992126
  0
VERTEX
  8
0
 10
7.081
 20
17.1549
 30
0.0
 40
0.0137795
 41
0.0137795
  0
VERTEX
  8
0
 10
7.2385
 20
17.1549
 30
0.0
 40
0.0137795
 41
0.0137795
  0
SEQEND
 8
0
  0
POLYLINE
  8
0
 62
     0
 66
     1
 10
0
 20
0
 30
0.0
 40
0.992126
 41
0.992126
  0
VERTEX
  8
0
 10
7.081
 20
17.0367
 30
0.0
 40
0.0137795
 41
0.0137795
  0
VERTEX
  8
0
 10
7.081
 20
17.1549
 30
0.0
 40
0.0137795
 41
0.0137795
  0
SEQEND
 8
0
  0
POLYLINE
  8
0
 62
     0
 66
     1
 10
0
 20
0
 30
0.0
 40
0.992126
 41
0.992126
  0
VERTEX
  8
0
 10
7.2385
 20
17.0367
 30
0.0
 40
0.0137795
 41
0.0137795
  0
VERTEX
  8
0
 10
7.081
 20
17.0367
 30
0.0
 40
0.0137795
 41
0.0137795
  0
SEQEND
 8
0
  0
POLYLINE
  8
0
 62
     0
 66
     1
 10
0
 20
0
 30
0.0
 40
0.992126
 41
0.992126
  0
VERTEX
  8
0
 10
7.55344
 20
17.1549
 30
0.0
 40
0.0137795
 41
0.0137795
  0
VERTEX
  8
0
 10
7.55344
 20
17.0367
 30
0.0
 40
0.0137795
 41
0.0137795
  0
SEQEND
 8
0
  0
POLYLINE
  8
0
 62
     0
 66
     1
 10
0
 20
0
 30
0.0
 40
0.992126
 41
0.992126
  0
VERTEX
  8
0
 10
7.39594
 20
17.1549
 30
0.0
 40
0.0137795
 41
0.0137795
  0
VERTEX
  8
0
 10
7.55344
 20
17.1549
 30
0.0
 40
0.0137795
 41
0.0137795
  0
SEQEND
 8
0
  0
POLYLINE
  8
0
 62
     0
 66
     1
 10
0
 20
0
 30
0.0
 40
0.992126
 41
0.992126
  0
VERTEX
  8
0
 10
7.39594
 20
17.0367
 30
0.0
 40
0.0137795
 41
0.0137795
  0
VERTEX
  8
0
 10
7.39594
 20
17.1549
 30
0.0
 40
0.0137795
 41
0.0137795
  0
SEQEND
 8
0
  0
POLYLINE
  8
0
 62
     0
 66
     1
 10
0
 20
0
 30
0.0
 40
0.992126
 41
0.992126
  0
VERTEX
  8
0
 10
7.55344
 20
17.0367
 30
0.0
 40
0.0137795
 41
0.0137795
  0
VERTEX
  8
0
 10
7.39594
 20
17.0367
 30
0.0
 40
0.0137795
 41
0.0137795
  0
SEQEND
 8
0
  0
POLYLINE
  8
0
 62
     0
 66
     1
 10
0
 20
0
 30
0.0
 40
0.992126
 41
0.992126
  0
VERTEX
  8
0
 10
9.20697
 20
17.2729
 30
0.0
 40
0.0137795
 41
0.0137795
  0
VERTEX
  8
0
 10
9.20697
 20
17.1549
 30
0.0
 40
0.0137795
 41
0.0137795
  0
SEQEND
 8
0
  0
POLYLINE
  8
0
 62
     0
 66
     1
 10
0
 20
0
 30
0.0
 40
0.992126
 41
0.992126
  0
VERTEX
  8
0
 10
9.04953
 20
17.2729
 30
0.0
 40
0.0137795
 41
0.0137795
  0
VERTEX
  8
0
 10
9.20697
 20
17.2729
 30
0.0
 40
0.0137795
 41
0.0137795
  0
SEQEND
 8
0
  0
POLYLINE
  8
0
 62
     0
 66
     1
 10
0
 20
0
 30
0.0
 40
0.992126
 41
0.992126
  0
VERTEX
  8
0
 10
9.04953
 20
17.1549
 30
0.0
 40
0.0137795
 41
0.0137795
  0
VERTEX
  8
0
 10
9.04953
 20
17.2729
 30
0.0
 40
0.0137795
 41
0.0137795
  0
SEQEND
 8
0
  0
POLYLINE
  8
0
 62
     0
 66
     1
 10
0
 20
0
 30
0.0
 40
0.992126
 41
0.992126
  0
VERTEX
  8
0
 10
9.20697
 20
17.1549
 30
0.0
 40
0.0137795
 41
0.0137795
  0
VERTEX
  8
0
 10
9.04953
 20
17.1549
 30
0.0
 40
0.0137795
 41
0.0137795
  0
SEQEND
 8
0
  0
POLYLINE
  8
0
 62
     0
 66
     1
 10
0
 20
0
 30
0.0
 40
0.992126
 41
0.992126
  0
VERTEX
  8
0
 10
9.52197
 20
17.2729
 30
0.0
 40
0.0137795
 41
0.0137795
  0
VERTEX
  8
0
 10
9.52197
 20
17.1549
 30
0.0
 40
0.0137795
 41
0.0137795
  0
SEQEND
 8
0
  0
POLYLINE
  8
0
 62
     0
 66
     1
 10
0
 20
0
 30
0.0
 40
0.992126
 41
0.992126
  0
VERTEX
  8
0
 10
9.36447
 20
17.2729
 30
0.0
 40
0.0137795
 41
0.0137795
  0
VERTEX
  8
0
 10
9.52197
 20
17.2729
 30
0.0
 40
0.0137795
 41
0.0137795
  0
SEQEND
 8
0
  0
POLYLINE
  8
0
 62
     0
 66
     1
 10
0
 20
0
 30
0.0
 40
0.992126
 41
0.992126
  0
VERTEX
  8
0
 10
9.36447
 20
17.1549
 30
0.0
 40
0.0137795
 41
0.0137795
  0
VERTEX
  8
0
 10
9.36447
 20
17.2729
 30
0.0
 40
0.0137795
 41
0.0137795
  0
SEQEND
 8
0
  0
POLYLINE
  8
0
 62
     0
 66
     1
 10
0
 20
0
 30
0.0
 40
0.992126
 41
0.992126
  0
VERTEX
  8
0
 10
9.52197
 20
17.1549
 30
0.0
 40
0.0137795
 41
0.0137795
  0
VERTEX
  8
0
 10
9.36447
 20
17.1549
 30
0.0
 40
0.0137795
 41
0.0137795
  0
SEQEND
 8
0
  0
POLYLINE
  8
0
 62
     0
 66
     1
 10
0
 20
0
 30
0.0
 70
     1
 40
0.992126
 41
0.992126
  0
VERTEX
  8
0
 10
8.13613
 20
15.5801
 30
0.0
 40
0.0137795
 41
0.0137795
  0
VERTEX
  8
0
 10
8.13613
 20
15.564
 30
0.0
 40
0.0137795
 41
0.0137795
  0
VERTEX
  8
0
 10
8.14908
 20
15.5157
 30
0.0
 40
0.0137795
 41
0.0137795
  0
VERTEX
  8
0
 10
8.18451
 20
15.4632
 30
0.0
 40
0.0137795
 41
0.0137795
  0
VERTEX
  8
0
 10
8.23708
 20
15.4278
 30
0.0
 40
0.0137795
 41
0.0137795
  0
VERTEX
  8
0
 10
8.28538
 20
15.4147
 30
0.0
 40
0.0137795
 41
0.0137795
  0
VERTEX
  8
0
 10
8.30149
 20
15.4147
 30
0.0
 40
0.0137795
 41
0.0137795
  0
VERTEX
  8
0
 10
8.31754
 20
15.4147
 30
0.0
 40
0.0137795
 41
0.0137795
  0
VERTEX
  8
0
 10
8.36583
 20
15.4278
 30
0.0
 40
0.0137795
 41
0.0137795
  0
VERTEX
  8
0
 10
8.4184
 20
15.4632
 30
0.0
 40
0.0137795
 41
0.0137795
  0
VERTEX
  8
0
 10
8.45383
 20
15.5157
 30
0.0
 40
0.0137795
 41
0.0137795
  0
VERTEX
  8
0
 10
8.46685
 20
15.564
 30
0.0
 40
0.0137795
 41
0.0137795
  0
VERTEX
  8
0
 10
8.46685
 20
15.5801
 30
0.0
 40
0.0137795
 41
0.0137795
  0
VERTEX
  8
0
 10
8.46685
 20
15.5963
 30
0.0
 40
0.0137795
 41
0.0137795
  0
VERTEX
  8
0
 10
8.45383
 20
15.6444
 30
0.0
 40
0.0137795
 41
0.0137795
  0
VERTEX
  8
0
 10
8.4184
 20
15.6969
 30
0.0
 40
0.0137795
 41
0.0137795
  0
VERTEX
  8
0
 10
8.36583
 20
15.7324
 30
0.0
 40
0.0137795
 41
0.0137795
  0
VERTEX
  8
0
 10
8.31754
 20
15.7454
 30
0.0
 40
0.0137795
 41
0.0137795
  0
VERTEX
  8
0
 10
8.30149
 20
15.7454
 30
0.0
 40
0.0137795
 41
0.0137795
  0
VERTEX
  8
0
 10
8.28538
 20
15.7454
 30
0.0
 40
0.0137795
 41
0.0137795
  0
VERTEX
  8
0
 10
8.23708
 20
15.7324
 30
0.0
 40
0.0137795
 41
0.0137795
  0
VERTEX
  8
0
 10
8.18451
 20
15.6969
 30
0.0
 40
0.0137795
 41
0.0137795
  0
VERTEX
  8
0
 10
8.14908
 20
15.6444
 30
0.0
 40
0.0137795
 41
0.0137795
  0
VERTEX
  8
0
 10
8.13613
 20
15.5963
 30
0.0
 40
0.0137795
 41
0.0137795
  0
VERTEX
  8
0
 10
8.13613
 20
15.5801
 30
0.0
 40
0.0137795
 41
0.0137795
  0
SEQEND
 8
0
  0
POLYLINE
  8
0
 62
     0
 66
     1
 10
0
 20
0
 30
0.0
 40
0.992126
 41
0.992126
  0
VERTEX
  8
0
 10
9.38417
 20
16.21
 30
0.0
 40
0.0137795
 41
0.0137795
  0
VERTEX
  8
0
 10
9.38417
 20
16.1312
 30
0.0
 40
0.0137795
 41
0.0137795
  0
SEQEND
 8
0
  0
POLYLINE
  8
0
 62
     0
 66
     1
 10
0
 20
0
 30
0.0
 40
0.992126
 41
0.992126
  0
VERTEX
  8
0
 10
9.18728
 20
16.21
 30
0.0
 40
0.0137795
 41
0.0137795
  0
VERTEX
  8
0
 10
9.38417
 20
16.21
 30
0.0
 40
0.0137795
 41
0.0137795
  0
SEQEND
 8
0
  0
POLYLINE
  8
0
 62
     0
 66
     1
 10
0
 20
0
 30
0.0
 40
0.992126
 41
0.992126
  0
VERTEX
  8
0
 10
9.18728
 20
16.1312
 30
0.0
 40
0.0137795
 41
0.0137795
  0
VERTEX
  8
0
 10
9.18728
 20
16.21
 30
0.0
 40
0.0137795
 41
0.0137795
  0
SEQEND
 8
0
  0
POLYLINE
  8
0
 62
     0
 66
     1
 10
0
 20
0
 30
0.0
 40
0.992126
 41
0.992126
  0
VERTEX
  8
0
 10
9.38417
 20
16.1312
 30
0.0
 40
0.0137795
 41
0.0137795
  0
VERTEX
  8
0
 10
9.18728
 20
16.1312
 30
0.0
 40
0.0137795
 41
0.0137795
  0
SEQEND
 8
0
  0
POLYLINE
  8
0
 62
     0
 66
     1
 10
0
 20
0
 30
0.0
 40
0.992126
 41
0.992126
  0
VERTEX
  8
0
 10
7.41564
 20
16.21
 30
0.0
 40
0.0137795
 41
0.0137795
  0
VERTEX
  8
0
 10
7.41564
 20
16.1312
 30
0.0
 40
0.0137795
 41
0.0137795
  0
SEQEND
 8
0
  0
POLYLINE
  8
0
 62
     0
 66
     1
 10
0
 20
0
 30
0.0
 40
0.992126
 41
0.992126
  0
VERTEX
  8
0
 10
7.21881
 20
16.21
 30
0.0
 40
0.0137795
 41
0.0137795
  0
VERTEX
  8
0
 10
7.41564
 20
16.21
 30
0.0
 40
0.0137795
 41
0.0137795
  0
SEQEND
 8
0
  0
POLYLINE
  8
0
 62
     0
 66
     1
 10
0
 20
0
 30
0.0
 40
0.992126
 41
0.992126
  0
VERTEX
  8
0
 10
7.21881
 20
16.1312
 30
0.0
 40
0.0137795
 41
0.0137795
  0
VERTEX
  8
0
 10
7.21881
 20
16.21
 30
0.0
 40
0.0137795
 41
0.0137795
  0
SEQEND
 8
0
  0
POLYLINE
  8
0
 62
     0
 66
     1
 10
0
 20
0
 30
0.0
 40
0.992126
 41
0.992126
  0
VERTEX
  8
0
 10
7.41564
 20
16.1312
 30
0.0
 40
0.0137795
 41
0.0137795
  0
VERTEX
  8
0
 10
7.21881
 20
16.1312
 30
0.0
 40
0.0137795
 41
0.0137795
  0
SEQEND
 8
0
  0
POLYLINE
  8
0
 62
     0
 66
     1
 10
0
 20
0
 30
0.0
 40
0.992126
 41
0.992126
  0
VERTEX
  8
0
 10
7.41564
 20
15.0289
 30
0.0
 40
0.0137795
 41
0.0137795
  0
VERTEX
  8
0
 10
7.41564
 20
14.9501
 30
0.0
 40
0.0137795
 41
0.0137795
  0
SEQEND
 8
0
  0
POLYLINE
  8
0
 62
     0
 66
     1
 10
0
 20
0
 30
0.0
 40
0.992126
 41
0.992126
  0
VERTEX
  8
0
 10
7.21881
 20
15.0289
 30
0.0
 40
0.0137795
 41
0.0137795
  0
VERTEX
  8
0
 10
7.41564
 20
15.0289
 30
0.0
 40
0.0137795
 41
0.0137795
  0
SEQEND
 8
0
  0
POLYLINE
  8
0
 62
     0
 66
     1
 10
0
 20
0
 30
0.0
 40
0.992126
 41
0.992126
  0
VERTEX
  8
0
 10
7.21881
 20
14.9501
 30
0.0
 40
0.0137795
 41
0.0137795
  0
VERTEX
  8
0
 10
7.21881
 20
15.0289
 30
0.0
 40
0.0137795
 41
0.0137795
  0
SEQEND
 8
0
  0
POLYLINE
  8
0
 62
     0
 66
     1
 10
0
 20
0
 30
0.0
 40
0.992126
 41
0.992126
  0
VERTEX
  8
0
 10
7.41564
 20
14.9501
 30
0.0
 40
0.0137795
 41
0.0137795
  0
VERTEX
  8
0
 10
7.21881
 20
14.9501
 30
0.0
 40
0.0137795
 41
0.0137795
  0
SEQEND
 8
0
  0
POLYLINE
  8
0
 62
     0
 66
     1
 10
0
 20
0
 30
0.0
 40
0.992126
 41
0.992126
  0
VERTEX
  8
0
 10
9.38417
 20
15.0289
 30
0.0
 40
0.0137795
 41
0.0137795
  0
VERTEX
  8
0
 10
9.38417
 20
14.9501
 30
0.0
 40
0.0137795
 41
0.0137795
  0
SEQEND
 8
0
  0
POLYLINE
  8
0
 62
     0
 66
     1
 10
0
 20
0
 30
0.0
 40
0.992126
 41
0.992126
  0
VERTEX
  8
0
 10
9.18728
 20
15.0289
 30
0.0
 40
0.0137795
 41
0.0137795
  0
VERTEX
  8
0
 10
9.38417
 20
15.0289
 30
0.0
 40
0.0137795
 41
0.0137795
  0
SEQEND
 8
0
  0
POLYLINE
  8
0
 62
     0
 66
     1
 10
0
 20
0
 30
0.0
 40
0.992126
 41
0.992126
  0
VERTEX
  8
0
 10
9.18728
 20
14.9501
 30
0.0
 40
0.0137795
 41
0.0137795
  0
VERTEX
  8
0
 10
9.18728
 20
15.0289
 30
0.0
 40
0.0137795
 41
0.0137795
  0
SEQEND
 8
0
  0
POLYLINE
  8
0
 62
     0
 66
     1
 10
0
 20
0
 30
0.0
 40
0.992126
 41
0.992126
  0
VERTEX
  8
0
 10
9.38417
 20
14.9501
 30
0.0
 40
0.0137795
 41
0.0137795
  0
VERTEX
  8
0
 10
9.18728
 20
14.9501
 30
0.0
 40
0.0137795
 41
0.0137795
  0
SEQEND
 8
0
  0
POLYLINE
  8
0
 62
     0
 66
     1
 10
0
 20
0
 30
0.0
 40
0.992126
 41
0.992126
  0
VERTEX
  8
0
 10
7.2385
 20
15.5801
 30
0.0
 40
0.0137795
 41
0.0137795
  0
VERTEX
  8
0
 10
7.2385
 20
15.4619
 30
0.0
 40
0.0137795
 41
0.0137795
  0
SEQEND
 8
0
  0
POLYLINE
  8
0
 62
     0
 66
     1
 10
0
 20
0
 30
0.0
 40
0.992126
 41
0.992126
  0
VERTEX
  8
0
 10
7.081
 20
15.5801
 30
0.0
 40
0.0137795
 41
0.0137795
  0
VERTEX
  8
0
 10
7.2385
 20
15.5801
 30
0.0
 40
0.0137795
 41
0.0137795
  0
SEQEND
 8
0
  0
POLYLINE
  8
0
 62
     0
 66
     1
 10
0
 20
0
 30
0.0
 40
0.992126
 41
0.992126
  0
VERTEX
  8
0
 10
7.081
 20
15.4619
 30
0.0
 40
0.0137795
 41
0.0137795
  0
VERTEX
  8
0
 10
7.081
 20
15.5801
 30
0.0
 40
0.0137795
 41
0.0137795
  0
SEQEND
 8
0
  0
POLYLINE
  8
0
 62
     0
 66
     1
 10
0
 20
0
 30
0.0
 40
0.992126
 41
0.992126
  0
VERTEX
  8
0
 10
7.2385
 20
15.4619
 30
0.0
 40
0.0137795
 41
0.0137795
  0
VERTEX
  8
0
 10
7.081
 20
15.4619
 30
0.0
 40
0.0137795
 41
0.0137795
  0
SEQEND
 8
0
  0
POLYLINE
  8
0
 62
     0
 66
     1
 10
0
 20
0
 30
0.0
 40
0.992126
 41
0.992126
  0
VERTEX
  8
0
 10
7.55344
 20
15.5801
 30
0.0
 40
0.0137795
 41
0.0137795
  0
VERTEX
  8
0
 10
7.55344
 20
15.4619
 30
0.0
 40
0.0137795
 41
0.0137795
  0
SEQEND
 8
0
  0
POLYLINE
  8
0
 62
     0
 66
     1
 10
0
 20
0
 30
0.0
 40
0.992126
 41
0.992126
  0
VERTEX
  8
0
 10
7.39594
 20
15.5801
 30
0.0
 40
0.0137795
 41
0.0137795
  0
VERTEX
  8
0
 10
7.55344
 20
15.5801
 30
0.0
 40
0.0137795
 41
0.0137795
  0
SEQEND
 8
0
  0
POLYLINE
  8
0
 62
     0
 66
     1
 10
0
 20
0
 30
0.0
 40
0.992126
 41
0.992126
  0
VERTEX
  8
0
 10
7.39594
 20
15.4619
 30
0.0
 40
0.0137795
 41
0.0137795
  0
VERTEX
  8
0
 10
7.39594
 20
15.5801
 30
0.0
 40
0.0137795
 41
0.0137795
  0
SEQEND
 8
0
  0
POLYLINE
  8
0
 62
     0
 66
     1
 10
0
 20
0
 30
0.0
 40
0.992126
 41
0.992126
  0
VERTEX
  8
0
 10
7.55344
 20
15.4619
 30
0.0
 40
0.0137795
 41
0.0137795
  0
VERTEX
  8
0
 10
7.39594
 20
15.4619
 30
0.0
 40
0.0137795
 41
0.0137795
  0
SEQEND
 8
0
  0
POLYLINE
  8
0
 62
     0
 66
     1
 10
0
 20
0
 30
0.0
 40
0.992126
 41
0.992126
  0
VERTEX
  8
0
 10
9.20697
 20
15.6982
 30
0.0
 40
0.0137795
 41
0.0137795
  0
VERTEX
  8
0
 10
9.20697
 20
15.5801
 30
0.0
 40
0.0137795
 41
0.0137795
  0
SEQEND
 8
0
  0
POLYLINE
  8
0
 62
     0
 66
     1
 10
0
 20
0
 30
0.0
 40
0.992126
 41
0.992126
  0
VERTEX
  8
0
 10
9.04953
 20
15.6982
 30
0.0
 40
0.0137795
 41
0.0137795
  0
VERTEX
  8
0
 10
9.20697
 20
15.6982
 30
0.0
 40
0.0137795
 41
0.0137795
  0
SEQEND
 8
0
  0
POLYLINE
  8
0
 62
     0
 66
     1
 10
0
 20
0
 30
0.0
 40
0.992126
 41
0.992126
  0
VERTEX
  8
0
 10
9.04953
 20
15.5801
 30
0.0
 40
0.0137795
 41
0.0137795
  0
VERTEX
  8
0
 10
9.04953
 20
15.6982
 30
0.0
 40
0.0137795
 41
0.0137795
  0
SEQEND
 8
0
  0
POLYLINE
  8
0
 62
     0
 66
     1
 10
0
 20
0
 30
0.0
 40
0.992126
 41
0.992126
  0
VERTEX
  8
0
 10
9.20697
 20
15.5801
 30
0.0
 40
0.0137795
 41
0.0137795
  0
VERTEX
  8
0
 10
9.04953
 20
15.5801
 30
0.0
 40
0.0137795
 41
0.0137795
  0
SEQEND
 8
0
  0
POLYLINE
  8
0
 62
     0
 66
     1
 10
0
 20
0
 30
0.0
 40
0.992126
 41
0.992126
  0
VERTEX
  8
0
 10
9.52197
 20
15.6982
 30
0.0
 40
0.0137795
 41
0.0137795
  0
VERTEX
  8
0
 10
9.52197
 20
15.5801
 30
0.0
 40
0.0137795
 41
0.0137795
  0
SEQEND
 8
0
  0
POLYLINE
  8
0
 62
     0
 66
     1
 10
0
 20
0
 30
0.0
 40
0.992126
 41
0.992126
  0
VERTEX
  8
0
 10
9.36447
 20
15.6982
 30
0.0
 40
0.0137795
 41
0.0137795
  0
VERTEX
  8
0
 10
9.52197
 20
15.6982
 30
0.0
 40
0.0137795
 41
0.0137795
  0
SEQEND
 8
0
  0
POLYLINE
  8
0
 62
     0
 66
     1
 10
0
 20
0
 30
0.0
 40
0.992126
 41
0.992126
  0
VERTEX
  8
0
 10
9.36447
 20
15.5801
 30
0.0
 40
0.0137795
 41
0.0137795
  0
VERTEX
  8
0
 10
9.36447
 20
15.6982
 30
0.0
 40
0.0137795
 41
0.0137795
  0
SEQEND
 8
0
  0
POLYLINE
  8
0
 62
     0
 66
     1
 10
0
 20
0
 30
0.0
 40
0.992126
 41
0.992126
  0
VERTEX
  8
0
 10
9.52197
 20
15.5801
 30
0.0
 40
0.0137795
 41
0.0137795
  0
VERTEX
  8
0
 10
9.36447
 20
15.5801
 30
0.0
 40
0.0137795
 41
0.0137795
  0
SEQEND
 8
0
  0
POLYLINE
  8
0
 62
     0
 66
     1
 10
0
 20
0
 30
0.0
 40
0.992126
 41
0.992126
  0
VERTEX
  8
0
 10
9.38417
 20
14.6351
 30
0.0
 40
0.0137795
 41
0.0137795
  0
VERTEX
  8
0
 10
9.38417
 20
14.5564
 30
0.0
 40
0.0137795
 41
0.0137795
  0
SEQEND
 8
0
  0
POLYLINE
  8
0
 62
     0
 66
     1
 10
0
 20
0
 30
0.0
 40
0.992126
 41
0.992126
  0
VERTEX
  8
0
 10
9.18728
 20
14.6351
 30
0.0
 40
0.0137795
 41
0.0137795
  0
VERTEX
  8
0
 10
9.38417
 20
14.6351
 30
0.0
 40
0.0137795
 41
0.0137795
  0
SEQEND
 8
0
  0
POLYLINE
  8
0
 62
     0
 66
     1
 10
0
 20
0
 30
0.0
 40
0.992126
 41
0.992126
  0
VERTEX
  8
0
 10
9.18728
 20
14.5564
 30
0.0
 40
0.0137795
 41
0.0137795
  0
VERTEX
  8
0
 10
9.18728
 20
14.6351
 30
0.0
 40
0.0137795
 41
0.0137795
  0
SEQEND
 8
0
  0
POLYLINE
  8
0
 62
     0
 66
     1
 10
0
 20
0
 30
0.0
 40
0.992126
 41
0.992126
  0
VERTEX
  8
0
 10
9.38417
 20
14.5564
 30
0.0
 40
0.0137795
 41
0.0137795
  0
VERTEX
  8
0
 10
9.18728
 20
14.5564
 30
0.0
 40
0.0137795
 41
0.0137795
  0
SEQEND
 8
0
  0
POLYLINE
  8
0
 62
     0
 66
     1
 10
0
 20
0
 30
0.0
 40
0.992126
 41
0.992126
  0
VERTEX
  8
0
 10
7.41564
 20
14.6351
 30
0.0
 40
0.0137795
 41
0.0137795
  0
VERTEX
  8
0
 10
7.41564
 20
14.5564
 30
0.0
 40
0.0137795
 41
0.0137795
  0
SEQEND
 8
0
  0
POLYLINE
  8
0
 62
     0
 66
     1
 10
0
 20
0
 30
0.0
 40
0.992126
 41
0.992126
  0
VERTEX
  8
0
 10
7.21881
 20
14.6351
 30
0.0
 40
0.0137795
 41
0.0137795
  0
VERTEX
  8
0
 10
7.41564
 20
14.6351
 30
0.0
 40
0.0137795
 41
0.0137795
  0
SEQEND
 8
0
  0
POLYLINE
  8
0
 62
     0
 66
     1
 10
0
 20
0
 30
0.0
 40
0.992126
 41
0.992126
  0
VERTEX
  8
0
 10
7.21881
 20
14.5564
 30
0.0
 40
0.0137795
 41
0.0137795
  0
VERTEX
  8
0
 10
7.21881
 20
14.6351
 30
0.0
 40
0.0137795
 41
0.0137795
  0
SEQEND
 8
0
  0
POLYLINE
  8
0
 62
     0
 66
     1
 10
0
 20
0
 30
0.0
 40
0.992126
 41
0.992126
  0
VERTEX
  8
0
 10
7.41564
 20
14.5564
 30
0.0
 40
0.0137795
 41
0.0137795
  0
VERTEX
  8
0
 10
7.21881
 20
14.5564
 30
0.0
 40
0.0137795
 41
0.0137795
  0
SEQEND
 8
0
  0
POLYLINE
  8
0
 62
     0
 66
     1
 10
0
 20
0
 30
0.0
 40
0.992126
 41
0.992126
  0
VERTEX
  8
0
 10
7.41564
 20
13.454
 30
0.0
 40
0.0137795
 41
0.0137795
  0
VERTEX
  8
0
 10
7.41564
 20
13.3753
 30
0.0
 40
0.0137795
 41
0.0137795
  0
SEQEND
 8
0
  0
POLYLINE
  8
0
 62
     0
 66
     1
 10
0
 20
0
 30
0.0
 40
0.992126
 41
0.992126
  0
VERTEX
  8
0
 10
7.21881
 20
13.454
 30
0.0
 40
0.0137795
 41
0.0137795
  0
VERTEX
  8
0
 10
7.41564
 20
13.454
 30
0.0
 40
0.0137795
 41
0.0137795
  0
SEQEND
 8
0
  0
POLYLINE
  8
0
 62
     0
 66
     1
 10
0
 20
0
 30
0.0
 40
0.992126
 41
0.992126
  0
VERTEX
  8
0
 10
7.21881
 20
13.3753
 30
0.0
 40
0.0137795
 41
0.0137795
  0
VERTEX
  8
0
 10
7.21881
 20
13.454
 30
0.0
 40
0.0137795
 41
0.0137795
  0
SEQEND
 8
0
  0
POLYLINE
  8
0
 62
     0
 66
     1
 10
0
 20
0
 30
0.0
 40
0.992126
 41
0.992126
  0
VERTEX
  8
0
 10
7.41564
 20
13.3753
 30
0.0
 40
0.0137795
 41
0.0137795
  0
VERTEX
  8
0
 10
7.21881
 20
13.3753
 30
0.0
 40
0.0137795
 41
0.0137795
  0
SEQEND
 8
0
  0
POLYLINE
  8
0
 62
     0
 66
     1
 10
0
 20
0
 30
0.0
 40
0.992126
 41
0.992126
  0
VERTEX
  8
0
 10
9.38417
 20
13.454
 30
0.0
 40
0.0137795
 41
0.0137795
  0
VERTEX
  8
0
 10
9.38417
 20
13.3753
 30
0.0
 40
0.0137795
 41
0.0137795
  0
SEQEND
 8
0
  0
POLYLINE
  8
0
 62
     0
 66
     1
 10
0
 20
0
 30
0.0
 40
0.992126
 41
0.992126
  0
VERTEX
  8
0
 10
9.18728
 20
13.454
 30
0.0
 40
0.0137795
 41
0.0137795
  0
VERTEX
  8
0
 10
9.38417
 20
13.454
 30
0.0
 40
0.0137795
 41
0.0137795
  0
SEQEND
 8
0
  0
POLYLINE
  8
0
 62
     0
 66
     1
 10
0
 20
0
 30
0.0
 40
0.992126
 41
0.992126
  0
VERTEX
  8
0
 10
9.18728
 20
13.3753
 30
0.0
 40
0.0137795
 41
0.0137795
  0
VERTEX
  8
0
 10
9.18728
 20
13.454
 30
0.0
 40
0.0137795
 41
0.0137795
  0
SEQEND
 8
0
  0
POLYLINE
  8
0
 62
     0
 66
     1
 10
0
 20
0
 30
0.0
 40
0.992126
 41
0.992126
  0
VERTEX
  8
0
 10
9.38417
 20
13.3753
 30
0.0
 40
0.0137795
 41
0.0137795
  0
VERTEX
  8
0
 10
9.18728
 20
13.3753
 30
0.0
 40
0.0137795
 41
0.0137795
  0
SEQEND
 8
0
  0
POLYLINE
  8
0
 62
     0
 66
     1
 10
0
 20
0
 30
0.0
 40
0.992126
 41
0.992126
  0
VERTEX
  8
0
 10
12.1401
 20
17.7847
 30
0.0
 40
0.0137795
 41
0.0137795
  0
VERTEX
  8
0
 10
12.1401
 20
17.7061
 30
0.0
 40
0.0137795
 41
0.0137795
  0
SEQEND
 8
0
  0
POLYLINE
  8
0
 62
     0
 66
     1
 10
0
 20
0
 30
0.0
 40
0.992126
 41
0.992126
  0
VERTEX
  8
0
 10
11.9432
 20
17.7847
 30
0.0
 40
0.0137795
 41
0.0137795
  0
VERTEX
  8
0
 10
12.1401
 20
17.7847
 30
0.0
 40
0.0137795
 41
0.0137795
  0
SEQEND
 8
0
  0
POLYLINE
  8
0
 62
     0
 66
     1
 10
0
 20
0
 30
0.0
 40
0.992126
 41
0.992126
  0
VERTEX
  8
0
 10
11.9432
 20
17.7061
 30
0.0
 40
0.0137795
 41
0.0137795
  0
VERTEX
  8
0
 10
11.9432
 20
17.7847
 30
0.0
 40
0.0137795
 41
0.0137795
  0
SEQEND
 8
0
  0
POLYLINE
  8
0
 62
     0
 66
     1
 10
0
 20
0
 30
0.0
 40
0.992126
 41
0.992126
  0
VERTEX
  8
0
 10
12.1401
 20
17.7061
 30
0.0
 40
0.0137795
 41
0.0137795
  0
VERTEX
  8
0
 10
11.9432
 20
17.7061
 30
0.0
 40
0.0137795
 41
0.0137795
  0
SEQEND
 8
0
  0
POLYLINE
  8
0
 62
     0
 66
     1
 10
0
 20
0
 30
0.0
 40
0.992126
 41
0.992126
  0
VERTEX
  8
0
 10
10.1716
 20
17.7847
 30
0.0
 40
0.0137795
 41
0.0137795
  0
VERTEX
  8
0
 10
10.1716
 20
17.7061
 30
0.0
 40
0.0137795
 41
0.0137795
  0
SEQEND
 8
0
  0
POLYLINE
  8
0
 62
     0
 66
     1
 10
0
 20
0
 30
0.0
 40
0.992126
 41
0.992126
  0
VERTEX
  8
0
 10
9.97472
 20
17.7847
 30
0.0
 40
0.0137795
 41
0.0137795
  0
VERTEX
  8
0
 10
10.1716
 20
17.7847
 30
0.0
 40
0.0137795
 41
0.0137795
  0
SEQEND
 8
0
  0
POLYLINE
  8
0
 62
     0
 66
     1
 10
0
 20
0
 30
0.0
 40
0.992126
 41
0.992126
  0
VERTEX
  8
0
 10
9.97472
 20
17.7061
 30
0.0
 40
0.0137795
 41
0.0137795
  0
VERTEX
  8
0
 10
9.97472
 20
17.7847
 30
0.0
 40
0.0137795
 41
0.0137795
  0
SEQEND
 8
0
  0
POLYLINE
  8
0
 62
     0
 66
     1
 10
0
 20
0
 30
0.0
 40
0.992126
 41
0.992126
  0
VERTEX
  8
0
 10
10.1716
 20
17.7061
 30
0.0
 40
0.0137795
 41
0.0137795
  0
VERTEX
  8
0
 10
9.97472
 20
17.7061
 30
0.0
 40
0.0137795
 41
0.0137795
  0
SEQEND
 8
0
  0
POLYLINE
  8
0
 62
     0
 66
     1
 10
0
 20
0
 30
0.0
 40
0.992126
 41
0.992126
  0
VERTEX
  8
0
 10
10.1716
 20
16.6036
 30
0.0
 40
0.0137795
 41
0.0137795
  0
VERTEX
  8
0
 10
10.1716
 20
16.5249
 30
0.0
 40
0.0137795
 41
0.0137795
  0
SEQEND
 8
0
  0
POLYLINE
  8
0
 62
     0
 66
     1
 10
0
 20
0
 30
0.0
 40
0.992126
 41
0.992126
  0
VERTEX
  8
0
 10
9.97472
 20
16.6036
 30
0.0
 40
0.0137795
 41
0.0137795
  0
VERTEX
  8
0
 10
10.1716
 20
16.6036
 30
0.0
 40
0.0137795
 41
0.0137795
  0
SEQEND
 8
0
  0
POLYLINE
  8
0
 62
     0
 66
     1
 10
0
 20
0
 30
0.0
 40
0.992126
 41
0.992126
  0
VERTEX
  8
0
 10
9.97472
 20
16.5249
 30
0.0
 40
0.0137795
 41
0.0137795
  0
VERTEX
  8
0
 10
9.97472
 20
16.6036
 30
0.0
 40
0.0137795
 41
0.0137795
  0
SEQEND
 8
0
  0
POLYLINE
  8
0
 62
     0
 66
     1
 10
0
 20
0
 30
0.0
 40
0.992126
 41
0.992126
  0
VERTEX
  8
0
 10
10.1716
 20
16.5249
 30
0.0
 40
0.0137795
 41
0.0137795
  0
VERTEX
  8
0
 10
9.97472
 20
16.5249
 30
0.0
 40
0.0137795
 41
0.0137795
  0
SEQEND
 8
0
  0
POLYLINE
  8
0
 62
     0
 66
     1
 10
0
 20
0
 30
0.0
 40
0.992126
 41
0.992126
  0
VERTEX
  8
0
 10
12.1401
 20
16.6036
 30
0.0
 40
0.0137795
 41
0.0137795
  0
VERTEX
  8
0
 10
12.1401
 20
16.5249
 30
0.0
 40
0.0137795
 41
0.0137795
  0
SEQEND
 8
0
  0
POLYLINE
  8
0
 62
     0
 66
     1
 10
0
 20
0
 30
0.0
 40
0.992126
 41
0.992126
  0
VERTEX
  8
0
 10
11.9432
 20
16.6036
 30
0.0
 40
0.0137795
 41
0.0137795
  0
VERTEX
  8
0
 10
12.1401
 20
16.6036
 30
0.0
 40
0.0137795
 41
0.0137795
  0
SEQEND
 8
0
  0
POLYLINE
  8
0
 62
     0
 66
     1
 10
0
 20
0
 30
0.0
 40
0.992126
 41
0.992126
  0
VERTEX
  8
0
 10
11.9432
 20
16.5249
 30
0.0
 40
0.0137795
 41
0.0137795
  0
VERTEX
  8
0
 10
11.9432
 20
16.6036
 30
0.0
 40
0.0137795
 41
0.0137795
  0
SEQEND
 8
0
  0
POLYLINE
  8
0
 62
     0
 66
     1
 10
0
 20
0
 30
0.0
 40
0.992126
 41
0.992126
  0
VERTEX
  8
0
 10
12.1401
 20
16.5249
 30
0.0
 40
0.0137795
 41
0.0137795
  0
VERTEX
  8
0
 10
11.9432
 20
16.5249
 30
0.0
 40
0.0137795
 41
0.0137795
  0
SEQEND
 8
0
  0
POLYLINE
  8
0
 62
     0
 66
     1
 10
0
 20
0
 30
0.0
 40
0.992126
 41
0.992126
  0
VERTEX
  8
0
 10
12.1401
 20
16.21
 30
0.0
 40
0.0137795
 41
0.0137795
  0
VERTEX
  8
0
 10
12.1401
 20
16.1312
 30
0.0
 40
0.0137795
 41
0.0137795
  0
SEQEND
 8
0
  0
POLYLINE
  8
0
 62
     0
 66
     1
 10
0
 20
0
 30
0.0
 40
0.992126
 41
0.992126
  0
VERTEX
  8
0
 10
11.9432
 20
16.21
 30
0.0
 40
0.0137795
 41
0.0137795
  0
VERTEX
  8
0
 10
12.1401
 20
16.21
 30
0.0
 40
0.0137795
 41
0.0137795
  0
SEQEND
 8
0
  0
POLYLINE
  8
0
 62
     0
 66
     1
 10
0
 20
0
 30
0.0
 40
0.992126
 41
0.992126
  0
VERTEX
  8
0
 10
11.9432
 20
16.1312
 30
0.0
 40
0.0137795
 41
0.0137795
  0
VERTEX
  8
0
 10
11.9432
 20
16.21
 30
0.0
 40
0.0137795
 41
0.0137795
  0
SEQEND
 8
0
  0
POLYLINE
  8
0
 62
     0
 66
     1
 10
0
 20
0
 30
0.0
 40
0.992126
 41
0.992126
  0
VERTEX
  8
0
 10
12.1401
 20
16.1312
 30
0.0
 40
0.0137795
 41
0.0137795
  0
VERTEX
  8
0
 10
11.9432
 20
16.1312
 30
0.0
 40
0.0137795
 41
0.0137795
  0
SEQEND
 8
0
  0
POLYLINE
  8
0
 62
     0
 66
     1
 10
0
 20
0
 30
0.0
 40
0.992126
 41
0.992126
  0
VERTEX
  8
0
 10
10.1716
 20
16.21
 30
0.0
 40
0.0137795
 41
0.0137795
  0
VERTEX
  8
0
 10
10.1716
 20
16.1312
 30
0.0
 40
0.0137795
 41
0.0137795
  0
SEQEND
 8
0
  0
POLYLINE
  8
0
 62
     0
 66
     1
 10
0
 20
0
 30
0.0
 40
0.992126
 41
0.992126
  0
VERTEX
  8
0
 10
9.97472
 20
16.21
 30
0.0
 40
0.0137795
 41
0.0137795
  0
VERTEX
  8
0
 10
10.1716
 20
16.21
 30
0.0
 40
0.0137795
 41
0.0137795
  0
SEQEND
 8
0
  0
POLYLINE
  8
0
 62
     0
 66
     1
 10
0
 20
0
 30
0.0
 40
0.992126
 41
0.992126
  0
VERTEX
  8
0
 10
9.97472
 20
16.1312
 30
0.0
 40
0.0137795
 41
0.0137795
  0
VERTEX
  8
0
 10
9.97472
 20
16.21
 30
0.0
 40
0.0137795
 41
0.0137795
  0
SEQEND
 8
0
  0
POLYLINE
  8
0
 62
     0
 66
     1
 10
0
 20
0
 30
0.0
 40
0.992126
 41
0.992126
  0
VERTEX
  8
0
 10
10.1716
 20
16.1312
 30
0.0
 40
0.0137795
 41
0.0137795
  0
VERTEX
  8
0
 10
9.97472
 20
16.1312
 30
0.0
 40
0.0137795
 41
0.0137795
  0
SEQEND
 8
0
  0
POLYLINE
  8
0
 62
     0
 66
     1
 10
0
 20
0
 30
0.0
 40
0.992126
 41
0.992126
  0
VERTEX
  8
0
 10
10.1716
 20
15.0289
 30
0.0
 40
0.0137795
 41
0.0137795
  0
VERTEX
  8
0
 10
10.1716
 20
14.9501
 30
0.0
 40
0.0137795
 41
0.0137795
  0
SEQEND
 8
0
  0
POLYLINE
  8
0
 62
     0
 66
     1
 10
0
 20
0
 30
0.0
 40
0.992126
 41
0.992126
  0
VERTEX
  8
0
 10
9.97472
 20
15.0289
 30
0.0
 40
0.0137795
 41
0.0137795
  0
VERTEX
  8
0
 10
10.1716
 20
15.0289
 30
0.0
 40
0.0137795
 41
0.0137795
  0
SEQEND
 8
0
  0
POLYLINE
  8
0
 62
     0
 66
     1
 10
0
 20
0
 30
0.0
 40
0.992126
 41
0.992126
  0
VERTEX
  8
0
 10
9.97472
 20
14.9501
 30
0.0
 40
0.0137795
 41
0.0137795
  0
VERTEX
  8
0
 10
9.97472
 20
15.0289
 30
0.0
 40
0.0137795
 41
0.0137795
  0
SEQEND
 8
0
  0
POLYLINE
  8
0
 62
     0
 66
     1
 10
0
 20
0
 30
0.0
 40
0.992126
 41
0.992126
  0
VERTEX
  8
0
 10
10.1716
 20
14.9501
 30
0.0
 40
0.0137795
 41
0.0137795
  0
VERTEX
  8
0
 10
9.97472
 20
14.9501
 30
0.0
 40
0.0137795
 41
0.0137795
  0
SEQEND
 8
0
  0
POLYLINE
  8
0
 62
     0
 66
     1
 10
0
 20
0
 30
0.0
 40
0.992126
 41
0.992126
  0
VERTEX
  8
0
 10
12.1401
 20
15.0289
 30
0.0
 40
0.0137795
 41
0.0137795
  0
VERTEX
  8
0
 10
12.1401
 20
14.9501
 30
0.0
 40
0.0137795
 41
0.0137795
  0
SEQEND
 8
0
  0
POLYLINE
  8
0
 62
     0
 66
     1
 10
0
 20
0
 30
0.0
 40
0.992126
 41
0.992126
  0
VERTEX
  8
0
 10
11.9432
 20
15.0289
 30
0.0
 40
0.0137795
 41
0.0137795
  0
VERTEX
  8
0
 10
12.1401
 20
15.0289
 30
0.0
 40
0.0137795
 41
0.0137795
  0
SEQEND
 8
0
  0
POLYLINE
  8
0
 62
     0
 66
     1
 10
0
 20
0
 30
0.0
 40
0.992126
 41
0.992126
  0
VERTEX
  8
0
 10
11.9432
 20
14.9501
 30
0.0
 40
0.0137795
 41
0.0137795
  0
VERTEX
  8
0
 10
11.9432
 20
15.0289
 30
0.0
 40
0.0137795
 41
0.0137795
  0
SEQEND
 8
0
  0
POLYLINE
  8
0
 62
     0
 66
     1
 10
0
 20
0
 30
0.0
 40
0.992126
 41
0.992126
  0
VERTEX
  8
0
 10
12.1401
 20
14.9501
 30
0.0
 40
0.0137795
 41
0.0137795
  0
VERTEX
  8
0
 10
11.9432
 20
14.9501
 30
0.0
 40
0.0137795
 41
0.0137795
  0
SEQEND
 8
0
  0
POLYLINE
  8
0
 62
     0
 66
     1
 10
0
 20
0
 30
0.0
 40
0.992126
 41
0.992126
  0
VERTEX
  8
0
 10
12.1401
 20
14.6351
 30
0.0
 40
0.0137795
 41
0.0137795
  0
VERTEX
  8
0
 10
12.1401
 20
14.5564
 30
0.0
 40
0.0137795
 41
0.0137795
  0
SEQEND
 8
0
  0
POLYLINE
  8
0
 62
     0
 66
     1
 10
0
 20
0
 30
0.0
 40
0.992126
 41
0.992126
  0
VERTEX
  8
0
 10
11.9432
 20
14.6351
 30
0.0
 40
0.0137795
 41
0.0137795
  0
VERTEX
  8
0
 10
12.1401
 20
14.6351
 30
0.0
 40
0.0137795
 41
0.0137795
  0
SEQEND
 8
0
  0
POLYLINE
  8
0
 62
     0
 66
     1
 10
0
 20
0
 30
0.0
 40
0.992126
 41
0.992126
  0
VERTEX
  8
0
 10
11.9432
 20
14.5564
 30
0.0
 40
0.0137795
 41
0.0137795
  0
VERTEX
  8
0
 10
11.9432
 20
14.6351
 30
0.0
 40
0.0137795
 41
0.0137795
  0
SEQEND
 8
0
  0
POLYLINE
  8
0
 62
     0
 66
     1
 10
0
 20
0
 30
0.0
 40
0.992126
 41
0.992126
  0
VERTEX
  8
0
 10
12.1401
 20
14.5564
 30
0.0
 40
0.0137795
 41
0.0137795
  0
VERTEX
  8
0
 10
11.9432
 20
14.5564
 30
0.0
 40
0.0137795
 41
0.0137795
  0
SEQEND
 8
0
  0
POLYLINE
  8
0
 62
     0
 66
     1
 10
0
 20
0
 30
0.0
 40
0.992126
 41
0.992126
  0
VERTEX
  8
0
 10
10.1716
 20
14.6351
 30
0.0
 40
0.0137795
 41
0.0137795
  0
VERTEX
  8
0
 10
10.1716
 20
14.5564
 30
0.0
 40
0.0137795
 41
0.0137795
  0
SEQEND
 8
0
  0
POLYLINE
  8
0
 62
     0
 66
     1
 10
0
 20
0
 30
0.0
 40
0.992126
 41
0.992126
  0
VERTEX
  8
0
 10
9.97472
 20
14.6351
 30
0.0
 40
0.0137795
 41
0.0137795
  0
VERTEX
  8
0
 10
10.1716
 20
14.6351
 30
0.0
 40
0.0137795
 41
0.0137795
  0
SEQEND
 8
0
  0
POLYLINE
  8
0
 62
     0
 66
     1
 10
0
 20
0
 30
0.0
 40
0.992126
 41
0.992126
  0
VERTEX
  8
0
 10
9.97472
 20
14.5564
 30
0.0
 40
0.0137795
 41
0.0137795
  0
VERTEX
  8
0
 10
9.97472
 20
14.6351
 30
0.0
 40
0.0137795
 41
0.0137795
  0
SEQEND
 8
0
  0
POLYLINE
  8
0
 62
     0
 66
     1
 10
0
 20
0
 30
0.0
 40
0.992126
 41
0.992126
  0
VERTEX
  8
0
 10
10.1716
 20
14.5564
 30
0.0
 40
0.0137795
 41
0.0137795
  0
VERTEX
  8
0
 10
9.97472
 20
14.5564
 30
0.0
 40
0.0137795
 41
0.0137795
  0
SEQEND
 8
0
  0
POLYLINE
  8
0
 62
     0
 66
     1
 10
0
 20
0
 30
0.0
 40
0.992126
 41
0.992126
  0
VERTEX
  8
0
 10
10.1716
 20
13.454
 30
0.0
 40
0.0137795
 41
0.0137795
  0
VERTEX
  8
0
 10
10.1716
 20
13.3753
 30
0.0
 40
0.0137795
 41
0.0137795
  0
SEQEND
 8
0
  0
POLYLINE
  8
0
 62
     0
 66
     1
 10
0
 20
0
 30
0.0
 40
0.992126
 41
0.992126
  0
VERTEX
  8
0
 10
9.97472
 20
13.454
 30
0.0
 40
0.0137795
 41
0.0137795
  0
VERTEX
  8
0
 10
10.1716
 20
13.454
 30
0.0
 40
0.0137795
 41
0.0137795
  0
SEQEND
 8
0
  0
POLYLINE
  8
0
 62
     0
 66
     1
 10
0
 20
0
 30
0.0
 40
0.992126
 41
0.992126
  0
VERTEX
  8
0
 10
9.97472
 20
13.3753
 30
0.0
 40
0.0137795
 41
0.0137795
  0
VERTEX
  8
0
 10
9.97472
 20
13.454
 30
0.0
 40
0.0137795
 41
0.0137795
  0
SEQEND
 8
0
  0
POLYLINE
  8
0
 62
     0
 66
     1
 10
0
 20
0
 30
0.0
 40
0.992126
 41
0.992126
  0
VERTEX
  8
0
 10
10.1716
 20
13.3753
 30
0.0
 40
0.0137795
 41
0.0137795
  0
VERTEX
  8
0
 10
9.97472
 20
13.3753
 30
0.0
 40
0.0137795
 41
0.0137795
  0
SEQEND
 8
0
  0
POLYLINE
  8
0
 62
     0
 66
     1
 10
0
 20
0
 30
0.0
 40
0.992126
 41
0.992126
  0
VERTEX
  8
0
 10
12.1401
 20
13.454
 30
0.0
 40
0.0137795
 41
0.0137795
  0
VERTEX
  8
0
 10
12.1401
 20
13.3753
 30
0.0
 40
0.0137795
 41
0.0137795
  0
SEQEND
 8
0
  0
POLYLINE
  8
0
 62
     0
 66
     1
 10
0
 20
0
 30
0.0
 40
0.992126
 41
0.992126
  0
VERTEX
  8
0
 10
11.9432
 20
13.454
 30
0.0
 40
0.0137795
 41
0.0137795
  0
VERTEX
  8
0
 10
12.1401
 20
13.454
 30
0.0
 40
0.0137795
 41
0.0137795
  0
SEQEND
 8
0
  0
POLYLINE
  8
0
 62
     0
 66
     1
 10
0
 20
0
 30
0.0
 40
0.992126
 41
0.992126
  0
VERTEX
  8
0
 10
11.9432
 20
13.3753
 30
0.0
 40
0.0137795
 41
0.0137795
  0
VERTEX
  8
0
 10
11.9432
 20
13.454
 30
0.0
 40
0.0137795
 41
0.0137795
  0
SEQEND
 8
0
  0
POLYLINE
  8
0
 62
     0
 66
     1
 10
0
 20
0
 30
0.0
 40
0.992126
 41
0.992126
  0
VERTEX
  8
0
 10
12.1401
 20
13.3753
 30
0.0
 40
0.0137795
 41
0.0137795
  0
VERTEX
  8
0
 10
11.9432
 20
13.3753
 30
0.0
 40
0.0137795
 41
0.0137795
  0
SEQEND
 8
0
  0
POLYLINE
  8
0
 62
     0
 66
     1
 10
0
 20
0
 30
0.0
 40
0.992126
 41
0.992126
  0
VERTEX
  8
0
 10
17.3704
 20
15.8163
 30
0.0
 40
0.0137795
 41
0.0137795
  0
VERTEX
  8
0
 10
17.5672
 20
15.8163
 30
0.0
 40
0.0137795
 41
0.0137795
  0
SEQEND
 8
0
  0
POLYLINE
  8
0
 62
     0
 66
     1
 10
0
 20
0
 30
0.0
 40
0.992126
 41
0.992126
  0
VERTEX
  8
0
 10
17.5672
 20
15.8163
 30
0.0
 40
0.0137795
 41
0.0137795
  0
VERTEX
  8
0
 10
17.5672
 20
15.3438
 30
0.0
 40
0.0137795
 41
0.0137795
  0
SEQEND
 8
0
  0
POLYLINE
  8
0
 62
     0
 66
     1
 10
0
 20
0
 30
0.0
 40
0.992126
 41
0.992126
  0
VERTEX
  8
0
 10
17.5672
 20
15.3438
 30
0.0
 40
0.0137795
 41
0.0137795
  0
VERTEX
  8
0
 10
17.3704
 20
15.3438
 30
0.0
 40
0.0137795
 41
0.0137795
  0
SEQEND
 8
0
  0
POLYLINE
  8
0
 62
     0
 66
     1
 10
0
 20
0
 30
0.0
 40
0.992126
 41
0.992126
  0
VERTEX
  8
0
 10
17.3704
 20
15.3438
 30
0.0
 40
0.0137795
 41
0.0137795
  0
VERTEX
  8
0
 10
17.3704
 20
15.8163
 30
0.0
 40
0.0137795
 41
0.0137795
  0
SEQEND
 8
0
  0
POLYLINE
  8
0
 62
     0
 66
     1
 10
0
 20
0
 30
0.0
 40
0.992126
 41
0.992126
  0
VERTEX
  8
0
 10
13.6302
 20
15.8163
 30
0.0
 40
0.0137795
 41
0.0137795
  0
VERTEX
  8
0
 10
13.8271
 20
15.8163
 30
0.0
 40
0.0137795
 41
0.0137795
  0
SEQEND
 8
0
  0
POLYLINE
  8
0
 62
     0
 66
     1
 10
0
 20
0
 30
0.0
 40
0.992126
 41
0.992126
  0
VERTEX
  8
0
 10
13.8271
 20
15.8163
 30
0.0
 40
0.0137795
 41
0.0137795
  0
VERTEX
  8
0
 10
13.8271
 20
15.3438
 30
0.0
 40
0.0137795
 41
0.0137795
  0
SEQEND
 8
0
  0
POLYLINE
  8
0
 62
     0
 66
     1
 10
0
 20
0
 30
0.0
 40
0.992126
 41
0.992126
  0
VERTEX
  8
0
 10
13.8271
 20
15.3438
 30
0.0
 40
0.0137795
 41
0.0137795
  0
VERTEX
  8
0
 10
13.6302
 20
15.3438
 30
0.0
 40
0.0137795
 41
0.0137795
  0
SEQEND
 8
0
  0
POLYLINE
  8
0
 62
     0
 66
     1
 10
0
 20
0
 30
0.0
 40
0.992126
 41
0.992126
  0
VERTEX
  8
0
 10
13.6302
 20
15.3438
 30
0.0
 40
0.0137795
 41
0.0137795
  0
VERTEX
  8
0
 10
13.6302
 20
15.8163
 30
0.0
 40
0.0137795
 41
0.0137795
  0
SEQEND
 8
0
  0
POLYLINE
  8
0
 62
     0
 66
     1
 10
0
 20
0
 30
0.0
 70
     1
 40
0.8
 41
0.8
  0
VERTEX
  8
0
 10
0.00553386
 20
19.6907
 30
0.0
 40
0.0111111
 41
0.0111111
  0
VERTEX
  8
0
 10
19.6906
 20
19.6907
 30
0.0
 40
0.0111111
 41
0.0111111
  0
VERTEX
  8
0
 10
19.6906
 20
0.00558811
 30
0.0
 40
0.0111111
 41
0.0111111
  0
VERTEX
  8
0
 10
0.00553386
 20
0.00558811
 30
0.0
 40
0.0111111
 41
0.0111111
  0
VERTEX
  8
0
 10
0.00553386
 20
19.6907
 30
0.0
 40
0.0111111
 41
0.0111111
  0
SEQEND
 8
0
  0
ENDSEC
  0
EOF
